<?xml version="1.0" encoding="utf-8"?>
<!-- Generator: Adobe Illustrator 16.0.0, SVG Export Plug-In . SVG Version: 6.00 Build 0)  -->
<!DOCTYPE svg PUBLIC "-//W3C//DTD SVG 1.1//EN" "http://www.w3.org/Graphics/SVG/1.1/DTD/svg11.dtd">
<svg version="1.1" id="Calque_1" xmlns="http://www.w3.org/2000/svg" xmlns:xlink="http://www.w3.org/1999/xlink" x="0px" y="0px"
	 width="185.438px" height="73.625px" viewBox="0 0 185.438 73.625" enable-background="new 0 0 185.438 73.625"
	 xml:space="preserve">
<g>
	<circle fill="#E95B2E" cx="17.808" cy="17.432" r="16.666"/>
	<circle fill="#E95B2E" cx="55.308" cy="17.432" r="16.666"/>
	<circle fill="#E95B2E" cx="92.809" cy="17.432" r="16.666"/>
	<circle fill="#E95B2E" cx="130.309" cy="17.432" r="16.666"/>
	<path id="Facebook_3_" fill="#FFFFFF" d="M15.627,12.39c0,0.415,0,2.266,0,2.266h-1.66v2.771h1.66v8.235h3.411v-8.235h2.288
		c0,0,0.215-1.329,0.317-2.782c-0.298,0-2.594,0-2.594,0s0-1.612,0-1.895s0.372-0.664,0.738-0.664s1.143,0,1.858,0
		c0-0.377,0-1.682,0-2.885c-0.958,0-2.046,0-2.525,0C15.544,9.202,15.627,11.976,15.627,12.39z"/>
	<path id="Github__x28_alt_x29__3_" fill="#FFFFFF" d="M97.568,9.498c0.271,0.611,0.445,1.625,0.188,2.369
		c1.062,0.909,1.429,3.116,0.915,4.92c1.516,0.116,3.321-0.055,4.485,0.41c-1.09-0.14-2.576-0.415-3.982-0.32
		c-0.266,0.019-0.659-0.01-0.641,0.365c1.627,0.128,3.242,0.267,4.578,0.684c-1.323-0.216-2.934-0.546-4.578-0.592
		c-0.682,1.342-2.051,2.001-3.938,2.141c0.203,0.441,0.592,0.61,0.688,1.321c0.143,1.062-0.223,2.618,0.137,3.325
		c0.172,0.339,0.452,0.349,0.642,0.638c-0.463,0.548-1.607-0.061-1.74-0.638c-0.223-0.987,0.342-2.519-0.272-3.188
		c0.043,1.077-0.255,2.59,0.046,3.553c0.117,0.378,0.46,0.524,0.365,0.865c-2.149,0.219-1.252-2.784-1.604-4.555
		c-0.324,0.023-0.182,0.486-0.182,0.683c-0.011,1.731,0.354,4.104-1.512,3.872c-0.056-0.363,0.251-0.487,0.364-0.819
		c0.342-0.974-0.062-2.424,0.095-3.6c-0.713,0.537,0.073,2.41-0.367,3.371c-0.254,0.553-1.072,0.793-1.693,0.546
		c0.082-0.411,0.506-0.345,0.688-0.729c0.253-0.535,0.002-1.305,0.092-2.095c-1.317,0.263-2.34-0.038-2.84-0.866
		c-0.225-0.372-0.279-0.81-0.55-1.139s-0.698-0.374-0.822-0.819c1.631-0.393,1.692,1.679,3.159,1.73
		c0.447,0.016,0.684-0.13,1.099-0.227c0.116-0.523,0.365-0.913,0.732-1.186c-1.823-0.25-3.329-0.817-4.029-2.186
		c-1.658,0.082-3.175,0.303-4.581,0.637c1.276-0.463,2.851-0.629,4.535-0.684c-0.102-0.597-0.973-0.433-1.514-0.41
		c-1.004,0.044-2.27,0.17-3.065,0.32c1.157-0.413,2.782-0.361,4.352-0.365c-0.479-1.504-0.312-3.893,0.73-4.783
		c-0.295-0.747-0.203-1.969,0.186-2.551c1.168,0.052,1.875,0.562,2.608,1.048c0.91-0.259,1.866-0.388,3.114-0.319
		c0.522,0.029,1.067,0.265,1.464,0.227c0.39-0.036,0.814-0.471,1.191-0.637C96.596,9.601,97.01,9.518,97.568,9.498z"/>
	<circle fill="#E95B2E" cx="167.809" cy="17.432" r="16.666"/>
	<path id="Twitter__x28_alt_x29__2_" fill="#FFFFFF" d="M64.215,16.553c1.295-0.107,2.172-0.695,2.51-1.493
		c-0.467,0.286-1.916,0.599-2.715,0.301c-0.039-0.188-0.084-0.366-0.127-0.528c-0.609-2.238-2.695-4.042-4.883-3.824
		c0.176-0.071,0.354-0.138,0.533-0.197c0.241-0.086,1.653-0.316,1.432-0.815c-0.188-0.438-1.912,0.332-2.236,0.432
		c0.429-0.161,1.138-0.438,1.213-0.932c-0.657,0.09-1.303,0.401-1.801,0.853c0.18-0.193,0.316-0.43,0.346-0.684
		c-1.754,1.119-2.776,3.376-3.604,5.566c-0.65-0.63-1.228-1.126-1.744-1.402c-1.451-0.778-3.186-1.59-5.91-2.601
		c-0.082,0.901,0.447,2.099,1.972,2.896c-0.33-0.044-0.935,0.054-1.416,0.17c0.194,1.033,0.838,1.883,2.577,2.294
		c-0.795,0.053-1.207,0.233-1.577,0.624c0.36,0.717,1.245,1.562,2.834,1.389c-1.767,0.762-0.72,2.173,0.719,1.962
		c-2.453,2.534-6.322,2.348-8.543,0.229c5.801,7.903,18.406,4.674,20.285-2.938c1.407,0.012,2.233-0.488,2.748-1.038
		C66.014,16.954,64.838,16.812,64.215,16.553z"/>
	<path id="LinkedIn_3_" fill="#FFFFFF" d="M138.766,19.26v6.254h-3.625v-5.835c0-1.466-0.523-2.466-1.836-2.466
		c-1.002,0-1.6,0.674-1.861,1.326c-0.096,0.233-0.12,0.558-0.12,0.884v6.091h-3.628c0,0,0.051-9.882,0-10.907h3.628v1.546
		c-0.007,0.012-0.017,0.024-0.022,0.036h0.022v-0.036c0.481-0.742,1.343-1.802,3.27-1.802
		C136.979,14.351,138.766,15.91,138.766,19.26z M123.902,9.35c-1.24,0-2.053,0.814-2.053,1.884c0,1.047,0.787,1.886,2.004,1.886
		h0.023c1.266,0,2.051-0.839,2.051-1.886C125.904,10.164,125.145,9.35,123.902,9.35z M122.064,25.514h3.625V14.607h-3.625V25.514z"
		/>
	<g>
		<path fill="#FFFFFF" d="M170.895,16.467h-6.172c-1.279,0-2.316,1.037-2.316,2.314v6.174h2.316h6.172h2.316v-6.174
			C173.211,17.504,172.174,16.467,170.895,16.467z"/>
		<circle fill="#FFFFFF" cx="167.809" cy="12.609" r="2.7"/>
	</g>
</g>
<g>
	<circle fill="none" stroke="#E95B2E" stroke-miterlimit="10" cx="17.808" cy="55.932" r="16.666"/>
	<circle fill="none" stroke="#E95B2E" stroke-miterlimit="10" cx="55.308" cy="55.932" r="16.666"/>
	<circle fill="none" stroke="#E95B2E" stroke-miterlimit="10" cx="92.809" cy="55.932" r="16.666"/>
	<circle fill="none" stroke="#E95B2E" stroke-miterlimit="10" cx="130.309" cy="55.932" r="16.666"/>
	<path id="Facebook_1_" fill="#E95B2E" d="M15.627,50.891c0,0.414,0,2.268,0,2.268h-1.66v2.771h1.66v8.234h3.411V55.93h2.288
		c0,0,0.215-1.328,0.317-2.781c-0.298,0-2.594,0-2.594,0s0-1.611,0-1.896c0-0.282,0.372-0.664,0.738-0.664s1.143,0,1.858,0
		c0-0.377,0-1.684,0-2.885c-0.958,0-2.046,0-2.525,0C15.544,47.701,15.627,50.477,15.627,50.891z"/>
	<path id="Github__x28_alt_x29__1_" fill="#E95B2E" d="M97.568,47.998c0.271,0.609,0.445,1.625,0.188,2.368
		c1.062,0.909,1.429,3.116,0.915,4.921c1.516,0.115,3.321-0.057,4.485,0.41c-1.09-0.141-2.576-0.416-3.982-0.32
		c-0.266,0.02-0.659-0.01-0.641,0.365c1.627,0.127,3.242,0.267,4.578,0.684c-1.323-0.217-2.934-0.547-4.578-0.592
		c-0.682,1.342-2.051,2.001-3.938,2.141c0.203,0.441,0.592,0.609,0.688,1.32c0.143,1.062-0.223,2.617,0.137,3.325
		c0.172,0.339,0.452,0.349,0.642,0.638c-0.463,0.549-1.607-0.061-1.74-0.638c-0.223-0.987,0.342-2.519-0.272-3.188
		c0.043,1.077-0.255,2.59,0.046,3.553c0.117,0.381,0.46,0.525,0.365,0.865c-2.149,0.219-1.252-2.783-1.604-4.555
		c-0.324,0.023-0.182,0.486-0.182,0.684c-0.011,1.73,0.354,4.104-1.512,3.871c-0.056-0.363,0.251-0.484,0.364-0.816
		c0.342-0.977-0.062-2.426,0.095-3.602c-0.713,0.537,0.073,2.41-0.367,3.371c-0.254,0.553-1.072,0.793-1.693,0.547
		c0.082-0.412,0.506-0.346,0.688-0.729c0.253-0.534,0.002-1.305,0.092-2.096c-1.317,0.263-2.34-0.039-2.84-0.865
		c-0.225-0.372-0.279-0.811-0.55-1.139c-0.271-0.33-0.698-0.375-0.822-0.819c1.631-0.394,1.692,1.68,3.159,1.729
		c0.447,0.017,0.684-0.131,1.099-0.228c0.116-0.522,0.365-0.913,0.732-1.187c-1.823-0.25-3.329-0.817-4.029-2.187
		c-1.658,0.081-3.175,0.303-4.581,0.637c1.276-0.463,2.851-0.629,4.535-0.684c-0.102-0.599-0.973-0.435-1.514-0.41
		c-1.004,0.045-2.27,0.17-3.065,0.319c1.157-0.413,2.782-0.36,4.352-0.364c-0.479-1.504-0.312-3.894,0.73-4.783
		c-0.295-0.747-0.203-1.969,0.186-2.551c1.168,0.052,1.875,0.562,2.608,1.048c0.91-0.259,1.866-0.388,3.114-0.318
		c0.522,0.028,1.067,0.266,1.464,0.228c0.39-0.035,0.814-0.472,1.191-0.638C96.596,48.102,97.01,48.018,97.568,47.998z"/>
	<circle fill="none" stroke="#E95B2E" stroke-miterlimit="10" cx="167.809" cy="55.932" r="16.666"/>
	<path id="Twitter__x28_alt_x29__1_" fill="#E95B2E" d="M64.215,55.053c1.295-0.107,2.172-0.695,2.51-1.492
		c-0.467,0.285-1.916,0.6-2.715,0.301c-0.039-0.188-0.084-0.365-0.127-0.526C63.274,51.1,61.188,49.293,59,49.512
		c0.176-0.07,0.354-0.139,0.533-0.195c0.241-0.088,1.653-0.316,1.432-0.815c-0.188-0.438-1.912,0.331-2.236,0.433
		c0.429-0.162,1.138-0.438,1.213-0.932c-0.657,0.09-1.303,0.4-1.801,0.852c0.18-0.191,0.316-0.43,0.346-0.684
		c-1.754,1.119-2.776,3.377-3.604,5.566c-0.65-0.631-1.228-1.127-1.744-1.402c-1.451-0.777-3.186-1.59-5.91-2.602
		c-0.082,0.899,0.447,2.1,1.972,2.896c-0.33-0.044-0.935,0.056-1.416,0.17c0.194,1.033,0.838,1.884,2.577,2.295
		c-0.795,0.054-1.207,0.232-1.577,0.623c0.36,0.718,1.245,1.562,2.834,1.39c-1.767,0.764-0.72,2.175,0.719,1.963
		c-2.453,2.533-6.322,2.349-8.543,0.229c5.801,7.902,18.406,4.675,20.285-2.938c1.407,0.013,2.233-0.486,2.748-1.039
		C66.014,55.454,64.838,55.312,64.215,55.053z"/>
	<path id="LinkedIn_1_" fill="#E95B2E" d="M138.766,57.76v6.254h-3.625V58.18c0-1.467-0.523-2.467-1.836-2.467
		c-1.002,0-1.6,0.674-1.861,1.326c-0.096,0.232-0.12,0.559-0.12,0.884v6.091h-3.628c0,0,0.051-9.883,0-10.906h3.628v1.545
		c-0.007,0.014-0.017,0.025-0.022,0.037h0.022v-0.037c0.481-0.739,1.343-1.801,3.27-1.801
		C136.979,52.852,138.766,54.41,138.766,57.76z M123.902,47.85c-1.24,0-2.053,0.814-2.053,1.885c0,1.048,0.787,1.887,2.004,1.887
		h0.023c1.266,0,2.051-0.839,2.051-1.887C125.904,48.664,125.145,47.85,123.902,47.85z M122.064,64.014h3.625V53.107h-3.625V64.014z
		"/>
	<g>
		<path fill="#E95B2E" d="M170.895,54.967h-6.172c-1.279,0-2.316,1.037-2.316,2.314v6.174h2.316h6.172h2.316v-6.174
			C173.211,56.004,172.174,54.967,170.895,54.967z"/>
		<circle fill="#E95B2E" cx="167.809" cy="51.108" r="2.7"/>
	</g>
</g>
</svg>
