<?xml version="1.0" encoding="utf-8"?>
<!-- Generator: Adobe Illustrator 16.0.0, SVG Export Plug-In . SVG Version: 6.00 Build 0)  -->
<!DOCTYPE svg PUBLIC "-//W3C//DTD SVG 1.1//EN" "http://www.w3.org/Graphics/SVG/1.1/DTD/svg11.dtd">
<svg version="1.1" id="Calque_1" xmlns="http://www.w3.org/2000/svg" xmlns:xlink="http://www.w3.org/1999/xlink" x="0px" y="0px"
	 width="148.125px" height="73.625px" viewBox="0 0 148.125 73.625" enable-background="new 0 0 148.125 73.625"
	 xml:space="preserve">
<g>
	<circle fill="#E95B2E" cx="17.808" cy="17.432" r="16.666"/>
	<circle fill="#E95B2E" cx="55.308" cy="17.432" r="16.666"/>
	<circle fill="#E95B2E" cx="92.808" cy="17.432" r="16.666"/>
	<circle fill="#E95B2E" cx="130.308" cy="17.432" r="16.666"/>
	<path id="Facebook_3_" fill="#FFFFFF" d="M15.627,12.39c0,0.415,0,2.266,0,2.266h-1.66v2.771h1.66v8.235h3.411v-8.235h2.288
		c0,0,0.215-1.329,0.318-2.782c-0.298,0-2.594,0-2.594,0s0-1.612,0-1.895s0.372-0.664,0.738-0.664c0.367,0,1.143,0,1.859,0
		c0-0.377,0-1.682,0-2.885c-0.958,0-2.046,0-2.526,0C15.544,9.202,15.627,11.976,15.627,12.39z"/>
	<path id="Github__x28_alt_x29__3_" fill="#FFFFFF" d="M97.569,9.498c0.27,0.611,0.445,1.625,0.186,2.369
		c1.063,0.909,1.429,3.116,0.915,4.92c1.515,0.116,3.321-0.055,4.486,0.41c-1.09-0.14-2.577-0.415-3.983-0.32
		c-0.266,0.019-0.66-0.01-0.641,0.365c1.627,0.128,3.244,0.267,4.58,0.684c-1.325-0.216-2.934-0.546-4.58-0.592
		c-0.68,1.342-2.05,2.001-3.938,2.141c0.203,0.441,0.592,0.61,0.688,1.321c0.143,1.062-0.222,2.618,0.137,3.325
		c0.172,0.339,0.452,0.349,0.642,0.638c-0.463,0.548-1.609-0.061-1.741-0.638c-0.223-0.987,0.341-2.519-0.273-3.188
		c0.043,1.077-0.255,2.59,0.046,3.553c0.117,0.378,0.46,0.524,0.365,0.865c-2.15,0.219-1.252-2.784-1.604-4.555
		c-0.324,0.023-0.182,0.486-0.182,0.683c-0.011,1.731,0.354,4.104-1.512,3.872c-0.055-0.363,0.251-0.487,0.365-0.819
		c0.341-0.974-0.062-2.424,0.094-3.6c-0.713,0.537,0.074,2.41-0.367,3.371c-0.254,0.553-1.073,0.793-1.693,0.546
		c0.081-0.411,0.506-0.345,0.686-0.729c0.253-0.535,0.002-1.305,0.092-2.095c-1.317,0.263-2.34-0.038-2.84-0.866
		c-0.223-0.372-0.279-0.81-0.55-1.139c-0.27-0.329-0.698-0.374-0.822-0.819c1.631-0.393,1.693,1.679,3.159,1.73
		c0.449,0.016,0.684-0.13,1.099-0.227c0.116-0.523,0.365-0.913,0.732-1.186c-1.823-0.25-3.329-0.817-4.029-2.186
		c-1.658,0.082-3.175,0.303-4.581,0.637c1.276-0.463,2.85-0.629,4.535-0.684c-0.1-0.597-0.971-0.433-1.512-0.41
		c-1.004,0.044-2.27,0.17-3.067,0.32c1.157-0.413,2.782-0.361,4.351-0.365c-0.48-1.504-0.313-3.893,0.731-4.783
		c-0.295-0.747-0.203-1.969,0.186-2.551c1.167,0.052,1.875,0.562,2.608,1.048c0.91-0.259,1.866-0.388,3.114-0.319
		c0.523,0.029,1.069,0.265,1.464,0.227c0.389-0.036,0.816-0.471,1.192-0.637C96.596,9.601,97.01,9.518,97.569,9.498z"/>
	<path id="Twitter__x28_alt_x29__2_" fill="#FFFFFF" d="M64.215,16.553c1.295-0.107,2.172-0.695,2.51-1.493
		c-0.467,0.286-1.916,0.599-2.715,0.301c-0.039-0.188-0.084-0.366-0.127-0.528c-0.609-2.238-2.695-4.042-4.883-3.824
		c0.176-0.071,0.355-0.138,0.533-0.197c0.242-0.086,1.654-0.316,1.432-0.815c-0.188-0.438-1.912,0.332-2.236,0.432
		c0.428-0.161,1.137-0.438,1.213-0.932c-0.658,0.09-1.303,0.401-1.801,0.853c0.18-0.193,0.316-0.43,0.346-0.684
		c-1.754,1.119-2.777,3.376-3.605,5.566c-0.65-0.63-1.227-1.126-1.744-1.402c-1.451-0.778-3.186-1.59-5.91-2.601
		c-0.082,0.901,0.447,2.099,1.971,2.896c-0.33-0.044-0.934,0.054-1.416,0.17c0.195,1.033,0.838,1.883,2.578,2.294
		c-0.795,0.053-1.207,0.233-1.578,0.624c0.361,0.717,1.246,1.562,2.834,1.389c-1.766,0.762-0.719,2.173,0.719,1.962
		c-2.453,2.534-6.322,2.348-8.543,0.229c5.801,7.903,18.406,4.674,20.285-2.938c1.408,0.012,2.234-0.488,2.748-1.038
		C66.014,16.954,64.838,16.812,64.215,16.553z"/>
	<path id="LinkedIn_3_" fill="#FFFFFF" d="M138.766,19.26v6.254h-3.626v-5.835c0-1.466-0.524-2.466-1.836-2.466
		c-1.002,0-1.599,0.674-1.86,1.326c-0.097,0.233-0.121,0.558-0.121,0.884v6.091h-3.627c0,0,0.049-9.882,0-10.907h3.627v1.546
		c-0.007,0.012-0.017,0.024-0.023,0.036h0.023v-0.036c0.482-0.742,1.342-1.802,3.269-1.802
		C136.978,14.351,138.766,15.91,138.766,19.26z M123.902,9.35c-1.241,0-2.053,0.814-2.053,1.884c0,1.047,0.788,1.886,2.004,1.886
		h0.024c1.266,0,2.051-0.839,2.051-1.886C125.905,10.164,125.144,9.35,123.902,9.35z M122.065,25.514h3.625V14.607h-3.625V25.514z"
		/>
</g>
<g>
	<circle fill="none" stroke="#E95B2E" stroke-miterlimit="10" cx="17.808" cy="55.932" r="16.666"/>
	<circle fill="none" stroke="#E95B2E" stroke-miterlimit="10" cx="55.308" cy="55.932" r="16.666"/>
	<circle fill="none" stroke="#E95B2E" stroke-miterlimit="10" cx="92.808" cy="55.932" r="16.666"/>
	<circle fill="none" stroke="#E95B2E" stroke-miterlimit="10" cx="130.308" cy="55.932" r="16.666"/>
	<path id="Facebook_1_" fill="#E95B2E" d="M15.627,50.89c0,0.415,0,2.267,0,2.267h-1.66v2.771h1.66v8.235h3.411v-8.235h2.288
		c0,0,0.215-1.329,0.318-2.782c-0.298,0-2.594,0-2.594,0s0-1.611,0-1.895c0-0.282,0.372-0.664,0.738-0.664c0.367,0,1.143,0,1.859,0
		c0-0.377,0-1.682,0-2.885c-0.958,0-2.046,0-2.526,0C15.544,47.701,15.627,50.476,15.627,50.89z"/>
	<path id="Github__x28_alt_x29__1_" fill="#E95B2E" d="M97.569,47.998c0.27,0.61,0.445,1.625,0.186,2.368
		c1.063,0.909,1.429,3.116,0.915,4.921c1.515,0.115,3.321-0.056,4.486,0.41c-1.09-0.141-2.577-0.416-3.983-0.32
		c-0.266,0.019-0.66-0.01-0.641,0.365c1.627,0.127,3.244,0.267,4.58,0.684c-1.325-0.217-2.934-0.547-4.58-0.592
		c-0.68,1.342-2.05,2.001-3.938,2.141c0.203,0.441,0.592,0.609,0.688,1.32c0.143,1.062-0.222,2.617,0.137,3.325
		c0.172,0.339,0.452,0.349,0.642,0.638c-0.463,0.549-1.609-0.061-1.741-0.638c-0.223-0.987,0.341-2.519-0.273-3.188
		c0.043,1.077-0.255,2.59,0.046,3.553c0.117,0.379,0.46,0.525,0.365,0.865c-2.15,0.219-1.252-2.783-1.604-4.555
		c-0.324,0.023-0.182,0.486-0.182,0.684c-0.011,1.73,0.354,4.104-1.512,3.871c-0.055-0.363,0.251-0.486,0.365-0.818
		c0.341-0.975-0.062-2.424,0.094-3.6c-0.713,0.537,0.074,2.41-0.367,3.371c-0.254,0.553-1.073,0.793-1.693,0.547
		c0.081-0.412,0.506-0.346,0.686-0.729c0.253-0.534,0.002-1.305,0.092-2.095c-1.317,0.262-2.34-0.039-2.84-0.866
		c-0.223-0.372-0.279-0.81-0.55-1.139c-0.27-0.329-0.698-0.374-0.822-0.819c1.631-0.393,1.693,1.68,3.159,1.73
		c0.449,0.016,0.684-0.13,1.099-0.227c0.116-0.523,0.365-0.913,0.732-1.186c-1.823-0.25-3.329-0.818-4.029-2.186
		c-1.658,0.081-3.175,0.303-4.581,0.637c1.276-0.463,2.85-0.629,4.535-0.684c-0.1-0.598-0.971-0.434-1.512-0.41
		c-1.004,0.045-2.27,0.17-3.067,0.32c1.157-0.414,2.782-0.361,4.351-0.365c-0.48-1.504-0.313-3.893,0.731-4.783
		c-0.295-0.747-0.203-1.969,0.186-2.551c1.167,0.052,1.875,0.561,2.608,1.048c0.91-0.259,1.866-0.388,3.114-0.319
		c0.523,0.029,1.069,0.265,1.464,0.227c0.389-0.035,0.816-0.471,1.192-0.637C96.596,48.101,97.01,48.018,97.569,47.998z"/>
	<path id="Twitter__x28_alt_x29__1_" fill="#E95B2E" d="M64.215,55.053c1.295-0.107,2.172-0.695,2.51-1.492
		c-0.467,0.285-1.916,0.598-2.715,0.301c-0.039-0.188-0.084-0.367-0.127-0.528c-0.609-2.237-2.695-4.042-4.883-3.823
		c0.176-0.072,0.355-0.139,0.533-0.197c0.242-0.087,1.654-0.316,1.432-0.815c-0.188-0.438-1.912,0.331-2.236,0.433
		c0.428-0.162,1.137-0.439,1.213-0.932c-0.658,0.09-1.303,0.4-1.801,0.852c0.18-0.193,0.316-0.43,0.346-0.684
		c-1.754,1.119-2.777,3.377-3.605,5.566c-0.65-0.63-1.227-1.127-1.744-1.402c-1.451-0.777-3.186-1.59-5.91-2.602
		c-0.082,0.901,0.447,2.1,1.971,2.896c-0.33-0.044-0.934,0.055-1.416,0.17c0.195,1.033,0.838,1.883,2.578,2.295
		c-0.795,0.053-1.207,0.232-1.578,0.623c0.361,0.717,1.246,1.562,2.834,1.389c-1.766,0.763-0.719,2.174,0.719,1.963
		c-2.453,2.534-6.322,2.348-8.543,0.229c5.801,7.902,18.406,4.674,20.285-2.938c1.408,0.012,2.234-0.487,2.748-1.038
		C66.014,55.454,64.838,55.312,64.215,55.053z"/>
	<path id="LinkedIn_1_" fill="#E95B2E" d="M138.766,57.76v6.254h-3.626v-5.835c0-1.466-0.524-2.466-1.836-2.466
		c-1.002,0-1.599,0.674-1.86,1.326c-0.097,0.232-0.121,0.558-0.121,0.884v6.091h-3.627c0,0,0.049-9.883,0-10.906h3.627v1.545
		c-0.007,0.012-0.017,0.025-0.023,0.036h0.023v-0.036c0.482-0.741,1.342-1.802,3.269-1.802
		C136.978,52.851,138.766,54.41,138.766,57.76z M123.902,47.85c-1.241,0-2.053,0.814-2.053,1.884c0,1.047,0.788,1.886,2.004,1.886
		h0.024c1.266,0,2.051-0.839,2.051-1.886C125.905,48.664,125.144,47.85,123.902,47.85z M122.065,64.014h3.625V53.107h-3.625V64.014z
		"/>
</g>
</svg>
