<?xml version="1.0" encoding="utf-8"?>
<!-- Generator: Adobe Illustrator 16.0.0, SVG Export Plug-In . SVG Version: 6.00 Build 0)  -->
<!DOCTYPE svg PUBLIC "-//W3C//DTD SVG 1.1//EN" "http://www.w3.org/Graphics/SVG/1.1/DTD/svg11.dtd">
<svg version="1.1" id="Calque_1" xmlns="http://www.w3.org/2000/svg" xmlns:xlink="http://www.w3.org/1999/xlink" x="0px" y="0px"
	 width="247.541px" height="64.658px" viewBox="-8.912 -1.588 247.541 64.658"
	 enable-background="new -8.912 -1.588 247.541 64.658" xml:space="preserve">
<g>
	<path fill="#8F8F8E" d="M2.851-1.364h4.145l11.637,27.544l-4.301-0.001l-2.802-6.944l-13.494-0.001l-2.803,6.944l-4.145,0.001
		L2.851-1.364z M4.786,2.346l-5.488,13.652l10.971,0.003L4.786,2.346z"/>
	<path fill="#8F8F8E" d="M30.468-1.36h5.367l12.152,22.179l0.078-0.001L48.067-1.36l3.948,0.001L52.01,26.185h-5.051L34.491,3.532
		h-0.077v22.651l-3.948-0.001L30.468-1.36z"/>
	<path fill="#8F8F8E" d="M72.369,2.115l-8.562,0.001l0-3.475l21.07,0.002v3.472l-8.564,0l-0.004,24.07l-3.945,0.001L72.369,2.115z"
		/>
	<path fill="#8F8F8E" d="M108.55-1.829c8.367,0.001,13.261,6.079,13.259,14.247c0,8.366-4.857,14.246-13.26,14.244
		c-8.404,0-13.257-5.879-13.257-14.246C95.291,4.247,100.186-1.829,108.55-1.829z M108.549,23.189c6.353,0,9.077-5.286,9.077-10.772
		c0.002-5.604-2.999-10.812-9.076-10.773c-6.076-0.041-9.076,5.169-9.076,10.772C99.472,17.902,102.195,23.188,108.549,23.189z"/>
	<path fill="#8F8F8E" d="M135.299-1.353h3.948l-0.005,27.544l-3.946,0L135.299-1.353z"/>
	<path fill="#8F8F8E" d="M154.119-1.351h5.367l12.152,22.179l0.078,0.001l0.002-22.179l3.947,0.001l-0.004,27.542h-5.05
		L158.144,3.542h-0.078l-0.004,22.649l-3.943,0.002V-1.351z"/>
	<path fill="#8F8F8E" d="M190.731-1.348l15.433,0v3.473l-11.484-0.001l-0.002,8.05l10.456,0.001l0.002,3.471h-10.458v9.076
		l11.484,0.001l-0.002,3.471h-15.429V-1.348z"/>
	<path fill="#E95A2D" d="M59.507,34.509l6.233-0.001l10.812,27.544h-6.118l-2.366-6.313l-11.169,0l-2.408,6.312h-5.721
		L59.507,34.509z M62.544,40.035h-0.08l-3.984,11.363l8.049,0.001L62.544,40.035z"/>
	<path fill="#E95A2D" d="M78.285,34.509l5.92,0.001l7.06,21.624l0.079,0.002l6.988-21.625l5.485,0L94.54,62.055h-6.788
		L78.285,34.509z"/>
	<path fill="#E95A2D" d="M109.888,34.513h5.524l-0.001,27.544h-5.523L109.888,34.513z"/>
	<path fill="#E95A2D" d="M145.796,39.843c-2.13-0.985-4.893-1.461-7.103-1.461c-6.431,0-9.984,4.34-9.984,9.983
		c0,5.604,3.472,9.829,9.355,9.829c1.497,0,2.679-0.16,3.624-0.396l0.001-7.182l-5.838,0l0.002-4.341h11.128l-0.002,14.839
		c-2.922,0.79-5.957,1.419-8.919,1.419c-8.916,0-15.113-4.459-15.112-13.772c0.002-9.433,5.764-14.718,15.117-14.717
		c3.194,0,5.718,0.433,8.088,1.143L145.796,39.843z"/>
	<path fill="#E95A2D" d="M155.459,34.517l6.789,0l10.496,20.601h0.078V34.518h5.289l-0.004,27.545h-6.744l-10.54-20.601h-0.075
		l-0.003,20.599h-5.288L155.459,34.517z"/>
	<path fill="#E95A2D" d="M195.074,34.521l6.232-0.001l10.812,27.546L206,62.063l-2.367-6.313h-11.166l-2.406,6.313h-5.723
		L195.074,34.521z M198.11,40.045l-0.079,0l-3.987,11.364h8.051L198.11,40.045z"/>
	<path fill="#E95A2D" d="M232.279,58.201c-5.659,0.001-9.201-4.301-9.234-9.905c0.033-5.604,3.575-9.907,9.234-9.905
		c1.969-0.001,3.865,0.276,5.957,1.461l0.393-4.658c-2.013-0.789-4.418-1.144-6.232-1.144c-9.192-0.001-14.902,5.115-15.097,14.246
		c0.194,9.13,5.904,14.247,15.097,14.246c1.814,0,4.22-0.355,6.232-1.144l-0.393-4.658
		C236.144,57.925,234.248,58.203,232.279,58.201z"/>
	<path fill="#E95A2D" d="M31.572,42.203c0.001-3,2.447-3.83,4.341-3.829c1.934,0,3.867,0.435,5.603,1.184l0.513-4.538
		c-2.012-0.671-4.221-0.985-6.588-0.985c-4.855-0.002-9.629,2.246-9.631,8.403c0,9.114,12.072,6.946,12.074,12.192
		c0.003,2.485-2.802,3.554-4.893,3.554l-4.704-0.012h-2.634v4.352h2.634l4.704-0.006c0.109,0,0.203,0.005,0.317,0.005
		c5.562,0,10.339-2.285,10.339-8.324C43.647,44.963,31.569,46.978,31.572,42.203z"/>
</g>
</svg>
