<?xml version="1.0" encoding="utf-8"?>
<!-- Generator: Adobe Illustrator 16.0.0, SVG Export Plug-In . SVG Version: 6.00 Build 0)  -->
<!DOCTYPE svg PUBLIC "-//W3C//DTD SVG 1.1//EN" "http://www.w3.org/Graphics/SVG/1.1/DTD/svg11.dtd">
<svg version="1.1" id="Calque_1" xmlns="http://www.w3.org/2000/svg" xmlns:xlink="http://www.w3.org/1999/xlink" x="0px" y="0px"
	 xml:space="preserve">
<rect xmlns="http://www.w3.org/2000/svg" x="46px" y="89px" fill="#FFFFFF" width="451.058" height="46"/>
<g>
	<path fill="#8F8F8E" d="M32.119,0.901h8.036l22.558,53.398l-8.337-0.003l-5.432-13.46l-26.16-0.004l-5.433,13.463l-8.034,0.002
		L32.119,0.901z M35.871,8.092L25.233,34.56l21.268,0.005L35.871,8.092z"/>
	<path fill="#8F8F8E" d="M85.658,0.908l10.405,0l23.557,42.996l0.152-0.002l0.004-42.994l7.653,0.002l-0.007,53.397l-9.793,0
		L93.457,10.393l-0.149,0v43.911l-7.653-0.001L85.658,0.908z"/>
	<path fill="#8F8F8E" d="M166.888,7.644l-16.599,0.002l0.003-6.736l40.847,0.005l0,6.73l-16.603-0.002l-0.007,46.664l-7.649,0.001
		L166.888,7.644z"/>
	<path fill="#8F8F8E" d="M237.03,0c16.218,0.002,25.706,11.783,25.702,27.618c0,16.218-9.416,27.617-25.706,27.614
		c-16.293,0-25.702-11.399-25.702-27.618C211.325,11.778,220.814-0.001,237.03,0z M237.027,48.5
		c12.314,0.001,17.596-10.248,17.596-20.884c0.004-10.863-5.812-20.961-17.594-20.886c-11.781-0.077-17.597,10.021-17.597,20.885
		C219.429,38.249,224.708,48.499,237.027,48.5z"/>
	<path fill="#8F8F8E" d="M288.885,0.923l7.652,0l-0.006,53.397l-7.652-0.002L288.885,0.923z"/>
	<path fill="#8F8F8E" d="M325.37,0.927l10.403-0.001l23.56,42.995l0.152,0.002l0.004-42.995l7.651,0.002l-0.008,53.394l-9.788,0
		l-24.171-43.912l-0.152,0l-0.007,43.907l-7.646,0.003L325.37,0.927z"/>
	<path fill="#8F8F8E" d="M396.347,0.931l29.916,0.002l0,6.733L404,7.665l-0.004,15.606l20.271,0.002l0.003,6.729l-20.273,0l0,17.593
		l22.263,0.003l-0.004,6.729l-29.91-0.001L396.347,0.931z"/>
	<path fill="#E95A2D" d="M141.953,70.445l12.084-0.002l20.958,53.398l-11.859,0l-4.587-12.238l-21.652,0.001l-4.668,12.237
		l-11.092,0.001L141.953,70.445z M147.841,81.157h-0.156l-7.725,22.028l15.605,0.003L147.841,81.157z"/>
	<path fill="#E95A2D" d="M178.357,70.445l11.476,0.002l13.687,41.921l0.152,0.004l13.546-41.923l10.633,0.001l-17.984,53.394
		l-13.157,0L178.357,70.445z"/>
	<path fill="#E95A2D" d="M239.624,70.452l10.709,0l-0.003,53.397l-10.708,0L239.624,70.452z"/>
	<path fill="#E95A2D" d="M309.233,80.784c-4.129-1.908-9.484-2.832-13.768-2.832c-12.467,0-19.356,8.414-19.356,19.353
		c0,10.865,6.73,19.054,18.135,19.054c2.903,0,5.195-0.309,7.027-0.767l0.001-13.924l-11.317,0.002l0.003-8.416l21.573,0
		l-0.003,28.765c-5.666,1.531-11.55,2.752-17.291,2.752c-17.286,0-29.298-8.643-29.297-26.699
		c0.003-18.286,11.174-28.534,29.304-28.531c6.193,0.002,11.085,0.839,15.68,2.217L309.233,80.784z"/>
	<path fill="#E95A2D" d="M327.968,70.459l13.159,0.003l20.348,39.935l0.152,0l0-39.936h10.251l-0.004,53.399l-13.078,0
		l-20.429-39.937l-0.148,0l-0.005,39.932l-10.25,0L327.968,70.459z"/>
	<path fill="#E95A2D" d="M404.764,70.469l12.084-0.004l20.959,53.4l-11.86-0.004l-4.59-12.238l-21.648,0l-4.665,12.238l-11.092,0
		L404.764,70.469z M410.651,81.178l-0.153-0.003l-7.73,22.03l15.608,0L410.651,81.178z"/>
	<path fill="#E95A2D" d="M477.123,124.785c-0.004,0-0.008,0-0.011,0c-17.292,0-29.301-8.646-29.297-26.7
		c0.004-18.284,11.173-28.532,29.304-28.53c3.517,0,8.179,0.688,12.082,2.217l-0.761,9.031c-4.056-2.298-7.732-2.838-11.551-2.834
		c-11.019-0.003-17.904,8.414-17.905,19.352c0,10.862,6.733,19.052,18.126,19.052c0.002,0,0.009,0,0.013,0l3.584-0.023l100.876,0
		l0,8.437l-100.876,0l-3.584,0L477.123,124.785z"/>
	<path fill="#E95A2D" d="M90.546,124.745c0.211,0,0.395,0.01,0.615,0.01c10.783,0,20.042-4.431,20.042-16.137
		c0.004-17.907-23.41-14.002-23.406-23.257c0.003-5.816,4.743-7.426,8.417-7.423c3.748,0,7.497,0.842,10.861,2.295l0.994-8.799
		c-3.9-1.299-8.182-1.909-12.772-1.91c-9.411-0.004-18.667,4.355-18.671,16.291c0.001,17.669,23.403,13.466,23.407,23.638
		c0.007,4.817-5.432,6.889-9.486,6.889l-9.12-0.022L0,116.321l0,8.435l81.427,0L90.546,124.745z"/>
</g>
</svg>
