<?xml version="1.0" encoding="utf-8"?>
<!-- Generator: Adobe Illustrator 16.0.0, SVG Export Plug-In . SVG Version: 6.00 Build 0)  -->
<!DOCTYPE svg PUBLIC "-//W3C//DTD SVG 1.1//EN" "http://www.w3.org/Graphics/SVG/1.1/DTD/svg11.dtd">
<svg version="1.1" id="Calque_1" xmlns="http://www.w3.org/2000/svg" xmlns:xlink="http://www.w3.org/1999/xlink" x="0px" y="0px"
	 width="223.219px" height="73.625px" viewBox="0 0 223.219 73.625" enable-background="new 0 0 223.219 73.625"
	 xml:space="preserve">
<g>
	<circle fill="#E95B2E" cx="17.808" cy="17.432" r="16.666"/>
	<circle fill="#E95B2E" cx="55.308" cy="17.432" r="16.666"/>
	<circle fill="#E95B2E" cx="92.809" cy="17.432" r="16.666"/>
	<circle fill="#E95B2E" cx="130.309" cy="17.432" r="16.666"/>
	<path id="Facebook_3_" fill="#FFFFFF" d="M15.627,12.39c0,0.415,0,2.266,0,2.266h-1.66v2.771h1.66v8.235h3.411v-8.235h2.288
		c0,0,0.215-1.329,0.316-2.782c-0.298,0-2.594,0-2.594,0s0-1.612,0-1.895s0.372-0.664,0.738-0.664c0.365,0,1.143,0,1.857,0
		c0-0.377,0-1.682,0-2.885c-0.958,0-2.046,0-2.524,0C15.544,9.202,15.627,11.976,15.627,12.39z"/>
	<path id="Github__x28_alt_x29__3_" fill="#FFFFFF" d="M97.568,9.498c0.271,0.611,0.445,1.625,0.188,2.369
		c1.062,0.909,1.429,3.116,0.915,4.92c1.516,0.116,3.321-0.055,4.484,0.41c-1.09-0.14-2.575-0.415-3.981-0.32
		c-0.266,0.019-0.659-0.01-0.641,0.365c1.627,0.128,3.241,0.267,4.577,0.684c-1.322-0.216-2.934-0.546-4.577-0.592
		c-0.683,1.342-2.052,2.001-3.938,2.141c0.203,0.441,0.592,0.61,0.688,1.321c0.143,1.062-0.224,2.618,0.137,3.325
		c0.172,0.339,0.452,0.349,0.642,0.638c-0.463,0.548-1.606-0.061-1.74-0.638c-0.223-0.987,0.343-2.519-0.271-3.188
		c0.043,1.077-0.255,2.59,0.046,3.553c0.117,0.378,0.46,0.524,0.365,0.865c-2.149,0.219-1.252-2.784-1.604-4.555
		c-0.323,0.023-0.182,0.486-0.182,0.683c-0.011,1.731,0.354,4.104-1.512,3.872c-0.057-0.363,0.251-0.487,0.363-0.819
		c0.343-0.974-0.062-2.424,0.096-3.6c-0.713,0.537,0.072,2.41-0.367,3.371c-0.254,0.553-1.072,0.793-1.693,0.546
		c0.082-0.411,0.506-0.345,0.688-0.729c0.253-0.535,0.002-1.305,0.092-2.095c-1.317,0.263-2.34-0.038-2.84-0.866
		c-0.226-0.372-0.279-0.81-0.55-1.139c-0.271-0.329-0.698-0.374-0.822-0.819c1.631-0.393,1.691,1.679,3.159,1.73
		c0.446,0.016,0.684-0.13,1.099-0.227c0.116-0.523,0.365-0.913,0.732-1.186c-1.823-0.25-3.329-0.817-4.029-2.186
		c-1.658,0.082-3.175,0.303-4.581,0.637c1.276-0.463,2.851-0.629,4.535-0.684c-0.103-0.597-0.974-0.433-1.514-0.41
		c-1.005,0.044-2.271,0.17-3.065,0.32c1.157-0.413,2.782-0.361,4.352-0.365c-0.479-1.504-0.312-3.893,0.73-4.783
		c-0.295-0.747-0.203-1.969,0.186-2.551c1.168,0.052,1.875,0.562,2.608,1.048c0.91-0.259,1.866-0.388,3.114-0.319
		c0.521,0.029,1.066,0.265,1.464,0.227c0.39-0.036,0.813-0.471,1.19-0.637C96.596,9.601,97.01,9.518,97.568,9.498z"/>
	<circle fill="#E95B2E" cx="167.809" cy="17.432" r="16.666"/>
	<path id="Twitter__x28_alt_x29__2_" fill="#FFFFFF" d="M64.215,16.553c1.295-0.107,2.172-0.695,2.51-1.493
		c-0.467,0.286-1.916,0.599-2.715,0.301c-0.039-0.188-0.084-0.366-0.127-0.528c-0.609-2.238-2.695-4.042-4.883-3.824
		c0.176-0.071,0.354-0.138,0.533-0.197c0.24-0.086,1.652-0.316,1.432-0.815c-0.188-0.438-1.912,0.332-2.236,0.432
		c0.43-0.161,1.139-0.438,1.213-0.932c-0.656,0.09-1.303,0.401-1.801,0.853c0.18-0.193,0.316-0.43,0.346-0.684
		c-1.754,1.119-2.775,3.376-3.604,5.566c-0.65-0.63-1.229-1.126-1.744-1.402c-1.451-0.778-3.186-1.59-5.91-2.601
		c-0.082,0.901,0.447,2.099,1.973,2.896c-0.33-0.044-0.936,0.054-1.416,0.17c0.193,1.033,0.838,1.883,2.576,2.294
		c-0.795,0.053-1.207,0.233-1.576,0.624c0.359,0.717,1.244,1.562,2.834,1.389c-1.768,0.762-0.721,2.173,0.719,1.962
		c-2.453,2.534-6.322,2.348-8.543,0.229c5.801,7.903,18.406,4.674,20.285-2.938c1.406,0.012,2.232-0.488,2.748-1.038
		C66.014,16.954,64.838,16.812,64.215,16.553z"/>
	<path id="LinkedIn_3_" fill="#FFFFFF" d="M138.766,19.26v6.254h-3.625v-5.835c0-1.466-0.522-2.466-1.836-2.466
		c-1.002,0-1.6,0.674-1.861,1.326c-0.096,0.233-0.119,0.558-0.119,0.884v6.091h-3.629c0,0,0.052-9.882,0-10.907h3.629v1.546
		c-0.008,0.012-0.018,0.024-0.022,0.036h0.022v-0.036c0.48-0.742,1.343-1.802,3.27-1.802
		C136.979,14.351,138.766,15.91,138.766,19.26z M123.902,9.35c-1.239,0-2.053,0.814-2.053,1.884c0,1.047,0.787,1.886,2.004,1.886
		h0.023c1.266,0,2.051-0.839,2.051-1.886C125.904,10.164,125.145,9.35,123.902,9.35z M122.064,25.514h3.625V14.607h-3.625V25.514z"
		/>
	<circle fill="#E95B2E" cx="205.309" cy="17.432" r="16.666"/>
	<g>
		<path fill="#FFFFFF" d="M170.895,16.467h-6.172c-1.279,0-2.315,1.037-2.315,2.314v6.174h2.315h6.172h2.316v-6.174
			C173.211,17.504,172.174,16.467,170.895,16.467z"/>
		<circle fill="#FFFFFF" cx="167.809" cy="12.609" r="2.7"/>
	</g>
	<g>
		<path fill-rule="evenodd" clip-rule="evenodd" fill="#FFFFFF" d="M198.612,24.729c-0.005,0.006-0.01,0.014-0.015,0.021
			c-0.003-0.004-0.008-0.009-0.008-0.013c0.001-0.015,0.009-0.018,0.021-0.009L198.612,24.729z"/>
		<path fill-rule="evenodd" clip-rule="evenodd" fill="#FFFFFF" d="M215.673,13.875c-0.227-1.072-0.847-1.85-1.905-2.228
			c-0.115-0.042-0.089-0.119-0.089-0.192c0.007-0.79-0.183-1.529-0.561-2.222c-0.439-0.802-1.04-1.416-1.948-1.667
			c-0.669-0.185-1.329-0.117-1.981,0.087c-0.062,0.02-0.113,0.044-0.18-0.003c-0.6-0.43-1.285-0.682-1.96-0.956
			c-0.179-0.073-0.405-0.097-0.418-0.366c-0.001-0.027-0.031-0.055-0.053-0.079c-0.161-0.189-0.367-0.31-0.601-0.387
			c-0.055-0.018-0.128-0.051-0.164-0.001c-0.036,0.048,0.034,0.093,0.064,0.134c0.2,0.278,0.158,0.492-0.141,0.667
			c-0.163,0.097-0.341,0.16-0.525,0.196c-0.83,0.161-1.629,0.421-2.413,0.731c-0.065,0.026-0.119,0.025-0.183-0.004
			c-0.829-0.375-1.694-0.451-2.583-0.292c-1.074,0.192-1.933,0.711-2.464,1.699c-0.411,0.764-0.571,1.589-0.581,2.448
			c-0.002,0.119-0.025,0.174-0.15,0.214c-0.442,0.141-0.825,0.389-1.132,0.739c-0.896,1.019-1.043,2.208-0.667,3.453
			c0.338,1.116,1.097,1.835,2.29,2.019c0.106,0.017,0.096,0.053,0.053,0.122c-0.13,0.21-0.254,0.426-0.505,0.519
			c-0.035,0.013-0.076,0.032-0.073,0.075c0.002,0.057,0.055,0.059,0.096,0.064c0.113,0.015,0.224,0.005,0.335-0.021
			c0.071-0.017,0.148-0.112,0.198-0.061c0.06,0.063-0.01,0.162-0.029,0.244c-0.008,0.036-0.024,0.071-0.038,0.106
			c-0.178,0.438-0.385,0.861-0.68,1.235c-0.029,0.037-0.082,0.083-0.052,0.124c0.038,0.05,0.102,0.015,0.147-0.01
			c0.141-0.076,0.284-0.151,0.42-0.237s0.264-0.186,0.401-0.284c0.068,0.797,0.127,1.579,0.335,2.339
			c0.18,0.657,0.434,1.29,0.649,1.934c0.078,0.237,0.143,0.471,0.022,0.714l0.002,0.002c0.129-0.016,0.227-0.094,0.318-0.172
			c0.079-0.066,0.118-0.07,0.185,0.021c0.357,0.493,0.781,0.925,1.265,1.299c0.07,0.054,0.12,0.12,0.16,0.195
			c0.289,0.538,0.629,1.038,1.062,1.469c0.081,0.082,0.14,0.17,0.185,0.277c0.17,0.407,0.455,0.708,0.85,0.909
			c0.382,0.192,0.792,0.262,1.213,0.289c0.547,0.034,1.095-0.005,1.642-0.007c0.554-0.003,1.021-0.198,1.362-0.64
			c0.268-0.347,0.572-0.649,0.932-0.903c0.367-0.261,0.672-0.593,0.967-0.946c0.121,0.203,0.218,0.405,0.41,0.585
			c-0.02-0.211-0.033-0.387,0.013-0.559c0.158-0.574,0.493-1.059,0.888-1.475c0.839-0.886,1.595-1.826,2.157-2.913
			c0.018-0.035,0.024-0.083,0.075-0.098c0.166,0.22,0.31,0.462,0.544,0.629c-0.075-0.234-0.144-0.465-0.159-0.706
			c-0.024-0.369-0.06-0.738,0.08-1.097c0.037-0.098,0.066-0.109,0.139-0.034c0.091,0.095,0.208,0.15,0.337,0.177
			c0.061,0.013,0.139,0.051,0.174-0.02c0.029-0.062-0.052-0.093-0.09-0.135c-0.237-0.265-0.363-0.575-0.297-0.926
			c0.12-0.651,0.209-1.303,0.184-1.966c-0.003-0.084,0.025-0.108,0.106-0.119c0.698-0.09,1.267-0.424,1.708-0.964
			C215.751,16.005,215.904,14.968,215.673,13.875z M197.863,16.017c-0.01,0.064-0.066,0.029-0.105,0.017
			c-0.226-0.072-0.409-0.21-0.582-0.366c-0.07-0.063-0.14-0.127-0.231-0.209c-0.013,0.188,0.065,0.317,0.117,0.453
			c0.018,0.045,0.04,0.088,0.057,0.133c0.012,0.03,0.02,0.065-0.007,0.09c-0.029,0.027-0.061,0.007-0.091-0.003
			c-0.179-0.065-0.327-0.181-0.481-0.288c-0.09-0.062-0.172-0.14-0.316-0.178c0.12,0.274,0.276,0.477,0.491,0.635
			c0.246,0.182,0.528,0.284,0.825,0.343c0.13,0.025,0.163,0.082,0.129,0.209c-0.038,0.139-0.06,0.284-0.077,0.426
			c-0.011,0.093-0.05,0.111-0.137,0.105c-0.458-0.036-0.862-0.206-1.224-0.483c-1.484-1.137-1.421-3.635,0.12-4.687
			c0.191-0.13,0.396-0.236,0.637-0.303c0.019,0.199,0.028,0.381,0.055,0.561c0.013,0.083-0.035,0.116-0.083,0.157
			c-0.266,0.229-0.511,0.476-0.702,0.771c-0.09,0.139-0.164,0.285-0.173,0.485c0.108-0.075,0.166-0.165,0.235-0.243
			c0.206-0.233,0.403-0.476,0.714-0.583c0.081-0.028,0.107-0.023,0.13,0.064c0.199,0.753,0.47,1.482,0.766,2.202
			C198.026,15.565,197.897,15.788,197.863,16.017z M208.983,9.127c0.133-0.082,0.271-0.151,0.414-0.212
			c0.064-0.027,0.111-0.032,0.112,0.063c0.002,0.096,0.014,0.192,0.018,0.246c-0.005,0.219-0.009,0.396-0.08,0.562
			c-0.045,0.107-0.116,0.183-0.24,0.179c-0.116-0.004-0.179-0.084-0.219-0.185c-0.072-0.178-0.07-0.366-0.07-0.554
			C208.917,9.175,208.945,9.151,208.983,9.127z M203.637,8.172c0.05-0.066,0.152,0.031,0.221,0.076
			c0.524,0.346,0.965,0.783,1.347,1.281c0.033,0.042,0.066,0.083,0.101,0.125c0.01-0.008,0.02-0.017,0.029-0.024
			c-0.079-0.38-0.22-0.747-0.261-1.139c0.228,0.383,0.335,0.812,0.48,1.226c0.055,0,0.048-0.047,0.059-0.08
			c0.126-0.376,0.245-0.755,0.418-1.113c0.056-0.115,0.122-0.226,0.19-0.335c0.036-0.057,0.078-0.149,0.147-0.125
			c0.077,0.027,0.037,0.123,0.025,0.188c-0.04,0.2-0.084,0.399-0.132,0.597c-0.067,0.28-0.141,0.559-0.224,0.886
			c0.615-0.577,1.204-1.111,1.979-1.417c-0.003,0.076-0.049,0.099-0.084,0.121c-0.614,0.381-1.063,0.931-1.508,1.482
			c-0.071,0.087-0.142,0.176-0.218,0.259c-0.277,0.301-0.667,0.321-0.977,0.054c-0.106-0.092-0.201-0.199-0.257-0.327
			c-0.266-0.619-0.733-1.077-1.209-1.529C203.702,8.318,203.578,8.252,203.637,8.172z M208.67,17.166
			c-0.019,0.072-0.04,0.104-0.119,0.058c-0.134-0.078-0.261-0.166-0.381-0.266c-0.028-0.025-0.057-0.049-0.058-0.092
			c-0.001-0.225-0.017-0.451,0.07-0.666c0.044-0.106,0.112-0.184,0.239-0.181c0.119,0.003,0.182,0.082,0.223,0.181
			c0.069,0.167,0.074,0.344,0.074,0.521C208.719,16.871,208.709,17.019,208.67,17.166z M206.569,17.708
			c-0.013,0.079-0.047,0.153-0.071,0.23c-0.041,0.134-0.098,0.106-0.169,0.021c-0.13-0.155-0.148-0.313-0.051-0.49
			c0.062-0.114,0.14-0.216,0.234-0.304c0.231-0.213,0.537-0.176,0.702,0.09c0.052,0.084,0.098,0.171,0.039,0.271
			c-0.057,0.099-0.157,0.1-0.25,0.112c-0.093-0.014-0.184-0.029-0.273-0.041C206.644,17.585,206.587,17.609,206.569,17.708z
			 M203.493,27.297c0.198-0.542,0.606-0.766,1.212-0.659c0.173,0.031,0.33,0.028,0.48-0.062c0.105-0.062,0.107,0.006,0.096,0.079
			c-0.021,0.133-0.062,0.261-0.131,0.379c-0.109,0.185-0.184,0.211-0.396,0.166c-0.252-0.056-0.502,0.001-0.752,0.024
			C203.837,27.238,203.674,27.269,203.493,27.297z M202.363,24.708c0.128-0.466,0.472-0.679,0.925-0.755
			c1.008-0.168,1.642,0.537,1.892,1.25c-0.486-0.113-0.966-0.146-1.45-0.053c-0.489,0.095-0.923,0.303-1.316,0.649
			C202.302,25.418,202.265,25.063,202.363,24.708z M200.05,16.74c0.011-0.216,0.013-0.377,0.075-0.53
			c0.042-0.105,0.103-0.188,0.229-0.192c0.128-0.003,0.199,0.076,0.235,0.183c0.111,0.329,0.102,0.662,0.017,0.995
			c-0.019,0.074-0.061,0.092-0.128,0.052c-0.036-0.021-0.075-0.041-0.115-0.055C200.116,17.11,199.994,16.953,200.05,16.74z
			 M203.523,22.701c0.459-0.268,0.647-0.675,0.63-1.195c-0.008-0.25-0.001-0.499-0.001-0.78c0.062,0.054,0.099,0.084,0.135,0.116
			c0.052,0.044,0.1,0.056,0.149-0.006c0.038-0.047,0.093-0.076,0.152-0.083c0.044-0.005,0.095-0.007,0.064,0.066
			c-0.16,0.39-0.188,0.812-0.302,1.213c-0.057,0.207-0.099,0.416-0.135,0.627c-0.033,0.197-0.097,0.249-0.296,0.273
			c-0.236,0.028-0.469,0.005-0.737-0.036C203.318,22.818,203.42,22.76,203.523,22.701z M203.129,17.262
			c0.171-0.274,0.475-0.313,0.711-0.092c0.079,0.074,0.146,0.158,0.202,0.25c0.156,0.252,0.118,0.44-0.133,0.624
			c-0.059-0.09-0.102-0.189-0.117-0.294c-0.021-0.141-0.099-0.175-0.228-0.147c-0.077,0.018-0.158,0.034-0.238,0.032
			C203.093,17.631,203.004,17.461,203.129,17.262z M205.127,18.888c-0.066,0.18-0.132,0.362-0.201,0.541
			c-0.014,0.038-0.041,0.071-0.061,0.105c-0.062-0.022-0.062-0.067-0.065-0.108c-0.02-0.218-0.041-0.436-0.055-0.655
			c-0.008-0.143-0.064-0.241-0.195-0.305c-0.059-0.029-0.136-0.064-0.133-0.146c0.005-0.085,0.09-0.104,0.153-0.122
			c0.167-0.047,0.271-0.165,0.357-0.304c0.045-0.072,0.086-0.148,0.129-0.222c0.051-0.083,0.095-0.097,0.142,0.006
			c0.129,0.288,0.287,0.551,0.582,0.704c0.022,0.011,0.048,0.029,0.043,0.06c-0.005,0.034-0.036,0.033-0.062,0.037
			c-0.048,0.008-0.096,0.023-0.143,0.023C205.351,18.499,205.213,18.66,205.127,18.888z M199.472,9.187
			c0.109-0.085,0.226-0.16,0.367-0.228c0.042,0.286,0.039,0.555-0.054,0.818c-0.037,0.105-0.109,0.188-0.234,0.188
			c-0.126-0.001-0.189-0.084-0.232-0.191c-0.005-0.015-0.011-0.03-0.016-0.045C199.208,9.435,199.227,9.376,199.472,9.187z
			 M198.203,11.594c0.085,0.158,0.052,0.509-0.077,0.762C198.126,12.076,198.159,11.846,198.203,11.594z M199.674,16.702
			c-0.262-0.241-0.463-0.497-0.637-0.772c-0.195-0.311-0.365-0.635-0.494-0.98c-0.03-0.08-0.031-0.146-0.001-0.229
			c0.12-0.324,0.119-0.653,0.001-0.978c-0.058-0.16-0.162-0.291-0.317-0.371c-0.048-0.025-0.072-0.054-0.074-0.109
			c-0.008-0.177-0.019-0.354-0.032-0.53c-0.004-0.058,0.022-0.083,0.073-0.106c0.201-0.088,0.324-0.255,0.375-0.458
			c0.103-0.403,0.109-0.799-0.17-1.147c-0.028-0.035-0.048-0.065-0.031-0.116c0.135-0.408,0.307-0.798,0.573-1.161
			c0.026,0.046,0.045,0.081,0.065,0.114c0.131,0.22,0.314,0.348,0.58,0.333c0.264-0.016,0.438-0.16,0.547-0.389
			c0.131-0.274,0.131-0.564,0.075-0.852c-0.023-0.116,0.01-0.134,0.107-0.151c0.204-0.034,0.406-0.033,0.609-0.013
			c0.093,0.009,0.139,0.039,0.135,0.148c-0.009,0.289-0.008,0.58,0,0.87c0.002,0.108-0.031,0.146-0.136,0.131
			c-0.042-0.006-0.086,0.003-0.128-0.002c-0.085-0.011-0.097,0.032-0.096,0.104c0.001,0.074,0.007,0.119,0.102,0.117
			c0.291-0.006,0.581-0.006,0.871,0c0.098,0.002,0.099-0.047,0.1-0.118c0.002-0.072-0.011-0.103-0.095-0.105
			c-0.262-0.007-0.262-0.012-0.262-0.269c0-0.236,0-0.473,0-0.722c0.395,0.123,0.976,0.591,1.231,0.995
			c-0.078,0-0.145,0.003-0.211-0.001c-0.08-0.005-0.128,0.002-0.127,0.106c0.003,0.097,0.039,0.132,0.123,0.111
			c0.341-0.08,0.494,0.114,0.632,0.385c0.787,1.536,0.966,3.128,0.487,4.791c-0.038,0.129-0.096,0.199-0.235,0.239
			c-0.422,0.118-0.722,0.407-0.973,0.754c-0.034,0.046-0.065,0.095-0.122,0.178c0-0.229-0.003-0.419,0.002-0.608
			c0.002-0.083-0.023-0.1-0.103-0.079c-0.171,0.047-0.342,0.093-0.516,0.125c-0.131,0.025-0.109,0.121-0.093,0.196
			c0.022,0.097,0.094,0.009,0.142,0.017c0.024,0.003,0.052-0.012,0.077-0.021c0.102-0.039,0.137-0.01,0.134,0.104
			c-0.007,0.328-0.006,0.656-0.001,0.983c0.001,0.085-0.024,0.124-0.109,0.142c-0.285,0.062-0.57,0.092-0.87,0.018
			c0.183-0.336,0.202-0.689,0.11-1.045c-0.097-0.378-0.378-0.577-0.731-0.53c-0.28,0.037-0.427,0.228-0.521,0.47
			C199.694,16.398,199.671,16.535,199.674,16.702z M212.63,13.236c-0.002,0.08-0.054,0.095-0.113,0.11
			c-0.145,0.035-0.29,0.078-0.438,0.104c-0.115,0.021-0.116,0.096-0.104,0.178c0.02,0.12,0.104,0.042,0.149,0.034
			c0.204-0.042,0.203-0.046,0.203,0.159c0,0.242-0.002,0.483,0.001,0.725c0.002,0.093-0.023,0.179-0.05,0.267
			c-0.023,0.076-0.065,0.097-0.142,0.096c-0.068,0-0.159-0.042-0.169,0.099c-0.009,0.15,0.092,0.109,0.18,0.124
			c-0.085,0.221-0.19,0.412-0.295,0.605c-0.032,0.059-0.079,0.081-0.14,0.095c-0.146,0.034-0.29,0.079-0.438,0.104
			c-0.125,0.022-0.125,0.105-0.104,0.189c0.023,0.095,0.095,0.023,0.143,0.024c0.068,0.001,0.152-0.083,0.198-0.007
			c0.047,0.078-0.034,0.147-0.084,0.21c-0.271,0.331-0.582,0.616-0.958,0.826c-0.055,0.031-0.112,0.057-0.2,0.101
			c0-0.103,0-0.179,0-0.256c0-0.365-0.004-0.73,0.001-1.095c0.002-0.104-0.014-0.147-0.132-0.108
			c-0.131,0.044-0.267,0.083-0.404,0.101c-0.168,0.021-0.206,0.102-0.157,0.251c0.015-0.001,0.03-0.001,0.045-0.004
			c0.286-0.057,0.286-0.057,0.287,0.23c0,0.289,0.001,0.58-0.001,0.87c0,0.042,0.024,0.117-0.047,0.117
			c-0.28,0.006-0.557,0.134-0.841,0.022c-0.024-0.01-0.05-0.018-0.085-0.031c0.19-0.361,0.216-0.737,0.086-1.116
			c-0.12-0.353-0.413-0.524-0.749-0.455c-0.239,0.049-0.368,0.223-0.478,0.446c-0.132-0.191-0.269-0.357-0.447-0.486
			c-0.038-0.027-0.053-0.09-0.071-0.14c-0.476-1.287-0.445-2.585-0.072-3.888c0.05-0.175,0.116-0.345,0.177-0.517
			c0.015-0.04,0.032-0.09,0.085-0.082c0.065,0.011,0.032,0.071,0.032,0.106c0.003,0.322,0.002,0.645,0.002,0.966
			c0,0.212,0,0.214-0.211,0.213c-0.088-0.001-0.16-0.004-0.146,0.121c0.007,0.07,0.027,0.092,0.096,0.091
			c0.29-0.002,0.58-0.003,0.87,0c0.08,0.001,0.101-0.031,0.099-0.104c-0.002-0.068-0.011-0.105-0.094-0.11
			c-0.263-0.015-0.262-0.02-0.262-0.289c0-0.381-0.006-0.763,0.002-1.144c0.004-0.139-0.026-0.191-0.168-0.129
			c-0.042,0.018-0.091,0.02-0.159,0.034c0.11-0.258,0.246-0.479,0.389-0.697c0.043-0.064,0.106-0.036,0.161-0.044
			c0.043-0.007,0.11,0.027,0.122-0.04c0.01-0.056,0.042-0.133-0.025-0.172c-0.036-0.021-0.054-0.025-0.022-0.061
			c0.119-0.136,0.228-0.281,0.384-0.397c0.044,0.148,0.075,0.29,0.155,0.412c0.259,0.396,0.788,0.405,1.046,0.009
			c0.194-0.297,0.202-0.63,0.129-0.962c-0.031-0.138,0.008-0.166,0.13-0.168c0.199-0.003,0.396,0.01,0.591,0.053
			c0.108,0.025,0.134,0.075,0.131,0.176c-0.007,0.252-0.011,0.505,0.001,0.757c0.007,0.139-0.026,0.2-0.173,0.175
			c-0.051-0.008-0.116-0.012-0.156,0.013c-0.046,0.03-0.019,0.099-0.018,0.149c0.001,0.065,0.055,0.053,0.096,0.053
			c0.284,0.001,0.569-0.002,0.854,0.002c0.084,0.001,0.112-0.024,0.111-0.11c0-0.08-0.017-0.111-0.105-0.112
			c-0.251-0.006-0.251-0.01-0.251-0.266c0-0.203,0-0.406,0-0.63c0.295,0.162,0.532,0.366,0.702,0.625
			c0.219,0.333,0.45,0.662,0.576,1.052c0.052,0.161,0.021,0.206-0.13,0.221c-0.058,0.006-0.114,0.029-0.172,0.041
			c-0.113,0.023-0.086,0.113-0.075,0.179c0.016,0.089,0.087,0.036,0.129,0.027c0.222-0.046,0.221-0.048,0.221,0.18
			c0,0.28,0,0.559,0,0.838c0,0.22,0,0.221-0.219,0.224c-0.069,0-0.142-0.015-0.138,0.099c0.002,0.08,0.02,0.116,0.108,0.113
			c0.149-0.006,0.301,0.003,0.45-0.003c0.094-0.004,0.142,0.016,0.13,0.122C212.645,12.915,212.634,13.075,212.63,13.236z
			 M214.354,16.93c-0.312,0.242-0.67,0.38-1.058,0.444c-0.097,0.016-0.146-0.003-0.152-0.118c-0.01-0.139-0.03-0.281-0.074-0.411
			c-0.053-0.156,0.007-0.203,0.147-0.236c0.45-0.106,0.826-0.327,1.076-0.729c0.036-0.057,0.086-0.111,0.075-0.212
			c-0.187,0.084-0.322,0.217-0.482,0.314c-0.087,0.052-0.178,0.099-0.269,0.144c-0.031,0.016-0.07,0.042-0.104,0.007
			c-0.03-0.031-0.014-0.071-0.001-0.106c0.066-0.173,0.164-0.336,0.179-0.536c-0.076-0.004-0.106,0.052-0.146,0.088
			c-0.17,0.158-0.344,0.31-0.558,0.406c-0.051,0.023-0.115,0.088-0.172,0.014c-0.046-0.06-0.065-0.125-0.035-0.209
			c0.109-0.303,0.204-0.611,0.313-0.914c0.197-0.547,0.319-1.111,0.404-1.686c0.02-0.133,0.062-0.147,0.174-0.098
			c0.253,0.115,0.429,0.318,0.605,0.519c0.076,0.086,0.15,0.174,0.25,0.29c0.013-0.199-0.056-0.326-0.13-0.449
			c-0.186-0.306-0.43-0.562-0.701-0.792c-0.078-0.066-0.107-0.135-0.087-0.237c0.024-0.121,0.041-0.244,0.044-0.366
			c0.002-0.128,0.047-0.138,0.153-0.094c0.636,0.265,1.083,0.723,1.376,1.336C215.785,14.562,215.437,16.092,214.354,16.93z"/>
		<path fill-rule="evenodd" clip-rule="evenodd" fill="#FFFFFF" d="M200.05,16.74c0.011-0.216,0.013-0.377,0.075-0.53
			c0.042-0.105,0.103-0.188,0.229-0.192c0.128-0.003,0.199,0.076,0.235,0.183c0.111,0.329,0.102,0.662,0.017,0.995
			c-0.019,0.074-0.061,0.092-0.128,0.052c-0.036-0.021-0.075-0.041-0.115-0.055C200.116,17.11,199.994,16.953,200.05,16.74z"/>
		<path fill-rule="evenodd" clip-rule="evenodd" fill="#FFFFFF" d="M208.719,16.721c0,0.15-0.01,0.298-0.049,0.445
			c-0.019,0.072-0.04,0.104-0.119,0.058c-0.134-0.078-0.261-0.166-0.381-0.266c-0.028-0.025-0.057-0.049-0.058-0.092
			c-0.001-0.225-0.017-0.451,0.07-0.666c0.044-0.106,0.112-0.184,0.239-0.181c0.119,0.003,0.182,0.082,0.223,0.181
			C208.714,16.366,208.719,16.543,208.719,16.721z"/>
		<path fill-rule="evenodd" clip-rule="evenodd" fill="#FFFFFF" d="M209.527,9.224c-0.005,0.219-0.009,0.396-0.08,0.562
			c-0.045,0.107-0.116,0.183-0.24,0.179c-0.116-0.004-0.179-0.084-0.219-0.185c-0.072-0.178-0.07-0.366-0.07-0.554
			c0-0.051,0.027-0.075,0.065-0.099c0.133-0.082,0.271-0.151,0.414-0.212c0.064-0.027,0.111-0.032,0.112,0.063
			C209.511,9.074,209.523,9.169,209.527,9.224z"/>
		<path fill-rule="evenodd" clip-rule="evenodd" fill="#FFFFFF" d="M199.839,8.959c0.042,0.286,0.039,0.555-0.054,0.818
			c-0.037,0.105-0.109,0.188-0.234,0.188c-0.126-0.001-0.189-0.084-0.232-0.191c-0.005-0.015-0.011-0.03-0.016-0.045
			c-0.095-0.294-0.076-0.353,0.169-0.542C199.581,9.102,199.698,9.027,199.839,8.959z"/>
		<path fill-rule="evenodd" clip-rule="evenodd" fill="#FFFFFF" d="M198.126,12.355c0-0.279,0.033-0.51,0.077-0.762
			C198.288,11.752,198.255,12.103,198.126,12.355z"/>
		<path fill-rule="evenodd" clip-rule="evenodd" fill="#FFFFFF" d="M211.519,11.764c-0.007,0.224-0.041,0.455-0.188,0.656
			c-0.255,0.349-0.746,0.349-1.002-0.001c-0.246-0.338-0.251-0.985-0.011-1.328c0.256-0.367,0.767-0.366,1.022,0
			C211.48,11.288,211.514,11.515,211.519,11.764z M210.53,11.742c-0.002,0.178,0,0.355,0.07,0.523c0.041,0.099,0.1,0.18,0.22,0.183
			c0.128,0.002,0.201-0.073,0.237-0.182c0.114-0.341,0.109-0.685,0.007-1.027c-0.034-0.11-0.108-0.192-0.231-0.192
			c-0.122,0-0.191,0.081-0.234,0.189C210.532,11.399,210.529,11.57,210.53,11.742z"/>
		<path fill-rule="evenodd" clip-rule="evenodd" fill="#FFFFFF" d="M211.519,14.229c-0.007,0.21-0.031,0.416-0.141,0.603
			c-0.259,0.443-0.831,0.458-1.083,0.011c-0.226-0.4-0.226-0.827,0.003-1.226c0.249-0.436,0.822-0.421,1.077,0.01
			C211.468,13.786,211.518,13.993,211.519,14.229z M211.136,14.303c0.001-0.221-0.006-0.382-0.056-0.537
			c-0.039-0.122-0.098-0.232-0.251-0.231c-0.153,0.001-0.218,0.113-0.249,0.235c-0.078,0.307-0.078,0.617-0.001,0.924
			c0.03,0.121,0.091,0.237,0.244,0.239c0.159,0,0.219-0.117,0.259-0.244C211.129,14.544,211.134,14.394,211.136,14.303z"/>
		<path fill-rule="evenodd" clip-rule="evenodd" fill="#FFFFFF" d="M209.906,11.753c-0.005,0.234-0.04,0.459-0.181,0.657
			c-0.256,0.361-0.75,0.363-1.01,0.005c-0.246-0.34-0.248-0.984-0.006-1.328c0.255-0.36,0.753-0.362,1.014-0.006
			C209.844,11.247,209.91,11.487,209.906,11.753z M208.918,11.755c-0.001,0.167,0.001,0.334,0.062,0.492
			c0.044,0.11,0.104,0.203,0.241,0.201c0.128-0.002,0.197-0.087,0.23-0.193c0.104-0.337,0.104-0.676,0.001-1.013
			c-0.033-0.111-0.105-0.193-0.229-0.195c-0.132-0.002-0.2,0.087-0.243,0.201C208.92,11.412,208.917,11.583,208.918,11.755z"/>
		<path fill-rule="evenodd" clip-rule="evenodd" fill="#FFFFFF" d="M209.466,14.119c0,0.182,0,0.364,0,0.547
			c0,0.233,0,0.238,0.232,0.236c0.101,0,0.13,0.032,0.124,0.129c-0.003,0.066-0.018,0.095-0.09,0.094
			c-0.295-0.003-0.59-0.004-0.885,0.001c-0.088,0.001-0.093-0.042-0.09-0.108c0.002-0.062-0.003-0.109,0.087-0.116
			c0.259-0.018,0.259-0.023,0.259-0.292c-0.001-0.257-0.001-0.515-0.001-0.771c0-0.22-0.001-0.226-0.209-0.168
			c-0.122,0.034-0.146-0.004-0.138-0.117c0.005-0.062,0.03-0.084,0.082-0.097c0.178-0.043,0.354-0.087,0.53-0.133
			c0.083-0.022,0.1,0.013,0.099,0.088C209.465,13.647,209.466,13.883,209.466,14.119z"/>
		<path fill-rule="evenodd" clip-rule="evenodd" fill="#FFFFFF" d="M207.855,14.122c0,0.193,0.012,0.387-0.004,0.579
			c-0.013,0.166,0.037,0.234,0.206,0.206c0.095-0.016,0.169-0.005,0.155,0.127c-0.007,0.07-0.024,0.093-0.094,0.092
			c-0.295-0.002-0.59-0.004-0.885,0.001c-0.092,0.001-0.088-0.048-0.088-0.111c0-0.064,0.002-0.107,0.091-0.113
			c0.266-0.017,0.266-0.021,0.266-0.285c0-0.295-0.004-0.589,0.001-0.885c0.002-0.092-0.018-0.13-0.113-0.092
			c-0.034,0.013-0.073,0.028-0.108,0.026c-0.044-0.001-0.113,0.07-0.128-0.017c-0.013-0.067-0.05-0.165,0.074-0.192
			c0.178-0.041,0.354-0.084,0.53-0.131c0.087-0.023,0.099,0.016,0.098,0.089C207.853,13.649,207.855,13.885,207.855,14.122z"/>
		<path fill-rule="evenodd" clip-rule="evenodd" fill="#FFFFFF" d="M201.85,14.235c0,0.211-0.029,0.417-0.141,0.603
			c-0.257,0.435-0.832,0.449-1.077,0.009c-0.229-0.407-0.229-0.839,0.01-1.243c0.247-0.42,0.808-0.405,1.061,0.013
			C201.818,13.807,201.853,14.017,201.85,14.235z M201.478,14.233c-0.011-0.167-0.013-0.339-0.074-0.501
			c-0.042-0.111-0.109-0.202-0.245-0.198c-0.126,0.003-0.195,0.088-0.228,0.196c-0.102,0.337-0.102,0.677,0.002,1.014
			c0.033,0.11,0.103,0.191,0.23,0.19c0.125,0,0.192-0.083,0.234-0.188C201.464,14.583,201.465,14.41,201.478,14.233z"/>
		<path fill-rule="evenodd" clip-rule="evenodd" fill="#FFFFFF" d="M202.088,14.234c0-0.206,0.029-0.407,0.134-0.589
			c0.12-0.21,0.294-0.338,0.545-0.34c0.256-0.002,0.447,0.116,0.559,0.34c0.196,0.395,0.202,0.802-0.007,1.189
			c-0.24,0.445-0.811,0.447-1.078,0.017C202.141,14.692,202.088,14.476,202.088,14.234z M202.471,14.227
			c0.004,0.177,0.005,0.354,0.073,0.522c0.04,0.1,0.1,0.181,0.219,0.185c0.127,0.005,0.205-0.07,0.24-0.179
			c0.114-0.346,0.114-0.696,0-1.043c-0.034-0.105-0.108-0.176-0.224-0.179c-0.125-0.001-0.192,0.081-0.236,0.186
			C202.477,13.882,202.475,14.054,202.471,14.227z"/>
		<path fill-rule="evenodd" clip-rule="evenodd" fill="#FFFFFF" d="M200.481,11.795c-0.005-0.306,0.045-0.543,0.207-0.748
			c0.238-0.302,0.69-0.308,0.941-0.015c0.305,0.356,0.301,1.089-0.007,1.443c-0.243,0.278-0.684,0.273-0.922-0.01
			C200.55,12.286,200.481,12.059,200.481,11.795z M200.86,11.751c0.005,0.166,0.003,0.343,0.072,0.51
			c0.042,0.104,0.104,0.189,0.232,0.187c0.127-0.002,0.198-0.083,0.232-0.189c0.108-0.34,0.108-0.683,0.001-1.024
			c-0.035-0.11-0.11-0.188-0.233-0.188c-0.123,0-0.19,0.083-0.232,0.189C200.866,11.399,200.865,11.57,200.86,11.751z"/>
		<path fill-rule="evenodd" clip-rule="evenodd" fill="#FFFFFF" d="M202.667,11.126c-0.083,0.021-0.153,0.044-0.226,0.054
			c-0.042,0.006-0.112,0.068-0.125-0.024c-0.01-0.07-0.04-0.162,0.084-0.188c0.173-0.036,0.345-0.08,0.515-0.128
			c0.097-0.028,0.114,0.004,0.113,0.097c-0.004,0.434,0.007,0.868-0.006,1.302c-0.005,0.161,0.043,0.208,0.194,0.186
			c0.089-0.013,0.188-0.024,0.167,0.127c-0.009,0.061-0.023,0.083-0.085,0.083c-0.301-0.002-0.601-0.004-0.9,0
			c-0.095,0.002-0.085-0.054-0.087-0.115c-0.002-0.063,0.011-0.094,0.087-0.1c0.269-0.021,0.269-0.026,0.269-0.299
			C202.667,11.796,202.667,11.469,202.667,11.126z"/>
		<path fill-rule="evenodd" clip-rule="evenodd" fill="#FFFFFF" d="M199.804,11.62c0,0.209,0.011,0.419-0.004,0.627
			c-0.011,0.152,0.044,0.192,0.186,0.178c0.08-0.008,0.192-0.042,0.176,0.119c-0.007,0.068-0.024,0.093-0.094,0.092
			c-0.294-0.003-0.59-0.004-0.884,0c-0.085,0.002-0.096-0.037-0.096-0.106c0-0.069,0.011-0.104,0.094-0.109
			c0.263-0.014,0.262-0.018,0.262-0.29c0-0.294-0.002-0.589,0.003-0.884c0-0.091-0.016-0.132-0.113-0.092
			c-0.035,0.014-0.073,0.029-0.108,0.026c-0.045-0.003-0.121,0.083-0.133-0.032c-0.008-0.075-0.028-0.16,0.094-0.183
			c0.173-0.034,0.344-0.081,0.514-0.128c0.09-0.024,0.108,0.005,0.106,0.09C199.8,11.159,199.804,11.39,199.804,11.62z"/>
		<path fill-rule="evenodd" clip-rule="evenodd" fill="#FFFFFF" d="M199.804,14.112c0,0.226,0.004,0.451-0.002,0.676
			c-0.002,0.087,0.018,0.131,0.113,0.118c0.047-0.006,0.098,0.004,0.145-0.002c0.098-0.012,0.1,0.044,0.101,0.118
			c0.001,0.07-0.009,0.105-0.095,0.104c-0.295-0.006-0.59-0.006-0.885,0c-0.088,0.001-0.095-0.04-0.092-0.107
			c0.002-0.061-0.005-0.109,0.087-0.116c0.269-0.02,0.269-0.024,0.269-0.3c0-0.29-0.003-0.58,0.002-0.87
			c0-0.088-0.013-0.134-0.112-0.094c-0.035,0.014-0.074,0.029-0.108,0.026c-0.045-0.005-0.122,0.085-0.134-0.031
			c-0.008-0.076-0.024-0.159,0.095-0.182c0.168-0.032,0.335-0.076,0.5-0.123c0.09-0.026,0.122-0.011,0.119,0.09
			C199.799,13.65,199.804,13.88,199.804,14.112z"/>
		<path fill-rule="evenodd" clip-rule="evenodd" fill="#FFFFFF" d="M205.334,9.629c0.014,0.023,0.023,0.046,0.003,0.071
			c-0.011-0.016-0.021-0.031-0.032-0.047C205.315,9.645,205.324,9.637,205.334,9.629z"/>
		<path fill-rule="evenodd" clip-rule="evenodd" fill="#FFFFFF" d="M210.53,11.742c-0.001-0.172,0.003-0.343,0.068-0.506
			c0.043-0.108,0.112-0.189,0.234-0.189c0.123,0,0.197,0.082,0.231,0.192c0.103,0.342,0.107,0.687-0.007,1.027
			c-0.036,0.109-0.109,0.185-0.237,0.182c-0.12-0.002-0.179-0.083-0.22-0.183C210.53,12.097,210.528,11.92,210.53,11.742z"/>
		<path fill-rule="evenodd" clip-rule="evenodd" fill="#FFFFFF" d="M211.136,14.303c-0.002,0.091-0.007,0.241-0.054,0.386
			c-0.04,0.127-0.1,0.244-0.259,0.244c-0.153-0.002-0.214-0.118-0.244-0.239c-0.077-0.307-0.077-0.617,0.001-0.924
			c0.031-0.123,0.096-0.234,0.249-0.235c0.153-0.001,0.212,0.109,0.251,0.231C211.13,13.921,211.137,14.082,211.136,14.303z"/>
		<path fill-rule="evenodd" clip-rule="evenodd" fill="#FFFFFF" d="M208.918,11.755c-0.001-0.172,0.002-0.343,0.063-0.507
			c0.043-0.114,0.111-0.204,0.243-0.201c0.123,0.002,0.195,0.084,0.229,0.195c0.104,0.337,0.104,0.676-0.001,1.013
			c-0.033,0.106-0.103,0.19-0.23,0.193c-0.137,0.002-0.197-0.09-0.241-0.201C208.919,12.089,208.917,11.922,208.918,11.755z"/>
		<path fill-rule="evenodd" clip-rule="evenodd" fill="#FFFFFF" d="M201.478,14.233c-0.013,0.177-0.014,0.35-0.08,0.512
			c-0.042,0.106-0.109,0.188-0.234,0.188c-0.128,0.001-0.197-0.08-0.23-0.19c-0.104-0.337-0.104-0.677-0.002-1.014
			c0.032-0.107,0.102-0.192,0.228-0.196c0.136-0.004,0.203,0.087,0.245,0.198C201.465,13.894,201.467,14.066,201.478,14.233z"/>
		<path fill-rule="evenodd" clip-rule="evenodd" fill="#FFFFFF" d="M202.471,14.226c0.004-0.171,0.006-0.343,0.072-0.507
			c0.044-0.105,0.111-0.188,0.236-0.186c0.115,0.002,0.189,0.074,0.224,0.179c0.114,0.347,0.114,0.697,0,1.043
			c-0.035,0.108-0.113,0.184-0.24,0.179c-0.119-0.004-0.179-0.084-0.219-0.185C202.476,14.581,202.475,14.404,202.471,14.226z"/>
		<path fill-rule="evenodd" clip-rule="evenodd" fill="#FFFFFF" d="M200.86,11.751c0.005-0.181,0.007-0.353,0.072-0.516
			c0.042-0.106,0.109-0.189,0.232-0.189c0.123,0,0.198,0.078,0.233,0.188c0.107,0.341,0.107,0.684-0.001,1.024
			c-0.034,0.106-0.105,0.187-0.232,0.189c-0.129,0.002-0.19-0.083-0.232-0.187C200.863,12.095,200.865,11.917,200.86,11.751z"/>
	</g>
</g>
<g>
	<circle fill="none" stroke="#E95B2E" stroke-miterlimit="10" cx="17.808" cy="55.932" r="16.666"/>
	<circle fill="none" stroke="#E95B2E" stroke-miterlimit="10" cx="55.308" cy="55.932" r="16.666"/>
	<circle fill="none" stroke="#E95B2E" stroke-miterlimit="10" cx="92.809" cy="55.932" r="16.666"/>
	<circle fill="none" stroke="#E95B2E" stroke-miterlimit="10" cx="130.309" cy="55.932" r="16.666"/>
	<circle fill="none" stroke="#E95B2E" stroke-miterlimit="10" cx="167.809" cy="55.932" r="16.666"/>
	<circle fill="none" stroke="#E95B2E" stroke-miterlimit="10" cx="205.309" cy="55.932" r="16.666"/>
	<path id="Facebook_1_" fill="#E95B2E" d="M15.627,50.891c0,0.414,0,2.269,0,2.269h-1.66v2.771h1.66v8.234h3.411V55.93h2.288
		c0,0,0.215-1.328,0.316-2.781c-0.298,0-2.594,0-2.594,0s0-1.61,0-1.896c0-0.282,0.372-0.664,0.738-0.664c0.365,0,1.143,0,1.857,0
		c0-0.377,0-1.684,0-2.885c-0.958,0-2.046,0-2.524,0C15.544,47.701,15.627,50.477,15.627,50.891z"/>
	<path id="Github__x28_alt_x29__1_" fill="#E95B2E" d="M97.568,47.998c0.271,0.609,0.445,1.625,0.188,2.368
		c1.062,0.909,1.429,3.116,0.915,4.921c1.516,0.115,3.321-0.057,4.484,0.41c-1.09-0.141-2.575-0.416-3.981-0.32
		c-0.266,0.02-0.659-0.01-0.641,0.365c1.627,0.127,3.241,0.267,4.577,0.684c-1.322-0.217-2.934-0.547-4.577-0.592
		c-0.683,1.342-2.052,2.001-3.938,2.141c0.203,0.441,0.592,0.609,0.688,1.32c0.143,1.062-0.224,2.617,0.137,3.325
		c0.172,0.339,0.452,0.349,0.642,0.638c-0.463,0.549-1.606-0.061-1.74-0.638c-0.223-0.987,0.343-2.519-0.271-3.188
		c0.043,1.077-0.255,2.59,0.046,3.553c0.117,0.382,0.46,0.525,0.365,0.865c-2.149,0.219-1.252-2.783-1.604-4.555
		c-0.323,0.023-0.182,0.486-0.182,0.684c-0.011,1.73,0.354,4.104-1.512,3.871c-0.057-0.363,0.251-0.483,0.363-0.815
		c0.343-0.978-0.062-2.427,0.096-3.603c-0.713,0.537,0.072,2.41-0.367,3.371c-0.254,0.553-1.072,0.793-1.693,0.547
		c0.082-0.412,0.506-0.346,0.688-0.729c0.253-0.534,0.002-1.305,0.092-2.096c-1.317,0.263-2.34-0.039-2.84-0.865
		c-0.226-0.372-0.279-0.811-0.55-1.139c-0.271-0.33-0.698-0.375-0.822-0.819c1.631-0.394,1.691,1.68,3.159,1.729
		c0.446,0.017,0.684-0.132,1.099-0.229c0.116-0.521,0.365-0.913,0.732-1.188c-1.823-0.25-3.329-0.816-4.029-2.187
		c-1.658,0.081-3.175,0.303-4.581,0.637c1.276-0.463,2.851-0.629,4.535-0.684c-0.103-0.599-0.974-0.435-1.514-0.41
		c-1.005,0.045-2.271,0.17-3.065,0.319c1.157-0.414,2.782-0.36,4.352-0.364c-0.479-1.504-0.312-3.894,0.73-4.783
		c-0.295-0.747-0.203-1.969,0.186-2.551c1.168,0.052,1.875,0.562,2.608,1.048c0.91-0.259,1.866-0.389,3.114-0.318
		c0.521,0.028,1.066,0.267,1.464,0.229c0.39-0.035,0.813-0.473,1.19-0.639C96.596,48.102,97.01,48.018,97.568,47.998z"/>
	<path id="Twitter__x28_alt_x29__1_" fill="#E95B2E" d="M64.215,55.053c1.295-0.107,2.172-0.695,2.51-1.492
		c-0.467,0.285-1.916,0.601-2.715,0.301c-0.039-0.188-0.084-0.364-0.127-0.525C63.274,51.1,61.188,49.293,59,49.512
		c0.176-0.07,0.354-0.139,0.533-0.195c0.24-0.088,1.652-0.315,1.432-0.814c-0.188-0.438-1.912,0.331-2.236,0.434
		c0.43-0.162,1.139-0.438,1.213-0.933c-0.656,0.09-1.303,0.399-1.801,0.853c0.18-0.191,0.316-0.431,0.346-0.685
		c-1.754,1.119-2.775,3.377-3.604,5.565c-0.65-0.631-1.229-1.127-1.744-1.401c-1.451-0.776-3.186-1.59-5.91-2.603
		c-0.082,0.899,0.447,2.101,1.973,2.896c-0.33-0.044-0.936,0.057-1.416,0.17c0.193,1.033,0.838,1.885,2.576,2.295
		c-0.795,0.055-1.207,0.232-1.576,0.623c0.359,0.719,1.244,1.562,2.834,1.391c-1.768,0.764-0.721,2.175,0.719,1.963
		c-2.453,2.533-6.322,2.349-8.543,0.229c5.801,7.902,18.406,4.676,20.285-2.938c1.406,0.013,2.232-0.486,2.748-1.039
		C66.014,55.454,64.838,55.312,64.215,55.053z"/>
	<path id="LinkedIn_1_" fill="#E95B2E" d="M138.766,57.76v6.254h-3.625V58.18c0-1.467-0.522-2.467-1.836-2.467
		c-1.002,0-1.6,0.674-1.861,1.326c-0.096,0.232-0.119,0.559-0.119,0.884v6.091h-3.629c0,0,0.052-9.883,0-10.906h3.629v1.545
		c-0.008,0.015-0.018,0.025-0.022,0.037h0.022v-0.037c0.48-0.738,1.343-1.801,3.27-1.801
		C136.979,52.852,138.766,54.41,138.766,57.76z M123.902,47.85c-1.239,0-2.053,0.814-2.053,1.885c0,1.049,0.787,1.888,2.004,1.888
		h0.023c1.266,0,2.051-0.839,2.051-1.888C125.904,48.664,125.145,47.85,123.902,47.85z M122.064,64.014h3.625V53.107h-3.625V64.014z
		"/>
	<g>
		<path fill="#E95B2E" d="M170.895,54.967h-6.172c-1.279,0-2.315,1.037-2.315,2.314v6.174h2.315h6.172h2.316v-6.174
			C173.211,56.004,172.174,54.967,170.895,54.967z"/>
		<circle fill="#E95B2E" cx="167.809" cy="51.108" r="2.7"/>
	</g>
	<g>
		<path fill-rule="evenodd" clip-rule="evenodd" fill="#E95B2E" d="M198.612,63.229c-0.005,0.007-0.01,0.014-0.015,0.021
			c-0.003-0.005-0.008-0.01-0.008-0.014c0.001-0.015,0.009-0.018,0.021-0.01L198.612,63.229z"/>
		<path fill-rule="evenodd" clip-rule="evenodd" fill="#E95B2E" d="M215.673,52.375c-0.227-1.072-0.847-1.85-1.905-2.227
			c-0.115-0.042-0.089-0.119-0.089-0.193c0.007-0.789-0.183-1.529-0.561-2.222c-0.439-0.802-1.04-1.415-1.948-1.667
			c-0.669-0.184-1.329-0.117-1.981,0.088c-0.062,0.02-0.113,0.044-0.18-0.004c-0.6-0.43-1.285-0.682-1.96-0.956
			c-0.179-0.073-0.405-0.097-0.418-0.366c-0.001-0.026-0.031-0.055-0.053-0.078c-0.161-0.189-0.367-0.311-0.601-0.388
			c-0.055-0.019-0.128-0.051-0.164-0.001c-0.036,0.049,0.034,0.093,0.064,0.134c0.2,0.278,0.158,0.492-0.141,0.667
			c-0.163,0.098-0.341,0.16-0.525,0.196c-0.83,0.161-1.629,0.421-2.413,0.731c-0.065,0.026-0.119,0.025-0.183-0.004
			c-0.829-0.376-1.694-0.451-2.583-0.293c-1.074,0.191-1.933,0.711-2.464,1.699c-0.411,0.764-0.571,1.588-0.581,2.447
			c-0.002,0.119-0.025,0.175-0.15,0.215c-0.442,0.141-0.825,0.389-1.132,0.738c-0.896,1.02-1.043,2.208-0.667,3.453
			c0.338,1.115,1.097,1.835,2.29,2.019c0.106,0.017,0.096,0.054,0.053,0.122c-0.13,0.21-0.254,0.426-0.505,0.52
			c-0.035,0.013-0.076,0.031-0.073,0.074c0.002,0.057,0.055,0.059,0.096,0.064c0.113,0.016,0.224,0.005,0.335-0.021
			c0.071-0.016,0.148-0.111,0.198-0.061c0.06,0.063-0.01,0.162-0.029,0.244c-0.008,0.035-0.024,0.07-0.038,0.105
			c-0.178,0.438-0.385,0.861-0.68,1.235c-0.029,0.037-0.082,0.083-0.052,0.124c0.038,0.05,0.102,0.015,0.147-0.01
			c0.141-0.076,0.284-0.151,0.42-0.237s0.264-0.187,0.401-0.284c0.068,0.797,0.127,1.578,0.335,2.339
			c0.18,0.657,0.434,1.29,0.649,1.935c0.078,0.236,0.143,0.471,0.022,0.713l0.002,0.002c0.129-0.016,0.227-0.094,0.318-0.172
			c0.079-0.066,0.118-0.07,0.185,0.021c0.357,0.493,0.781,0.925,1.265,1.299c0.07,0.055,0.12,0.119,0.16,0.195
			c0.289,0.537,0.629,1.038,1.062,1.469c0.081,0.082,0.14,0.171,0.185,0.277c0.17,0.406,0.455,0.709,0.85,0.908
			c0.382,0.192,0.792,0.263,1.213,0.289c0.547,0.034,1.095-0.005,1.642-0.007c0.554-0.003,1.021-0.198,1.362-0.64
			c0.268-0.348,0.572-0.648,0.932-0.903c0.367-0.261,0.672-0.593,0.967-0.946c0.121,0.203,0.218,0.405,0.41,0.586
			c-0.02-0.212-0.033-0.387,0.013-0.56c0.158-0.573,0.493-1.06,0.888-1.476c0.839-0.886,1.595-1.825,2.157-2.912
			c0.018-0.035,0.024-0.084,0.075-0.099c0.166,0.22,0.31,0.462,0.544,0.63c-0.075-0.234-0.144-0.465-0.159-0.707
			c-0.024-0.368-0.06-0.738,0.08-1.096c0.037-0.098,0.066-0.109,0.139-0.034c0.091,0.095,0.208,0.149,0.337,0.177
			c0.061,0.014,0.139,0.052,0.174-0.02c0.029-0.062-0.052-0.094-0.09-0.135c-0.237-0.266-0.363-0.575-0.297-0.927
			c0.12-0.651,0.209-1.303,0.184-1.966c-0.003-0.084,0.025-0.108,0.106-0.119c0.698-0.09,1.267-0.424,1.708-0.964
			C215.751,54.505,215.904,53.468,215.673,52.375z M197.863,54.518c-0.01,0.063-0.066,0.029-0.105,0.017
			c-0.226-0.072-0.409-0.21-0.582-0.366c-0.07-0.062-0.14-0.127-0.231-0.209c-0.013,0.188,0.065,0.318,0.117,0.453
			c0.018,0.045,0.04,0.088,0.057,0.133c0.012,0.03,0.02,0.064-0.007,0.09c-0.029,0.027-0.061,0.008-0.091-0.003
			c-0.179-0.065-0.327-0.181-0.481-0.288c-0.09-0.062-0.172-0.139-0.316-0.178c0.12,0.273,0.276,0.477,0.491,0.635
			c0.246,0.182,0.528,0.283,0.825,0.343c0.13,0.025,0.163,0.082,0.129,0.209c-0.038,0.14-0.06,0.284-0.077,0.427
			c-0.011,0.093-0.05,0.111-0.137,0.104c-0.458-0.036-0.862-0.206-1.224-0.483c-1.484-1.137-1.421-3.635,0.12-4.687
			c0.191-0.13,0.396-0.236,0.637-0.303c0.019,0.199,0.028,0.382,0.055,0.562c0.013,0.083-0.035,0.115-0.083,0.156
			c-0.266,0.229-0.511,0.477-0.702,0.771c-0.09,0.139-0.164,0.285-0.173,0.486c0.108-0.076,0.166-0.165,0.235-0.243
			c0.206-0.233,0.403-0.476,0.714-0.583c0.081-0.028,0.107-0.023,0.13,0.064c0.199,0.753,0.47,1.482,0.766,2.201
			C198.026,54.065,197.897,54.288,197.863,54.518z M208.983,47.627c0.133-0.082,0.271-0.151,0.414-0.213
			c0.064-0.026,0.111-0.031,0.112,0.063c0.002,0.097,0.014,0.192,0.018,0.246c-0.005,0.22-0.009,0.396-0.08,0.562
			c-0.045,0.107-0.116,0.183-0.24,0.179c-0.116-0.004-0.179-0.084-0.219-0.186c-0.072-0.178-0.07-0.365-0.07-0.553
			C208.917,47.676,208.945,47.65,208.983,47.627z M203.637,46.672c0.05-0.066,0.152,0.031,0.221,0.076
			c0.524,0.346,0.965,0.783,1.347,1.281c0.033,0.041,0.066,0.082,0.101,0.124c0.01-0.009,0.02-0.017,0.029-0.024
			c-0.079-0.381-0.22-0.747-0.261-1.139c0.228,0.383,0.335,0.812,0.48,1.227c0.055-0.001,0.048-0.048,0.059-0.08
			c0.126-0.376,0.245-0.755,0.418-1.113c0.056-0.115,0.122-0.227,0.19-0.335c0.036-0.057,0.078-0.149,0.147-0.126
			c0.077,0.027,0.037,0.123,0.025,0.188c-0.04,0.201-0.084,0.4-0.132,0.598c-0.067,0.28-0.141,0.559-0.224,0.887
			c0.615-0.578,1.204-1.111,1.979-1.418c-0.003,0.076-0.049,0.1-0.084,0.121c-0.614,0.381-1.063,0.931-1.508,1.482
			c-0.071,0.088-0.142,0.176-0.218,0.259c-0.277,0.302-0.667,0.321-0.977,0.054c-0.106-0.092-0.201-0.199-0.257-0.327
			c-0.266-0.619-0.733-1.077-1.209-1.529C203.702,46.818,203.578,46.752,203.637,46.672z M208.67,55.666
			c-0.019,0.072-0.04,0.104-0.119,0.057c-0.134-0.078-0.261-0.165-0.381-0.266c-0.028-0.024-0.057-0.049-0.058-0.092
			c-0.001-0.225-0.017-0.451,0.07-0.666c0.044-0.105,0.112-0.184,0.239-0.181c0.119,0.003,0.182,0.082,0.223,0.181
			c0.069,0.167,0.074,0.344,0.074,0.521C208.719,55.371,208.709,55.52,208.67,55.666z M206.569,56.207
			c-0.013,0.079-0.047,0.154-0.071,0.23c-0.041,0.135-0.098,0.106-0.169,0.021c-0.13-0.154-0.148-0.312-0.051-0.49
			c0.062-0.113,0.14-0.215,0.234-0.304c0.231-0.214,0.537-0.176,0.702,0.09c0.052,0.084,0.098,0.171,0.039,0.271
			c-0.057,0.099-0.157,0.101-0.25,0.112c-0.093-0.014-0.184-0.029-0.273-0.041C206.644,56.086,206.587,56.109,206.569,56.207z
			 M203.493,65.797c0.198-0.543,0.606-0.766,1.212-0.659c0.173,0.031,0.33,0.028,0.48-0.062c0.105-0.062,0.107,0.006,0.096,0.078
			c-0.021,0.133-0.062,0.261-0.131,0.379c-0.109,0.186-0.184,0.211-0.396,0.166c-0.252-0.057-0.502,0.001-0.752,0.023
			C203.837,65.738,203.674,65.77,203.493,65.797z M202.363,63.209c0.128-0.467,0.472-0.68,0.925-0.756
			c1.008-0.168,1.642,0.537,1.892,1.25c-0.486-0.113-0.966-0.146-1.45-0.054c-0.489,0.095-0.923,0.303-1.316,0.649
			C202.302,63.918,202.265,63.563,202.363,63.209z M200.05,55.24c0.011-0.217,0.013-0.377,0.075-0.529
			c0.042-0.105,0.103-0.189,0.229-0.192c0.128-0.003,0.199,0.075,0.235,0.183c0.111,0.329,0.102,0.662,0.017,0.996
			c-0.019,0.073-0.061,0.092-0.128,0.051c-0.036-0.021-0.075-0.041-0.115-0.055C200.116,55.609,199.994,55.453,200.05,55.24z
			 M203.523,61.201c0.459-0.268,0.647-0.676,0.63-1.195c-0.008-0.25-0.001-0.499-0.001-0.78c0.062,0.054,0.099,0.085,0.135,0.116
			c0.052,0.045,0.1,0.056,0.149-0.006c0.038-0.047,0.093-0.076,0.152-0.084c0.044-0.004,0.095-0.007,0.064,0.066
			c-0.16,0.391-0.188,0.812-0.302,1.213c-0.057,0.207-0.099,0.416-0.135,0.627c-0.033,0.197-0.097,0.25-0.296,0.273
			c-0.236,0.027-0.469,0.005-0.737-0.036C203.318,61.318,203.42,61.26,203.523,61.201z M203.129,55.762
			c0.171-0.273,0.475-0.312,0.711-0.092c0.079,0.074,0.146,0.158,0.202,0.25c0.156,0.252,0.118,0.439-0.133,0.624
			c-0.059-0.091-0.102-0.188-0.117-0.294c-0.021-0.142-0.099-0.176-0.228-0.147c-0.077,0.019-0.158,0.034-0.238,0.032
			C203.093,56.131,203.004,55.961,203.129,55.762z M205.127,57.389c-0.066,0.18-0.132,0.361-0.201,0.541
			c-0.014,0.037-0.041,0.07-0.061,0.104c-0.062-0.022-0.062-0.067-0.065-0.108c-0.02-0.218-0.041-0.436-0.055-0.654
			c-0.008-0.143-0.064-0.242-0.195-0.306c-0.059-0.029-0.136-0.064-0.133-0.146c0.005-0.085,0.09-0.104,0.153-0.122
			c0.167-0.047,0.271-0.164,0.357-0.304c0.045-0.071,0.086-0.148,0.129-0.222c0.051-0.084,0.095-0.098,0.142,0.006
			c0.129,0.287,0.287,0.551,0.582,0.703c0.022,0.012,0.048,0.029,0.043,0.06c-0.005,0.034-0.036,0.032-0.062,0.037
			c-0.048,0.009-0.096,0.022-0.143,0.022C205.351,56.998,205.213,57.16,205.127,57.389z M199.472,47.688
			c0.109-0.086,0.226-0.16,0.367-0.229c0.042,0.286,0.039,0.555-0.054,0.818c-0.037,0.105-0.109,0.188-0.234,0.188
			c-0.126-0.001-0.189-0.084-0.232-0.191c-0.005-0.014-0.011-0.029-0.016-0.045C199.208,47.936,199.227,47.877,199.472,47.688z
			 M198.203,50.094c0.085,0.158,0.052,0.51-0.077,0.762C198.126,50.576,198.159,50.346,198.203,50.094z M199.674,55.201
			c-0.262-0.24-0.463-0.496-0.637-0.771c-0.195-0.311-0.365-0.636-0.494-0.98c-0.03-0.08-0.031-0.146-0.001-0.229
			c0.12-0.324,0.119-0.653,0.001-0.979c-0.058-0.159-0.162-0.291-0.317-0.371c-0.048-0.025-0.072-0.054-0.074-0.109
			c-0.008-0.176-0.019-0.354-0.032-0.529c-0.004-0.059,0.022-0.084,0.073-0.106c0.201-0.089,0.324-0.255,0.375-0.458
			c0.103-0.402,0.109-0.799-0.17-1.146c-0.028-0.035-0.048-0.065-0.031-0.116c0.135-0.408,0.307-0.798,0.573-1.161
			c0.026,0.046,0.045,0.08,0.065,0.114c0.131,0.22,0.314,0.349,0.58,0.333c0.264-0.016,0.438-0.159,0.547-0.389
			c0.131-0.273,0.131-0.564,0.075-0.852c-0.023-0.116,0.01-0.135,0.107-0.151c0.204-0.034,0.406-0.032,0.609-0.013
			c0.093,0.009,0.139,0.038,0.135,0.147c-0.009,0.289-0.008,0.58,0,0.87c0.002,0.107-0.031,0.146-0.136,0.131
			c-0.042-0.006-0.086,0.003-0.128-0.002c-0.085-0.012-0.097,0.032-0.096,0.104c0.001,0.074,0.007,0.119,0.102,0.117
			c0.291-0.006,0.581-0.006,0.871,0c0.098,0.002,0.099-0.047,0.1-0.118c0.002-0.072-0.011-0.103-0.095-0.104
			c-0.262-0.008-0.262-0.013-0.262-0.27c0-0.236,0-0.473,0-0.723c0.395,0.123,0.976,0.592,1.231,0.995
			c-0.078,0-0.145,0.003-0.211-0.001c-0.08-0.006-0.128,0.002-0.127,0.105c0.003,0.098,0.039,0.133,0.123,0.111
			c0.341-0.08,0.494,0.115,0.632,0.385c0.787,1.536,0.966,3.129,0.487,4.791c-0.038,0.13-0.096,0.199-0.235,0.239
			c-0.422,0.118-0.722,0.407-0.973,0.754c-0.034,0.046-0.065,0.095-0.122,0.179c0-0.229-0.003-0.42,0.002-0.609
			c0.002-0.083-0.023-0.1-0.103-0.078c-0.171,0.047-0.342,0.093-0.516,0.125c-0.131,0.025-0.109,0.121-0.093,0.196
			c0.022,0.097,0.094,0.009,0.142,0.017c0.024,0.003,0.052-0.012,0.077-0.021c0.102-0.038,0.137-0.011,0.134,0.104
			c-0.007,0.327-0.006,0.655-0.001,0.982c0.001,0.086-0.024,0.124-0.109,0.142c-0.285,0.062-0.57,0.093-0.87,0.018
			c0.183-0.337,0.202-0.688,0.11-1.046c-0.097-0.377-0.378-0.576-0.731-0.529c-0.28,0.036-0.427,0.227-0.521,0.47
			C199.694,54.898,199.671,55.035,199.674,55.201z M212.63,51.736c-0.002,0.08-0.054,0.095-0.113,0.109
			c-0.145,0.035-0.29,0.078-0.438,0.104c-0.115,0.021-0.116,0.096-0.104,0.178c0.02,0.12,0.104,0.042,0.149,0.034
			c0.204-0.043,0.203-0.047,0.203,0.158c0,0.242-0.002,0.483,0.001,0.725c0.002,0.094-0.023,0.18-0.05,0.268
			c-0.023,0.076-0.065,0.096-0.142,0.096c-0.068-0.001-0.159-0.043-0.169,0.099c-0.009,0.15,0.092,0.109,0.18,0.124
			c-0.085,0.221-0.19,0.412-0.295,0.605c-0.032,0.059-0.079,0.08-0.14,0.095c-0.146,0.034-0.29,0.079-0.438,0.104
			c-0.125,0.021-0.125,0.104-0.104,0.189c0.023,0.095,0.095,0.022,0.143,0.023c0.068,0.002,0.152-0.083,0.198-0.007
			c0.047,0.078-0.034,0.147-0.084,0.21c-0.271,0.331-0.582,0.615-0.958,0.826c-0.055,0.031-0.112,0.057-0.2,0.1
			c0-0.102,0-0.178,0-0.256c0-0.364-0.004-0.73,0.001-1.095c0.002-0.104-0.014-0.147-0.132-0.108
			c-0.131,0.045-0.267,0.084-0.404,0.102c-0.168,0.021-0.206,0.102-0.157,0.25c0.015,0,0.03,0,0.045-0.004
			c0.286-0.057,0.286-0.057,0.287,0.23c0,0.289,0.001,0.579-0.001,0.869c0,0.043,0.024,0.117-0.047,0.117
			c-0.28,0.006-0.557,0.134-0.841,0.022c-0.024-0.011-0.05-0.019-0.085-0.03c0.19-0.361,0.216-0.737,0.086-1.117
			c-0.12-0.352-0.413-0.523-0.749-0.454c-0.239,0.05-0.368,0.224-0.478,0.446c-0.132-0.191-0.269-0.357-0.447-0.486
			c-0.038-0.027-0.053-0.09-0.071-0.141c-0.476-1.287-0.445-2.584-0.072-3.887c0.05-0.176,0.116-0.346,0.177-0.518
			c0.015-0.039,0.032-0.09,0.085-0.082c0.065,0.012,0.032,0.071,0.032,0.106c0.003,0.322,0.002,0.645,0.002,0.966
			c0,0.213,0,0.215-0.211,0.214c-0.088-0.001-0.16-0.004-0.146,0.121c0.007,0.069,0.027,0.092,0.096,0.091
			c0.29-0.002,0.58-0.003,0.87,0.001c0.08,0.001,0.101-0.03,0.099-0.104c-0.002-0.068-0.011-0.105-0.094-0.109
			c-0.263-0.016-0.262-0.021-0.262-0.289c0-0.381-0.006-0.763,0.002-1.145c0.004-0.139-0.026-0.19-0.168-0.129
			c-0.042,0.018-0.091,0.02-0.159,0.033c0.11-0.258,0.246-0.479,0.389-0.696c0.043-0.063,0.106-0.036,0.161-0.044
			c0.043-0.008,0.11,0.026,0.122-0.04c0.01-0.056,0.042-0.133-0.025-0.172c-0.036-0.021-0.054-0.025-0.022-0.061
			c0.119-0.136,0.228-0.281,0.384-0.397c0.044,0.148,0.075,0.29,0.155,0.412c0.259,0.396,0.788,0.406,1.046,0.01
			c0.194-0.297,0.202-0.63,0.129-0.962c-0.031-0.138,0.008-0.165,0.13-0.168c0.199-0.003,0.396,0.01,0.591,0.054
			c0.108,0.024,0.134,0.074,0.131,0.176c-0.007,0.252-0.011,0.506,0.001,0.757c0.007,0.139-0.026,0.2-0.173,0.175
			c-0.051-0.008-0.116-0.012-0.156,0.014c-0.046,0.029-0.019,0.099-0.018,0.149c0.001,0.065,0.055,0.054,0.096,0.054
			c0.284,0,0.569-0.003,0.854,0.002c0.084,0.001,0.112-0.024,0.111-0.109c0-0.08-0.017-0.111-0.105-0.113
			c-0.251-0.006-0.251-0.01-0.251-0.266c0-0.202,0-0.405,0-0.63c0.295,0.162,0.532,0.366,0.702,0.626
			c0.219,0.333,0.45,0.661,0.576,1.051c0.052,0.161,0.021,0.206-0.13,0.222c-0.058,0.006-0.114,0.028-0.172,0.04
			c-0.113,0.023-0.086,0.113-0.075,0.18c0.016,0.089,0.087,0.036,0.129,0.027c0.222-0.046,0.221-0.049,0.221,0.18
			c0,0.28,0,0.559,0,0.838c0,0.221,0,0.221-0.219,0.225c-0.069,0-0.142-0.016-0.138,0.1c0.002,0.079,0.02,0.115,0.108,0.112
			c0.149-0.007,0.301,0.003,0.45-0.003c0.094-0.004,0.142,0.016,0.13,0.122C212.645,51.414,212.634,51.575,212.63,51.736z
			 M214.354,55.43c-0.312,0.242-0.67,0.381-1.058,0.445c-0.097,0.016-0.146-0.004-0.152-0.118c-0.01-0.139-0.03-0.28-0.074-0.411
			c-0.053-0.156,0.007-0.203,0.147-0.236c0.45-0.105,0.826-0.326,1.076-0.729c0.036-0.057,0.086-0.111,0.075-0.213
			c-0.187,0.084-0.322,0.217-0.482,0.314c-0.087,0.052-0.178,0.099-0.269,0.144c-0.031,0.016-0.07,0.042-0.104,0.007
			c-0.03-0.031-0.014-0.071-0.001-0.105c0.066-0.174,0.164-0.336,0.179-0.537c-0.076-0.004-0.106,0.053-0.146,0.089
			c-0.17,0.157-0.344,0.31-0.558,0.405c-0.051,0.023-0.115,0.088-0.172,0.015c-0.046-0.06-0.065-0.126-0.035-0.209
			c0.109-0.303,0.204-0.61,0.313-0.913c0.197-0.547,0.319-1.111,0.404-1.686c0.02-0.134,0.062-0.148,0.174-0.098
			c0.253,0.114,0.429,0.318,0.605,0.519c0.076,0.087,0.15,0.174,0.25,0.29c0.013-0.199-0.056-0.326-0.13-0.449
			c-0.186-0.306-0.43-0.562-0.701-0.791c-0.078-0.066-0.107-0.135-0.087-0.238c0.024-0.12,0.041-0.244,0.044-0.365
			c0.002-0.129,0.047-0.139,0.153-0.094c0.636,0.265,1.083,0.723,1.376,1.336C215.785,53.062,215.437,54.592,214.354,55.43z"/>
		<path fill-rule="evenodd" clip-rule="evenodd" fill="#E95B2E" d="M200.05,55.24c0.011-0.217,0.013-0.377,0.075-0.529
			c0.042-0.105,0.103-0.189,0.229-0.192c0.128-0.003,0.199,0.075,0.235,0.183c0.111,0.329,0.102,0.662,0.017,0.996
			c-0.019,0.073-0.061,0.092-0.128,0.051c-0.036-0.021-0.075-0.041-0.115-0.055C200.116,55.609,199.994,55.453,200.05,55.24z"/>
		<path fill-rule="evenodd" clip-rule="evenodd" fill="#E95B2E" d="M208.719,55.221c0,0.15-0.01,0.299-0.049,0.445
			c-0.019,0.072-0.04,0.104-0.119,0.057c-0.134-0.078-0.261-0.165-0.381-0.266c-0.028-0.024-0.057-0.049-0.058-0.092
			c-0.001-0.225-0.017-0.451,0.07-0.666c0.044-0.105,0.112-0.184,0.239-0.181c0.119,0.003,0.182,0.082,0.223,0.181
			C208.714,54.866,208.719,55.043,208.719,55.221z"/>
		<path fill-rule="evenodd" clip-rule="evenodd" fill="#E95B2E" d="M209.527,47.724c-0.005,0.22-0.009,0.396-0.08,0.562
			c-0.045,0.107-0.116,0.183-0.24,0.179c-0.116-0.004-0.179-0.084-0.219-0.186c-0.072-0.178-0.07-0.365-0.07-0.553
			c0-0.051,0.027-0.076,0.065-0.1c0.133-0.082,0.271-0.151,0.414-0.213c0.064-0.026,0.111-0.031,0.112,0.063
			C209.511,47.574,209.523,47.67,209.527,47.724z"/>
		<path fill-rule="evenodd" clip-rule="evenodd" fill="#E95B2E" d="M199.839,47.459c0.042,0.286,0.039,0.555-0.054,0.818
			c-0.037,0.105-0.109,0.188-0.234,0.188c-0.126-0.001-0.189-0.084-0.232-0.191c-0.005-0.014-0.011-0.029-0.016-0.045
			c-0.095-0.293-0.076-0.352,0.169-0.541C199.581,47.602,199.698,47.527,199.839,47.459z"/>
		<path fill-rule="evenodd" clip-rule="evenodd" fill="#E95B2E" d="M198.126,50.855c0-0.279,0.033-0.51,0.077-0.762
			C198.288,50.252,198.255,50.604,198.126,50.855z"/>
		<path fill-rule="evenodd" clip-rule="evenodd" fill="#E95B2E" d="M211.519,50.264c-0.007,0.224-0.041,0.455-0.188,0.656
			c-0.255,0.349-0.746,0.348-1.002-0.002c-0.246-0.338-0.251-0.985-0.011-1.328c0.256-0.367,0.767-0.365,1.022,0
			C211.48,49.788,211.514,50.015,211.519,50.264z M210.53,50.242c-0.002,0.178,0,0.355,0.07,0.523c0.041,0.1,0.1,0.18,0.22,0.183
			c0.128,0.003,0.201-0.073,0.237-0.183c0.114-0.34,0.109-0.685,0.007-1.027c-0.034-0.109-0.108-0.191-0.231-0.191
			c-0.122,0-0.191,0.08-0.234,0.189C210.532,49.899,210.529,50.07,210.53,50.242z"/>
		<path fill-rule="evenodd" clip-rule="evenodd" fill="#E95B2E" d="M211.519,52.729c-0.007,0.211-0.031,0.416-0.141,0.604
			c-0.259,0.442-0.831,0.458-1.083,0.011c-0.226-0.399-0.226-0.827,0.003-1.226c0.249-0.436,0.822-0.422,1.077,0.01
			C211.468,52.286,211.518,52.492,211.519,52.729z M211.136,52.803c0.001-0.221-0.006-0.382-0.056-0.537
			c-0.039-0.122-0.098-0.232-0.251-0.23c-0.153,0.001-0.218,0.112-0.249,0.234c-0.078,0.307-0.078,0.617-0.001,0.924
			c0.03,0.121,0.091,0.237,0.244,0.239c0.159,0.001,0.219-0.116,0.259-0.243C211.129,53.044,211.134,52.894,211.136,52.803z"/>
		<path fill-rule="evenodd" clip-rule="evenodd" fill="#E95B2E" d="M209.906,50.253c-0.005,0.233-0.04,0.459-0.181,0.657
			c-0.256,0.36-0.75,0.363-1.01,0.004c-0.246-0.34-0.248-0.983-0.006-1.328c0.255-0.359,0.753-0.361,1.014-0.006
			C209.844,49.747,209.91,49.987,209.906,50.253z M208.918,50.256c-0.001,0.166,0.001,0.334,0.062,0.492
			c0.044,0.109,0.104,0.203,0.241,0.2c0.128-0.003,0.197-0.087,0.23-0.192c0.104-0.338,0.104-0.677,0.001-1.014
			c-0.033-0.111-0.105-0.193-0.229-0.195c-0.132-0.002-0.2,0.087-0.243,0.201C208.92,49.912,208.917,50.084,208.918,50.256z"/>
		<path fill-rule="evenodd" clip-rule="evenodd" fill="#E95B2E" d="M209.466,52.619c0,0.182,0,0.363,0,0.547
			c0,0.232,0,0.238,0.232,0.236c0.101-0.001,0.13,0.031,0.124,0.129c-0.003,0.066-0.018,0.095-0.09,0.094
			c-0.295-0.004-0.59-0.004-0.885,0.001c-0.088,0.001-0.093-0.042-0.09-0.108c0.002-0.062-0.003-0.109,0.087-0.115
			c0.259-0.019,0.259-0.023,0.259-0.293c-0.001-0.258-0.001-0.515-0.001-0.771c0-0.22-0.001-0.227-0.209-0.168
			c-0.122,0.034-0.146-0.004-0.138-0.117c0.005-0.061,0.03-0.084,0.082-0.096c0.178-0.044,0.354-0.088,0.53-0.134
			c0.083-0.022,0.1,0.013,0.099,0.089C209.465,52.146,209.466,52.383,209.466,52.619z"/>
		<path fill-rule="evenodd" clip-rule="evenodd" fill="#E95B2E" d="M207.855,52.621c0,0.193,0.012,0.387-0.004,0.579
			c-0.013,0.166,0.037,0.233,0.206,0.206c0.095-0.016,0.169-0.005,0.155,0.127c-0.007,0.07-0.024,0.093-0.094,0.092
			c-0.295-0.002-0.59-0.004-0.885,0.001c-0.092,0.001-0.088-0.048-0.088-0.11c0-0.064,0.002-0.107,0.091-0.113
			c0.266-0.018,0.266-0.021,0.266-0.285c0-0.295-0.004-0.59,0.001-0.885c0.002-0.092-0.018-0.131-0.113-0.093
			c-0.034,0.013-0.073,0.028-0.108,0.026c-0.044-0.002-0.113,0.069-0.128-0.018c-0.013-0.067-0.05-0.164,0.074-0.192
			c0.178-0.041,0.354-0.085,0.53-0.132c0.087-0.022,0.099,0.017,0.098,0.09C207.853,52.149,207.855,52.385,207.855,52.621z"/>
		<path fill-rule="evenodd" clip-rule="evenodd" fill="#E95B2E" d="M201.85,52.734c0,0.212-0.029,0.417-0.141,0.604
			c-0.257,0.435-0.832,0.449-1.077,0.01c-0.229-0.407-0.229-0.84,0.01-1.244c0.247-0.42,0.808-0.404,1.061,0.014
			C201.818,52.307,201.853,52.517,201.85,52.734z M201.478,52.732c-0.011-0.166-0.013-0.339-0.074-0.501
			c-0.042-0.11-0.109-0.202-0.245-0.198c-0.126,0.004-0.195,0.089-0.228,0.196c-0.102,0.337-0.102,0.677,0.002,1.014
			c0.033,0.11,0.103,0.19,0.23,0.19c0.125-0.001,0.192-0.083,0.234-0.189C201.464,53.082,201.465,52.91,201.478,52.732z"/>
		<path fill-rule="evenodd" clip-rule="evenodd" fill="#E95B2E" d="M202.088,52.734c0-0.206,0.029-0.407,0.134-0.59
			c0.12-0.21,0.294-0.338,0.545-0.34c0.256-0.003,0.447,0.115,0.559,0.34c0.196,0.395,0.202,0.802-0.007,1.189
			c-0.24,0.445-0.811,0.447-1.078,0.017C202.141,53.192,202.088,52.976,202.088,52.734z M202.471,52.727
			c0.004,0.178,0.005,0.354,0.073,0.521c0.04,0.101,0.1,0.182,0.219,0.186c0.127,0.004,0.205-0.07,0.24-0.18
			c0.114-0.346,0.114-0.695,0-1.043c-0.034-0.104-0.108-0.176-0.224-0.178c-0.125-0.002-0.192,0.08-0.236,0.186
			C202.477,52.383,202.475,52.555,202.471,52.727z"/>
		<path fill-rule="evenodd" clip-rule="evenodd" fill="#E95B2E" d="M200.481,50.295c-0.005-0.306,0.045-0.543,0.207-0.748
			c0.238-0.303,0.69-0.309,0.941-0.016c0.305,0.357,0.301,1.09-0.007,1.443c-0.243,0.277-0.684,0.273-0.922-0.01
			C200.55,50.786,200.481,50.559,200.481,50.295z M200.86,50.252c0.005,0.165,0.003,0.343,0.072,0.51
			c0.042,0.104,0.104,0.189,0.232,0.187c0.127-0.003,0.198-0.083,0.232-0.189c0.108-0.341,0.108-0.683,0.001-1.024
			c-0.035-0.109-0.11-0.188-0.233-0.188s-0.19,0.083-0.232,0.189C200.866,49.898,200.865,50.07,200.86,50.252z"/>
		<path fill-rule="evenodd" clip-rule="evenodd" fill="#E95B2E" d="M202.667,49.627c-0.083,0.02-0.153,0.044-0.226,0.054
			c-0.042,0.006-0.112,0.068-0.125-0.024c-0.01-0.07-0.04-0.162,0.084-0.188c0.173-0.037,0.345-0.08,0.515-0.129
			c0.097-0.027,0.114,0.005,0.113,0.098c-0.004,0.434,0.007,0.868-0.006,1.302c-0.005,0.161,0.043,0.208,0.194,0.187
			c0.089-0.014,0.188-0.024,0.167,0.127c-0.009,0.061-0.023,0.083-0.085,0.083c-0.301-0.003-0.601-0.004-0.9,0
			c-0.095,0.002-0.085-0.054-0.087-0.114c-0.002-0.063,0.011-0.095,0.087-0.1c0.269-0.021,0.269-0.026,0.269-0.299
			C202.667,50.297,202.667,49.969,202.667,49.627z"/>
		<path fill-rule="evenodd" clip-rule="evenodd" fill="#E95B2E" d="M199.804,50.12c0,0.209,0.011,0.419-0.004,0.628
			c-0.011,0.152,0.044,0.191,0.186,0.178c0.08-0.009,0.192-0.043,0.176,0.118c-0.007,0.068-0.024,0.093-0.094,0.092
			c-0.294-0.003-0.59-0.004-0.884,0c-0.085,0.002-0.096-0.036-0.096-0.106c0-0.068,0.011-0.104,0.094-0.109
			c0.263-0.014,0.262-0.018,0.262-0.289c0-0.295-0.002-0.59,0.003-0.884c0-0.091-0.016-0.132-0.113-0.092
			c-0.035,0.015-0.073,0.028-0.108,0.026c-0.045-0.004-0.121,0.084-0.133-0.032c-0.008-0.075-0.028-0.159,0.094-0.183
			c0.173-0.033,0.344-0.08,0.514-0.128c0.09-0.024,0.108,0.005,0.106,0.091C199.8,49.659,199.804,49.89,199.804,50.12z"/>
		<path fill-rule="evenodd" clip-rule="evenodd" fill="#E95B2E" d="M199.804,52.611c0,0.227,0.004,0.451-0.002,0.677
			c-0.002,0.087,0.018,0.132,0.113,0.118c0.047-0.006,0.098,0.004,0.145-0.002c0.098-0.012,0.1,0.045,0.101,0.117
			c0.001,0.07-0.009,0.105-0.095,0.104c-0.295-0.006-0.59-0.006-0.885,0c-0.088,0.001-0.095-0.04-0.092-0.107
			c0.002-0.061-0.005-0.109,0.087-0.116c0.269-0.02,0.269-0.023,0.269-0.299c0-0.29-0.003-0.58,0.002-0.871
			c0-0.088-0.013-0.134-0.112-0.094c-0.035,0.014-0.074,0.029-0.108,0.026c-0.045-0.005-0.122,0.085-0.134-0.031
			c-0.008-0.076-0.024-0.159,0.095-0.183c0.168-0.031,0.335-0.076,0.5-0.123c0.09-0.025,0.122-0.01,0.119,0.091
			C199.799,52.15,199.804,52.381,199.804,52.611z"/>
		<path fill-rule="evenodd" clip-rule="evenodd" fill="#E95B2E" d="M205.334,48.129c0.014,0.023,0.023,0.047,0.003,0.071
			c-0.011-0.016-0.021-0.031-0.032-0.047C205.315,48.145,205.324,48.137,205.334,48.129z"/>
		<path fill-rule="evenodd" clip-rule="evenodd" fill="#E95B2E" d="M210.53,50.242c-0.001-0.172,0.003-0.343,0.068-0.506
			c0.043-0.109,0.112-0.189,0.234-0.189c0.123,0,0.197,0.082,0.231,0.191c0.103,0.343,0.107,0.688-0.007,1.027
			c-0.036,0.109-0.109,0.186-0.237,0.183c-0.12-0.003-0.179-0.083-0.22-0.183C210.53,50.598,210.528,50.42,210.53,50.242z"/>
		<path fill-rule="evenodd" clip-rule="evenodd" fill="#E95B2E" d="M211.136,52.803c-0.002,0.091-0.007,0.241-0.054,0.387
			c-0.04,0.127-0.1,0.244-0.259,0.243c-0.153-0.002-0.214-0.118-0.244-0.239c-0.077-0.307-0.077-0.617,0.001-0.924
			c0.031-0.122,0.096-0.233,0.249-0.234c0.153-0.002,0.212,0.108,0.251,0.23C211.13,52.421,211.137,52.582,211.136,52.803z"/>
		<path fill-rule="evenodd" clip-rule="evenodd" fill="#E95B2E" d="M208.918,50.256c-0.001-0.172,0.002-0.344,0.063-0.508
			c0.043-0.114,0.111-0.203,0.243-0.201c0.123,0.002,0.195,0.084,0.229,0.195c0.104,0.337,0.104,0.676-0.001,1.014
			c-0.033,0.105-0.103,0.189-0.23,0.192c-0.137,0.003-0.197-0.091-0.241-0.2C208.919,50.59,208.917,50.422,208.918,50.256z"/>
		<path fill-rule="evenodd" clip-rule="evenodd" fill="#E95B2E" d="M201.478,52.732c-0.013,0.178-0.014,0.35-0.08,0.512
			c-0.042,0.106-0.109,0.188-0.234,0.189c-0.128,0-0.197-0.08-0.23-0.19c-0.104-0.337-0.104-0.677-0.002-1.014
			c0.032-0.107,0.102-0.192,0.228-0.196c0.136-0.004,0.203,0.088,0.245,0.198C201.465,52.394,201.467,52.566,201.478,52.732z"/>
		<path fill-rule="evenodd" clip-rule="evenodd" fill="#E95B2E" d="M202.471,52.726c0.004-0.171,0.006-0.343,0.072-0.507
			c0.044-0.105,0.111-0.188,0.236-0.186c0.115,0.002,0.189,0.073,0.224,0.178c0.114,0.348,0.114,0.697,0,1.043
			c-0.035,0.109-0.113,0.184-0.24,0.18c-0.119-0.004-0.179-0.085-0.219-0.186C202.476,53.08,202.475,52.904,202.471,52.726z"/>
		<path fill-rule="evenodd" clip-rule="evenodd" fill="#E95B2E" d="M200.86,50.252c0.005-0.182,0.007-0.354,0.072-0.516
			c0.042-0.106,0.109-0.189,0.232-0.189s0.198,0.078,0.233,0.188c0.107,0.342,0.107,0.684-0.001,1.024
			c-0.034,0.106-0.105,0.187-0.232,0.189c-0.129,0.003-0.19-0.083-0.232-0.187C200.863,50.595,200.865,50.417,200.86,50.252z"/>
	</g>
</g>
</svg>
