<?xml version="1.0" encoding="utf-8"?>
<!-- Generator: Adobe Illustrator 16.0.0, SVG Export Plug-In . SVG Version: 6.00 Build 0)  -->
<!DOCTYPE svg PUBLIC "-//W3C//DTD SVG 1.1//EN" "http://www.w3.org/Graphics/SVG/1.1/DTD/svg11.dtd">
<svg version="1.1" id="Calque_1" xmlns="http://www.w3.org/2000/svg" xmlns:xlink="http://www.w3.org/1999/xlink" x="0px" y="0px"
	 width="409.834px" height="73.625px" viewBox="0 0 409.834 73.625" enable-background="new 0 0 409.834 73.625"
	 xml:space="preserve">
<g>
	<circle fill="#E95B2E" cx="17.808" cy="17.432" r="16.666"/>
	<circle fill="#E95B2E" cx="55.308" cy="17.432" r="16.666"/>
	<circle fill="#E95B2E" cx="92.809" cy="17.432" r="16.666"/>
	<circle fill="#E95B2E" cx="130.309" cy="17.432" r="16.666"/>
	<path id="Facebook_3_" fill="#FFFFFF" d="M15.627,12.39c0,0.415,0,2.266,0,2.266h-1.66v2.771h1.66v8.235h3.411v-8.235h2.288
		c0,0,0.215-1.329,0.315-2.782c-0.298,0-2.594,0-2.594,0s0-1.612,0-1.895s0.372-0.664,0.738-0.664c0.364,0,1.143,0,1.856,0
		c0-0.377,0-1.682,0-2.885c-0.958,0-2.046,0-2.523,0C15.544,9.202,15.627,11.976,15.627,12.39z"/>
	<path id="Github__x28_alt_x29__3_" fill="#FFFFFF" d="M97.568,9.498c0.271,0.611,0.445,1.625,0.188,2.369
		c1.062,0.909,1.429,3.116,0.915,4.92c1.516,0.116,3.321-0.055,4.483,0.41c-1.09-0.14-2.574-0.415-3.98-0.32
		c-0.266,0.019-0.659-0.01-0.641,0.365c1.627,0.128,3.24,0.267,4.576,0.684c-1.321-0.216-2.934-0.546-4.576-0.592
		c-0.684,1.342-2.053,2.001-3.938,2.141c0.203,0.441,0.592,0.61,0.688,1.321c0.143,1.062-0.225,2.618,0.137,3.325
		c0.172,0.339,0.452,0.349,0.642,0.638c-0.463,0.548-1.605-0.061-1.74-0.638c-0.223-0.987,0.344-2.519-0.271-3.188
		c0.043,1.077-0.255,2.59,0.046,3.553c0.117,0.378,0.46,0.524,0.365,0.865c-2.149,0.219-1.252-2.784-1.604-4.555
		c-0.322,0.023-0.182,0.486-0.182,0.683c-0.011,1.731,0.354,4.104-1.512,3.872c-0.058-0.363,0.251-0.487,0.362-0.819
		c0.344-0.974-0.062-2.424,0.097-3.6c-0.713,0.537,0.071,2.41-0.367,3.371c-0.254,0.553-1.072,0.793-1.693,0.546
		c0.082-0.411,0.506-0.345,0.688-0.729c0.253-0.535,0.002-1.305,0.092-2.095c-1.317,0.263-2.34-0.038-2.84-0.866
		c-0.227-0.372-0.279-0.81-0.55-1.139s-0.698-0.374-0.822-0.819c1.631-0.393,1.69,1.679,3.159,1.73
		c0.445,0.016,0.684-0.13,1.099-0.227c0.116-0.523,0.365-0.913,0.732-1.186c-1.823-0.25-3.329-0.817-4.029-2.186
		c-1.658,0.082-3.175,0.303-4.581,0.637c1.276-0.463,2.851-0.629,4.535-0.684c-0.104-0.597-0.975-0.433-1.514-0.41
		c-1.006,0.044-2.271,0.17-3.065,0.32c1.157-0.413,2.782-0.361,4.352-0.365c-0.479-1.504-0.312-3.893,0.73-4.783
		c-0.295-0.747-0.203-1.969,0.186-2.551c1.168,0.052,1.875,0.562,2.608,1.048c0.91-0.259,1.866-0.388,3.114-0.319
		c0.521,0.029,1.065,0.265,1.464,0.227c0.39-0.036,0.812-0.471,1.189-0.637C96.596,9.601,97.01,9.518,97.568,9.498z"/>
	<circle fill="#E95B2E" cx="167.809" cy="17.432" r="16.666"/>
	<path id="Twitter__x28_alt_x29__2_" fill="#FFFFFF" d="M64.215,16.553c1.295-0.107,2.172-0.695,2.51-1.493
		c-0.467,0.286-1.916,0.599-2.715,0.301c-0.039-0.188-0.084-0.366-0.127-0.528c-0.609-2.238-2.695-4.042-4.883-3.824
		c0.176-0.071,0.354-0.138,0.533-0.197c0.239-0.086,1.651-0.316,1.432-0.815c-0.188-0.438-1.912,0.332-2.236,0.432
		c0.431-0.161,1.14-0.438,1.213-0.932c-0.655,0.09-1.303,0.401-1.801,0.853c0.18-0.193,0.316-0.43,0.346-0.684
		c-1.754,1.119-2.774,3.376-3.604,5.566c-0.65-0.63-1.229-1.126-1.744-1.402c-1.451-0.778-3.186-1.59-5.91-2.601
		c-0.082,0.901,0.447,2.099,1.974,2.896c-0.33-0.044-0.937,0.054-1.416,0.17c0.192,1.033,0.838,1.883,2.575,2.294
		c-0.795,0.053-1.207,0.233-1.575,0.624c0.358,0.717,1.243,1.562,2.834,1.389c-1.769,0.762-0.722,2.173,0.719,1.962
		c-2.453,2.534-6.322,2.348-8.543,0.229c5.801,7.903,18.406,4.674,20.285-2.938c1.405,0.012,2.231-0.488,2.748-1.038
		C66.014,16.954,64.838,16.812,64.215,16.553z"/>
	<path id="LinkedIn_3_" fill="#FFFFFF" d="M138.766,19.26v6.254h-3.625v-5.835c0-1.466-0.521-2.466-1.836-2.466
		c-1.002,0-1.6,0.674-1.861,1.326c-0.096,0.233-0.118,0.558-0.118,0.884v6.091h-3.63c0,0,0.053-9.882,0-10.907h3.63v1.546
		c-0.009,0.012-0.019,0.024-0.022,0.036h0.022v-0.036c0.479-0.742,1.343-1.802,3.27-1.802
		C136.979,14.351,138.766,15.91,138.766,19.26z M123.902,9.35c-1.238,0-2.053,0.814-2.053,1.884c0,1.047,0.787,1.886,2.004,1.886
		h0.023c1.266,0,2.051-0.839,2.051-1.886C125.904,10.164,125.145,9.35,123.902,9.35z M122.064,25.514h3.625V14.607h-3.625V25.514z"
		/>
	<circle fill="#E95B2E" cx="205.309" cy="17.432" r="16.666"/>
	<g>
		<path fill="#FFFFFF" d="M198.611,24.729c-0.004,0.006-0.01,0.014-0.014,0.021c-0.006-0.004-0.011-0.009-0.011-0.013
			c0.001-0.015,0.011-0.018,0.021-0.009L198.611,24.729z"/>
		<path fill="#FFFFFF" d="M215.673,13.875c-0.228-1.072-0.847-1.85-1.905-2.228c-0.115-0.042-0.088-0.119-0.088-0.192
			c0.006-0.79-0.184-1.529-0.562-2.222c-0.438-0.802-1.04-1.416-1.948-1.667c-0.669-0.185-1.329-0.117-1.98,0.087
			c-0.062,0.02-0.11,0.044-0.181-0.003c-0.6-0.43-1.284-0.682-1.96-0.956c-0.179-0.073-0.404-0.097-0.418-0.366
			c-0.001-0.027-0.031-0.055-0.053-0.079c-0.161-0.189-0.367-0.31-0.602-0.387c-0.058-0.018-0.129-0.051-0.164-0.001
			c-0.037,0.048,0.033,0.093,0.062,0.134c0.2,0.278,0.158,0.492-0.144,0.667c-0.164,0.097-0.342,0.16-0.522,0.196
			c-0.83,0.161-1.629,0.421-2.413,0.731c-0.062,0.026-0.117,0.025-0.186-0.004c-0.826-0.375-1.691-0.451-2.582-0.292
			c-1.072,0.192-1.934,0.711-2.465,1.699c-0.41,0.764-0.568,1.589-0.582,2.448c-0.002,0.119-0.021,0.174-0.146,0.214
			c-0.439,0.141-0.822,0.389-1.132,0.739c-0.896,1.019-1.043,2.208-0.667,3.453c0.338,1.116,1.097,1.835,2.29,2.019
			c0.104,0.017,0.096,0.053,0.053,0.122c-0.13,0.21-0.254,0.426-0.505,0.519c-0.035,0.013-0.076,0.032-0.073,0.075
			c0.005,0.057,0.058,0.059,0.099,0.064c0.11,0.015,0.225,0.005,0.334-0.021c0.072-0.017,0.146-0.112,0.199-0.061
			c0.061,0.063-0.013,0.162-0.029,0.244c-0.008,0.036-0.023,0.071-0.039,0.106c-0.178,0.438-0.385,0.861-0.68,1.235
			c-0.029,0.037-0.082,0.083-0.054,0.124c0.038,0.05,0.104,0.015,0.146-0.01c0.144-0.076,0.285-0.151,0.423-0.237
			c0.136-0.086,0.264-0.186,0.399-0.284c0.066,0.797,0.127,1.579,0.334,2.339c0.182,0.657,0.437,1.29,0.648,1.934
			c0.078,0.237,0.145,0.471,0.021,0.714l0.002,0.002c0.129-0.016,0.229-0.094,0.316-0.172c0.079-0.066,0.118-0.07,0.188,0.021
			c0.354,0.493,0.781,0.925,1.266,1.299c0.068,0.054,0.12,0.12,0.16,0.195c0.289,0.538,0.629,1.038,1.062,1.469
			c0.078,0.082,0.139,0.17,0.186,0.277c0.17,0.407,0.453,0.708,0.85,0.909c0.383,0.192,0.792,0.262,1.213,0.289
			c0.547,0.034,1.096-0.005,1.643-0.007c0.557-0.003,1.021-0.198,1.361-0.64c0.271-0.347,0.572-0.649,0.936-0.903
			c0.363-0.261,0.672-0.593,0.967-0.946c0.121,0.203,0.218,0.405,0.41,0.585c-0.021-0.211-0.033-0.387,0.013-0.559
			c0.158-0.574,0.493-1.059,0.89-1.475c0.84-0.886,1.596-1.826,2.155-2.913c0.021-0.035,0.024-0.083,0.075-0.098
			c0.166,0.22,0.312,0.462,0.544,0.629c-0.073-0.234-0.146-0.465-0.157-0.706c-0.023-0.369-0.062-0.738,0.078-1.097
			c0.037-0.098,0.066-0.109,0.141-0.034c0.092,0.095,0.209,0.15,0.338,0.177c0.062,0.013,0.14,0.051,0.175-0.021
			c0.028-0.062-0.054-0.093-0.091-0.135c-0.236-0.265-0.362-0.575-0.297-0.926c0.119-0.651,0.209-1.303,0.185-1.966
			c-0.003-0.084,0.024-0.108,0.104-0.119c0.696-0.09,1.269-0.424,1.709-0.964C215.751,16.005,215.904,14.968,215.673,13.875z
			 M197.863,16.017c-0.01,0.064-0.065,0.029-0.104,0.017c-0.226-0.072-0.409-0.21-0.582-0.366c-0.069-0.063-0.14-0.127-0.231-0.209
			c-0.012,0.188,0.066,0.317,0.117,0.453c0.021,0.045,0.041,0.088,0.061,0.133c0.012,0.03,0.021,0.065-0.008,0.09
			c-0.028,0.027-0.062,0.007-0.094-0.003c-0.179-0.065-0.326-0.181-0.479-0.288c-0.09-0.062-0.172-0.14-0.314-0.178
			c0.119,0.274,0.274,0.477,0.489,0.635c0.246,0.182,0.528,0.284,0.825,0.343c0.13,0.025,0.163,0.082,0.129,0.209
			c-0.038,0.139-0.062,0.284-0.076,0.426c-0.012,0.093-0.051,0.111-0.138,0.105c-0.458-0.036-0.86-0.206-1.226-0.483
			c-1.482-1.137-1.422-3.635,0.119-4.687c0.19-0.13,0.396-0.236,0.637-0.303c0.021,0.199,0.029,0.381,0.058,0.561
			c0.015,0.083-0.034,0.116-0.083,0.157c-0.268,0.229-0.511,0.476-0.701,0.771c-0.091,0.139-0.164,0.285-0.174,0.485
			c0.105-0.075,0.166-0.165,0.232-0.243c0.207-0.233,0.404-0.476,0.717-0.583c0.081-0.028,0.105-0.023,0.13,0.064
			c0.197,0.753,0.472,1.482,0.767,2.202C198.025,15.565,197.896,15.788,197.863,16.017z M208.982,9.127
			c0.135-0.082,0.271-0.151,0.414-0.212c0.062-0.027,0.109-0.032,0.11,0.063c0.004,0.096,0.017,0.192,0.021,0.246
			c-0.006,0.219-0.01,0.396-0.08,0.562c-0.045,0.107-0.115,0.183-0.239,0.179c-0.116-0.004-0.181-0.084-0.22-0.185
			c-0.071-0.178-0.069-0.366-0.069-0.554C208.917,9.175,208.945,9.151,208.982,9.127z M203.637,8.172
			c0.051-0.066,0.152,0.031,0.221,0.076c0.524,0.346,0.965,0.783,1.351,1.281c0.03,0.042,0.063,0.083,0.103,0.125
			c0.01-0.008,0.021-0.017,0.027-0.024c-0.079-0.38-0.221-0.747-0.261-1.139c0.229,0.383,0.335,0.812,0.479,1.226
			c0.055,0,0.047-0.047,0.059-0.08c0.127-0.376,0.244-0.755,0.419-1.113c0.057-0.115,0.12-0.226,0.188-0.335
			c0.035-0.057,0.077-0.149,0.146-0.125c0.074,0.027,0.035,0.123,0.023,0.188c-0.041,0.2-0.084,0.399-0.134,0.597
			c-0.065,0.28-0.141,0.559-0.224,0.886c0.613-0.577,1.203-1.111,1.979-1.417c-0.004,0.076-0.05,0.099-0.084,0.121
			c-0.615,0.381-1.062,0.931-1.509,1.482c-0.071,0.087-0.142,0.176-0.218,0.259c-0.277,0.301-0.667,0.321-0.979,0.054
			c-0.104-0.092-0.201-0.199-0.258-0.327c-0.267-0.619-0.732-1.077-1.209-1.529C203.702,8.318,203.578,8.252,203.637,8.172z
			 M208.67,17.166c-0.02,0.072-0.04,0.104-0.119,0.058c-0.134-0.078-0.261-0.166-0.381-0.266c-0.027-0.025-0.059-0.049-0.059-0.092
			c-0.002-0.225-0.02-0.451,0.07-0.666c0.043-0.106,0.109-0.184,0.236-0.181c0.119,0.003,0.184,0.082,0.225,0.181
			c0.067,0.167,0.072,0.344,0.072,0.521C208.719,16.871,208.709,17.019,208.67,17.166z M206.568,17.708
			c-0.012,0.079-0.047,0.153-0.069,0.23c-0.041,0.134-0.099,0.106-0.169,0.021c-0.13-0.155-0.148-0.313-0.053-0.49
			c0.062-0.114,0.142-0.216,0.232-0.304c0.231-0.213,0.537-0.176,0.702,0.09c0.054,0.084,0.101,0.171,0.039,0.271
			c-0.06,0.099-0.155,0.1-0.25,0.112c-0.093-0.014-0.187-0.029-0.271-0.041C206.645,17.585,206.587,17.609,206.568,17.708z
			 M203.493,27.297c0.196-0.542,0.604-0.766,1.212-0.659c0.173,0.031,0.33,0.028,0.479-0.062c0.105-0.062,0.107,0.006,0.096,0.079
			c-0.021,0.133-0.062,0.261-0.131,0.379c-0.105,0.185-0.184,0.211-0.396,0.166c-0.252-0.056-0.502,0.001-0.752,0.024
			C203.837,27.238,203.674,27.269,203.493,27.297z M202.363,24.708c0.129-0.466,0.473-0.679,0.926-0.755
			c1.008-0.168,1.643,0.537,1.893,1.25c-0.486-0.113-0.967-0.146-1.451-0.053c-0.485,0.095-0.922,0.303-1.312,0.649
			C202.302,25.418,202.266,25.063,202.363,24.708z M200.05,16.74c0.011-0.216,0.013-0.377,0.075-0.53
			c0.042-0.105,0.104-0.188,0.229-0.192c0.129-0.003,0.199,0.076,0.235,0.183c0.111,0.329,0.103,0.662,0.017,0.995
			c-0.019,0.074-0.061,0.092-0.127,0.052c-0.037-0.021-0.076-0.041-0.115-0.055C200.116,17.11,199.994,16.953,200.05,16.74z
			 M203.523,22.701c0.459-0.268,0.646-0.675,0.629-1.195c-0.008-0.25,0-0.499,0-0.78c0.062,0.054,0.1,0.084,0.136,0.116
			c0.052,0.044,0.101,0.056,0.147-0.006c0.039-0.047,0.094-0.076,0.15-0.083c0.044-0.005,0.098-0.007,0.062,0.066
			c-0.157,0.39-0.188,0.812-0.301,1.213c-0.059,0.207-0.101,0.416-0.137,0.627c-0.031,0.197-0.098,0.249-0.296,0.273
			c-0.235,0.028-0.47,0.005-0.735-0.036C203.318,22.818,203.42,22.76,203.523,22.701z M203.129,17.262
			c0.171-0.274,0.475-0.313,0.711-0.092c0.079,0.074,0.146,0.158,0.202,0.25c0.155,0.252,0.118,0.44-0.133,0.624
			c-0.06-0.09-0.103-0.189-0.117-0.294c-0.021-0.141-0.101-0.175-0.229-0.147c-0.076,0.018-0.158,0.034-0.234,0.032
			C203.093,17.631,203.004,17.461,203.129,17.262z M205.127,18.888c-0.066,0.18-0.132,0.362-0.201,0.541
			c-0.014,0.038-0.041,0.071-0.062,0.105c-0.062-0.022-0.062-0.067-0.062-0.108c-0.021-0.218-0.04-0.436-0.055-0.655
			c-0.011-0.143-0.062-0.241-0.195-0.305c-0.059-0.029-0.136-0.064-0.133-0.146c0.005-0.085,0.09-0.104,0.149-0.122
			c0.168-0.047,0.271-0.165,0.357-0.304c0.045-0.072,0.086-0.148,0.129-0.222c0.051-0.083,0.096-0.097,0.145,0.006
			c0.13,0.288,0.285,0.551,0.58,0.704c0.021,0.011,0.051,0.029,0.045,0.06c-0.008,0.034-0.035,0.033-0.062,0.037
			c-0.049,0.008-0.097,0.023-0.144,0.023C205.352,18.499,205.213,18.66,205.127,18.888z M199.473,9.187
			c0.108-0.085,0.228-0.16,0.366-0.228c0.042,0.286,0.039,0.555-0.054,0.818c-0.037,0.105-0.109,0.188-0.234,0.188
			c-0.126-0.001-0.189-0.084-0.232-0.191c-0.004-0.015-0.01-0.03-0.016-0.045C199.208,9.435,199.227,9.376,199.473,9.187z
			 M198.203,11.594c0.085,0.158,0.052,0.509-0.077,0.762C198.126,12.076,198.159,11.846,198.203,11.594z M199.674,16.702
			c-0.262-0.241-0.463-0.497-0.637-0.772c-0.195-0.311-0.365-0.635-0.494-0.98c-0.029-0.08-0.031-0.146-0.001-0.229
			c0.12-0.324,0.119-0.653,0.001-0.978c-0.059-0.16-0.162-0.291-0.316-0.371c-0.049-0.025-0.072-0.054-0.074-0.109
			c-0.008-0.177-0.02-0.354-0.029-0.53c-0.004-0.058,0.021-0.083,0.07-0.106c0.201-0.088,0.324-0.255,0.375-0.458
			c0.104-0.403,0.108-0.799-0.17-1.147c-0.025-0.035-0.049-0.065-0.028-0.116c0.135-0.408,0.307-0.798,0.569-1.161
			c0.026,0.046,0.045,0.081,0.065,0.114c0.132,0.22,0.313,0.348,0.58,0.333c0.265-0.016,0.438-0.16,0.547-0.389
			c0.132-0.274,0.132-0.562,0.075-0.852c-0.023-0.116,0.01-0.134,0.105-0.151c0.205-0.034,0.404-0.033,0.607-0.013
			c0.096,0.009,0.141,0.039,0.137,0.148c-0.011,0.289-0.01,0.58,0,0.87c0.002,0.108-0.031,0.146-0.138,0.131
			c-0.042-0.006-0.086,0.003-0.128-0.002c-0.085-0.011-0.1,0.032-0.1,0.104c0.002,0.074,0.011,0.119,0.104,0.117
			c0.291-0.006,0.581-0.006,0.871,0c0.099,0.002,0.101-0.047,0.101-0.118c0.002-0.072-0.012-0.103-0.096-0.105
			c-0.262-0.007-0.262-0.012-0.262-0.269c0-0.236,0-0.473,0-0.722c0.396,0.123,0.977,0.591,1.229,0.995
			c-0.078,0-0.145,0.003-0.211-0.001c-0.08-0.005-0.127,0.002-0.127,0.106c0.004,0.097,0.039,0.132,0.123,0.111
			c0.342-0.08,0.494,0.114,0.633,0.385c0.787,1.536,0.965,3.128,0.486,4.791c-0.038,0.129-0.096,0.199-0.234,0.239
			c-0.422,0.118-0.723,0.407-0.974,0.754c-0.034,0.046-0.065,0.095-0.122,0.178c0-0.229-0.003-0.419,0.002-0.608
			c0.002-0.083-0.023-0.1-0.104-0.079c-0.172,0.047-0.342,0.093-0.516,0.125c-0.134,0.025-0.109,0.121-0.096,0.196
			c0.021,0.097,0.096,0.009,0.145,0.017c0.021,0.003,0.053-0.012,0.076-0.021c0.104-0.039,0.137-0.01,0.135,0.104
			c-0.008,0.328-0.006,0.656-0.002,0.983c0.002,0.085-0.022,0.124-0.107,0.142c-0.285,0.062-0.57,0.092-0.87,0.018
			c0.183-0.336,0.202-0.689,0.11-1.045c-0.098-0.378-0.379-0.577-0.731-0.53c-0.28,0.037-0.427,0.228-0.521,0.47
			C199.693,16.398,199.671,16.535,199.674,16.702z M212.63,13.236c-0.002,0.08-0.054,0.095-0.112,0.11
			c-0.146,0.035-0.291,0.078-0.438,0.104c-0.115,0.021-0.116,0.096-0.104,0.178c0.021,0.12,0.104,0.042,0.147,0.034
			c0.204-0.042,0.203-0.046,0.203,0.159c0,0.242-0.002,0.483,0.001,0.725c0.002,0.093-0.021,0.179-0.053,0.267
			c-0.021,0.076-0.062,0.097-0.143,0.096c-0.068,0-0.158-0.042-0.169,0.099c-0.009,0.15,0.093,0.109,0.181,0.124
			c-0.086,0.221-0.188,0.412-0.295,0.605c-0.033,0.059-0.08,0.081-0.141,0.095c-0.146,0.034-0.29,0.079-0.438,0.104
			c-0.125,0.022-0.125,0.105-0.104,0.189c0.022,0.095,0.095,0.023,0.144,0.024c0.067,0.001,0.151-0.083,0.197-0.007
			c0.047,0.078-0.033,0.147-0.084,0.21c-0.271,0.331-0.582,0.616-0.958,0.826c-0.055,0.031-0.112,0.057-0.2,0.101
			c0-0.103,0-0.179,0-0.256c0-0.365-0.004-0.73,0.002-1.095c0.002-0.104-0.015-0.146-0.133-0.108
			c-0.131,0.044-0.267,0.083-0.404,0.101c-0.168,0.021-0.205,0.102-0.153,0.251c0.015-0.001,0.026-0.001,0.045-0.004
			c0.286-0.057,0.286-0.057,0.287,0.23c0,0.289,0.001,0.58-0.001,0.87c0,0.042,0.021,0.117-0.051,0.117
			c-0.276,0.006-0.557,0.134-0.84,0.022c-0.021-0.01-0.051-0.018-0.086-0.031c0.19-0.361,0.217-0.737,0.086-1.116
			c-0.119-0.353-0.412-0.524-0.748-0.455c-0.236,0.049-0.369,0.223-0.479,0.446c-0.132-0.191-0.27-0.357-0.447-0.486
			c-0.037-0.027-0.053-0.09-0.07-0.14c-0.477-1.287-0.442-2.585-0.069-3.888c0.05-0.175,0.112-0.345,0.177-0.517
			c0.018-0.04,0.032-0.09,0.085-0.082c0.062,0.011,0.032,0.071,0.032,0.106c0.003,0.322,0.002,0.645,0.002,0.966
			c0,0.212,0,0.214-0.211,0.213c-0.088-0.001-0.16-0.004-0.146,0.121c0.008,0.07,0.026,0.092,0.096,0.091
			c0.291-0.002,0.58-0.003,0.871,0c0.08,0.001,0.103-0.031,0.101-0.104c-0.002-0.068-0.013-0.105-0.097-0.11
			c-0.262-0.015-0.262-0.02-0.262-0.289c0-0.381-0.006-0.763,0.002-1.144c0.004-0.139-0.023-0.191-0.168-0.129
			c-0.041,0.018-0.09,0.02-0.158,0.034c0.109-0.258,0.246-0.479,0.391-0.697c0.043-0.064,0.104-0.036,0.161-0.044
			c0.043-0.007,0.108,0.027,0.122-0.04c0.01-0.056,0.042-0.133-0.025-0.172c-0.035-0.021-0.054-0.025-0.021-0.061
			c0.119-0.136,0.229-0.281,0.387-0.397c0.044,0.148,0.072,0.29,0.152,0.412c0.262,0.396,0.789,0.405,1.047,0.009
			c0.193-0.297,0.201-0.63,0.131-0.962c-0.031-0.138,0.008-0.166,0.13-0.168c0.196-0.003,0.396,0.01,0.591,0.053
			c0.105,0.025,0.135,0.075,0.133,0.176c-0.009,0.252-0.013,0.505,0,0.757c0.008,0.139-0.024,0.2-0.174,0.175
			c-0.051-0.008-0.115-0.012-0.154,0.013c-0.047,0.03-0.021,0.099-0.02,0.149c0.001,0.065,0.057,0.053,0.098,0.053
			c0.282,0.001,0.567-0.002,0.854,0.002c0.084,0.001,0.11-0.024,0.11-0.11c0-0.08-0.019-0.111-0.104-0.112
			c-0.251-0.006-0.251-0.01-0.251-0.266c0-0.203,0-0.406,0-0.63c0.295,0.162,0.53,0.366,0.701,0.625
			c0.22,0.333,0.448,0.662,0.575,1.052c0.053,0.161,0.021,0.206-0.131,0.221c-0.059,0.006-0.112,0.029-0.172,0.041
			c-0.113,0.023-0.086,0.113-0.074,0.179c0.018,0.089,0.086,0.036,0.129,0.027c0.224-0.046,0.223-0.048,0.223,0.18
			c0,0.28,0,0.559,0,0.838c0,0.22,0,0.221-0.221,0.224c-0.067,0-0.143-0.015-0.139,0.099c0.002,0.08,0.021,0.116,0.107,0.113
			c0.146-0.006,0.301,0.003,0.447-0.003c0.097-0.004,0.145,0.016,0.133,0.122C212.645,12.915,212.634,13.075,212.63,13.236z
			 M214.354,16.93c-0.312,0.242-0.67,0.38-1.058,0.444c-0.097,0.016-0.146-0.003-0.151-0.118c-0.011-0.139-0.028-0.281-0.074-0.411
			c-0.053-0.156,0.01-0.203,0.146-0.236c0.45-0.106,0.826-0.327,1.076-0.729c0.036-0.057,0.086-0.111,0.075-0.212
			c-0.188,0.084-0.322,0.217-0.481,0.314c-0.088,0.052-0.179,0.099-0.27,0.144c-0.031,0.016-0.07,0.042-0.104,0.007
			c-0.031-0.031-0.017-0.071-0.004-0.106c0.066-0.173,0.164-0.336,0.182-0.536c-0.075-0.004-0.105,0.052-0.146,0.088
			c-0.17,0.158-0.344,0.31-0.559,0.406c-0.051,0.023-0.114,0.088-0.172,0.014c-0.047-0.06-0.064-0.125-0.035-0.209
			c0.109-0.303,0.203-0.611,0.312-0.914c0.197-0.547,0.319-1.111,0.404-1.686c0.021-0.133,0.062-0.147,0.174-0.098
			c0.253,0.115,0.431,0.318,0.604,0.519c0.076,0.086,0.148,0.174,0.25,0.29c0.015-0.199-0.058-0.326-0.129-0.449
			c-0.188-0.306-0.433-0.562-0.701-0.792c-0.077-0.066-0.106-0.135-0.088-0.237c0.022-0.121,0.041-0.244,0.045-0.366
			c0.002-0.128,0.047-0.138,0.15-0.094c0.639,0.265,1.084,0.723,1.379,1.336C215.785,14.562,215.438,16.092,214.354,16.93z"/>
		<path fill="#FFFFFF" d="M200.05,16.74c0.011-0.216,0.013-0.377,0.075-0.53c0.042-0.105,0.104-0.188,0.229-0.192
			c0.129-0.003,0.199,0.076,0.235,0.183c0.111,0.329,0.103,0.662,0.017,0.995c-0.019,0.074-0.061,0.092-0.127,0.052
			c-0.037-0.021-0.076-0.041-0.115-0.055C200.116,17.11,199.994,16.953,200.05,16.74z"/>
		<path fill="#FFFFFF" d="M208.719,16.721c0,0.15-0.01,0.298-0.049,0.445c-0.02,0.072-0.04,0.104-0.119,0.058
			c-0.134-0.078-0.261-0.166-0.381-0.266c-0.027-0.025-0.059-0.049-0.059-0.092c-0.002-0.225-0.02-0.451,0.07-0.666
			c0.043-0.106,0.109-0.184,0.236-0.181c0.119,0.003,0.184,0.082,0.225,0.181C208.714,16.366,208.719,16.543,208.719,16.721z"/>
		<path fill="#FFFFFF" d="M209.527,9.224c-0.006,0.219-0.01,0.396-0.08,0.562c-0.045,0.107-0.115,0.183-0.239,0.179
			c-0.116-0.004-0.181-0.084-0.22-0.185c-0.071-0.178-0.069-0.366-0.069-0.554c0-0.051,0.026-0.075,0.063-0.099
			c0.135-0.082,0.271-0.151,0.414-0.212c0.062-0.027,0.109-0.032,0.11,0.063C209.512,9.074,209.523,9.169,209.527,9.224z"/>
		<path fill="#FFFFFF" d="M199.839,8.959c0.042,0.286,0.039,0.555-0.054,0.818c-0.037,0.105-0.109,0.188-0.234,0.188
			c-0.126-0.001-0.189-0.084-0.232-0.191c-0.004-0.015-0.01-0.03-0.016-0.045c-0.095-0.294-0.076-0.353,0.17-0.542
			C199.581,9.102,199.698,9.027,199.839,8.959z"/>
		<path fill="#FFFFFF" d="M198.126,12.355c0-0.279,0.033-0.51,0.077-0.762C198.288,11.752,198.255,12.103,198.126,12.355z"/>
		<path fill="#FFFFFF" d="M211.52,11.764c-0.008,0.224-0.041,0.455-0.188,0.656c-0.255,0.349-0.746,0.349-1.002-0.001
			c-0.246-0.338-0.251-0.985-0.014-1.328c0.259-0.367,0.77-0.366,1.021,0C211.48,11.288,211.514,11.515,211.52,11.764z
			 M210.529,11.742c-0.002,0.178,0,0.355,0.07,0.523c0.041,0.099,0.102,0.18,0.221,0.183c0.129,0.002,0.201-0.073,0.236-0.182
			c0.112-0.341,0.107-0.685,0.008-1.027c-0.035-0.11-0.107-0.192-0.23-0.192c-0.122,0-0.191,0.081-0.234,0.189
			C210.532,11.399,210.529,11.57,210.529,11.742z"/>
		<path fill="#FFFFFF" d="M211.52,14.229c-0.008,0.21-0.031,0.416-0.142,0.603c-0.259,0.443-0.831,0.458-1.083,0.011
			c-0.227-0.4-0.227-0.827,0.003-1.226c0.249-0.436,0.822-0.421,1.077,0.01C211.468,13.786,211.518,13.993,211.52,14.229z
			 M211.137,14.303c0-0.221-0.007-0.382-0.057-0.537c-0.039-0.122-0.1-0.232-0.251-0.231c-0.153,0.001-0.22,0.113-0.249,0.235
			c-0.078,0.307-0.078,0.617-0.001,0.924c0.028,0.121,0.091,0.237,0.243,0.239c0.158,0,0.22-0.117,0.26-0.244
			C211.129,14.544,211.134,14.394,211.137,14.303z"/>
		<path fill="#FFFFFF" d="M209.906,11.753c-0.006,0.234-0.039,0.459-0.182,0.657c-0.258,0.361-0.75,0.363-1.012,0.005
			c-0.246-0.34-0.248-0.984-0.006-1.328c0.255-0.36,0.753-0.362,1.016-0.006C209.844,11.247,209.91,11.487,209.906,11.753z
			 M208.918,11.755c-0.001,0.167,0.001,0.334,0.062,0.492c0.043,0.11,0.104,0.203,0.24,0.201c0.129-0.002,0.195-0.087,0.229-0.193
			c0.104-0.337,0.104-0.676,0.001-1.013c-0.033-0.111-0.104-0.193-0.229-0.195c-0.133-0.002-0.199,0.087-0.242,0.201
			C208.92,11.412,208.917,11.583,208.918,11.755z"/>
		<path fill="#FFFFFF" d="M209.466,14.119c0,0.182,0,0.364,0,0.547c0,0.233,0,0.238,0.231,0.236c0.102,0,0.131,0.032,0.123,0.129
			c-0.002,0.066-0.02,0.095-0.09,0.094c-0.295-0.003-0.59-0.004-0.885,0.001c-0.09,0.001-0.095-0.042-0.092-0.108
			c0.002-0.062-0.003-0.109,0.087-0.116c0.261-0.018,0.261-0.023,0.261-0.292c0-0.257,0-0.515,0-0.771
			c0-0.22-0.002-0.226-0.209-0.168c-0.123,0.034-0.146-0.004-0.141-0.117c0.005-0.062,0.03-0.084,0.082-0.097
			c0.18-0.043,0.354-0.087,0.53-0.133c0.083-0.022,0.1,0.013,0.099,0.088C209.465,13.647,209.466,13.883,209.466,14.119z"/>
		<path fill="#FFFFFF" d="M207.855,14.122c0,0.193,0.013,0.387-0.004,0.579c-0.016,0.166,0.037,0.234,0.205,0.206
			c0.096-0.016,0.17-0.005,0.153,0.127c-0.007,0.07-0.022,0.093-0.094,0.092c-0.298-0.002-0.593-0.004-0.888,0.001
			c-0.092,0.001-0.088-0.048-0.088-0.111c0-0.064,0.002-0.107,0.09-0.113c0.27-0.017,0.27-0.021,0.27-0.285
			c0-0.295-0.004-0.589,0.001-0.885c0.002-0.092-0.021-0.13-0.11-0.092c-0.035,0.013-0.074,0.028-0.107,0.026
			c-0.045-0.001-0.113,0.07-0.129-0.017c-0.014-0.067-0.051-0.165,0.074-0.192c0.178-0.041,0.354-0.084,0.527-0.131
			c0.09-0.023,0.102,0.016,0.1,0.089C207.854,13.649,207.855,13.885,207.855,14.122z"/>
		<path fill="#FFFFFF" d="M201.85,14.235c0,0.211-0.029,0.417-0.141,0.603c-0.257,0.435-0.832,0.449-1.077,0.009
			c-0.229-0.407-0.229-0.839,0.011-1.243c0.246-0.42,0.811-0.405,1.062,0.013C201.818,13.807,201.854,14.017,201.85,14.235z
			 M201.479,14.233c-0.012-0.167-0.014-0.339-0.074-0.501c-0.043-0.111-0.106-0.202-0.242-0.198
			c-0.126,0.003-0.195,0.088-0.229,0.196c-0.104,0.337-0.104,0.677,0.002,1.014c0.031,0.11,0.104,0.191,0.229,0.19
			c0.125,0,0.189-0.083,0.232-0.188C201.464,14.583,201.465,14.41,201.479,14.233z"/>
		<path fill="#FFFFFF" d="M202.088,14.234c0-0.206,0.029-0.407,0.135-0.589c0.119-0.21,0.293-0.338,0.545-0.34
			c0.256-0.002,0.446,0.116,0.562,0.34c0.192,0.395,0.198,0.802-0.011,1.189c-0.236,0.445-0.811,0.447-1.074,0.017
			C202.141,14.692,202.088,14.476,202.088,14.234z M202.471,14.227c0.004,0.177,0.006,0.354,0.073,0.522
			c0.04,0.1,0.101,0.181,0.22,0.185c0.127,0.005,0.204-0.07,0.239-0.179c0.114-0.346,0.114-0.696,0-1.043
			c-0.034-0.105-0.108-0.176-0.226-0.179c-0.125-0.001-0.19,0.081-0.234,0.186C202.477,13.882,202.475,14.054,202.471,14.227z"/>
		<path fill="#FFFFFF" d="M200.48,11.795c-0.004-0.306,0.045-0.543,0.207-0.748c0.236-0.302,0.688-0.308,0.939-0.015
			c0.307,0.356,0.303,1.089-0.007,1.443c-0.243,0.278-0.687,0.273-0.922-0.01C200.55,12.286,200.48,12.059,200.48,11.795z
			 M200.859,11.751c0.007,0.166,0.004,0.343,0.072,0.51c0.043,0.104,0.104,0.189,0.23,0.188c0.127-0.002,0.195-0.083,0.229-0.189
			c0.108-0.34,0.108-0.683,0.002-1.024c-0.035-0.11-0.107-0.188-0.23-0.188s-0.188,0.083-0.23,0.189
			C200.866,11.399,200.865,11.57,200.859,11.751z"/>
		<path fill="#FFFFFF" d="M202.667,11.126c-0.083,0.021-0.153,0.044-0.228,0.054c-0.041,0.006-0.11,0.068-0.125-0.024
			c-0.01-0.07-0.039-0.162,0.084-0.188c0.175-0.036,0.347-0.08,0.517-0.128c0.097-0.028,0.112,0.004,0.112,0.097
			c-0.004,0.434,0.008,0.868-0.006,1.302c-0.006,0.161,0.043,0.208,0.191,0.186c0.092-0.013,0.188-0.024,0.167,0.127
			c-0.009,0.061-0.021,0.083-0.085,0.083c-0.301-0.002-0.604-0.004-0.898,0c-0.094,0.002-0.084-0.054-0.086-0.115
			c-0.002-0.063,0.01-0.094,0.086-0.1c0.271-0.021,0.271-0.026,0.271-0.299C202.667,11.796,202.667,11.469,202.667,11.126z"/>
		<path fill="#FFFFFF" d="M199.805,11.62c0,0.209,0.01,0.419-0.005,0.627c-0.011,0.152,0.044,0.192,0.187,0.178
			c0.08-0.008,0.191-0.042,0.179,0.119c-0.011,0.068-0.022,0.093-0.097,0.092c-0.295-0.003-0.59-0.004-0.885,0
			c-0.084,0.002-0.096-0.037-0.096-0.104c0-0.069,0.012-0.104,0.094-0.109c0.264-0.014,0.262-0.018,0.262-0.29
			c0-0.294-0.002-0.589,0.004-0.884c0-0.091-0.016-0.132-0.11-0.092c-0.035,0.014-0.071,0.029-0.106,0.026
			c-0.045-0.003-0.121,0.083-0.133-0.032c-0.01-0.075-0.027-0.16,0.094-0.183c0.174-0.034,0.345-0.081,0.516-0.128
			c0.09-0.024,0.107,0.005,0.105,0.09C199.8,11.159,199.805,11.39,199.805,11.62z"/>
		<path fill="#FFFFFF" d="M199.805,14.112c0,0.226,0.004,0.451-0.003,0.676c-0.002,0.087,0.019,0.131,0.113,0.118
			c0.047-0.006,0.099,0.004,0.146-0.002c0.101-0.012,0.103,0.044,0.104,0.118c0.001,0.07-0.012,0.105-0.098,0.104
			c-0.295-0.006-0.59-0.006-0.885,0c-0.088,0.001-0.096-0.04-0.093-0.107c0.002-0.061-0.005-0.109,0.087-0.116
			c0.27-0.02,0.27-0.024,0.27-0.3c0-0.29-0.004-0.58,0.004-0.87c0-0.088-0.016-0.134-0.111-0.094
			c-0.033,0.014-0.072,0.029-0.105,0.026c-0.045-0.005-0.123,0.085-0.135-0.031c-0.01-0.076-0.023-0.159,0.096-0.182
			c0.168-0.032,0.334-0.076,0.5-0.123c0.09-0.026,0.121-0.011,0.119,0.09C199.799,13.65,199.805,13.88,199.805,14.112z"/>
		<path fill="#FFFFFF" d="M205.334,9.629c0.014,0.023,0.021,0.046,0.003,0.071c-0.011-0.016-0.021-0.031-0.032-0.047
			C205.314,9.645,205.324,9.637,205.334,9.629z"/>
		<path fill="#FFFFFF" d="M210.529,11.742c0-0.172,0.005-0.343,0.068-0.506c0.043-0.108,0.11-0.189,0.232-0.189
			c0.123,0,0.193,0.082,0.229,0.192c0.104,0.342,0.106,0.687-0.008,1.027c-0.035,0.109-0.109,0.185-0.236,0.182
			c-0.117-0.002-0.18-0.083-0.221-0.183C210.529,12.097,210.527,11.92,210.529,11.742z"/>
		<path fill="#FFFFFF" d="M211.137,14.303c-0.003,0.091-0.008,0.241-0.055,0.386c-0.04,0.127-0.102,0.244-0.26,0.244
			c-0.152-0.002-0.215-0.118-0.243-0.239c-0.077-0.307-0.077-0.617,0.001-0.924c0.029-0.123,0.096-0.234,0.249-0.235
			c0.151-0.001,0.212,0.109,0.251,0.231C211.13,13.921,211.137,14.082,211.137,14.303z"/>
		<path fill="#FFFFFF" d="M208.918,11.755c-0.001-0.172,0.002-0.343,0.062-0.507c0.043-0.114,0.108-0.204,0.242-0.201
			c0.123,0.002,0.193,0.084,0.229,0.195c0.104,0.337,0.104,0.676-0.001,1.013c-0.033,0.106-0.104,0.19-0.229,0.193
			c-0.138,0.002-0.197-0.09-0.24-0.201C208.919,12.089,208.917,11.922,208.918,11.755z"/>
		<path fill="#FFFFFF" d="M201.479,14.233c-0.014,0.177-0.015,0.35-0.08,0.512c-0.043,0.106-0.106,0.188-0.231,0.188
			c-0.128,0.001-0.196-0.08-0.229-0.19c-0.104-0.337-0.104-0.677-0.002-1.014c0.03-0.107,0.104-0.192,0.229-0.196
			c0.136-0.004,0.201,0.087,0.244,0.198C201.465,13.894,201.467,14.066,201.479,14.233z"/>
		<path fill="#FFFFFF" d="M202.471,14.226c0.004-0.171,0.006-0.343,0.072-0.507c0.044-0.104,0.109-0.188,0.234-0.186
			c0.115,0.002,0.188,0.074,0.226,0.179c0.114,0.347,0.114,0.697,0,1.043c-0.035,0.108-0.112,0.184-0.239,0.179
			c-0.119-0.004-0.18-0.084-0.22-0.185C202.477,14.581,202.475,14.404,202.471,14.226z"/>
		<path fill="#FFFFFF" d="M200.859,11.751c0.007-0.181,0.009-0.353,0.072-0.516c0.043-0.106,0.107-0.189,0.23-0.189
			s0.195,0.078,0.23,0.188c0.106,0.341,0.106,0.684-0.002,1.024c-0.033,0.106-0.104,0.187-0.229,0.189
			c-0.129,0.002-0.188-0.083-0.23-0.188C200.863,12.095,200.865,11.917,200.859,11.751z"/>
	</g>
	<g>
		<circle fill="#E95B2E" cx="280.309" cy="17.432" r="16.666"/>
		<g>
			<polygon fill="#FFFFFF" points="288.898,17.863 280.309,7.842 271.719,17.863 273.866,17.863 273.866,25.022 278.161,25.022 
				278.161,19.296 282.456,19.296 282.456,25.022 286.751,25.022 286.751,17.863 			"/>
		</g>
	</g>
	<g>
		<circle fill="#E95B2E" cx="317.809" cy="17.432" r="16.666"/>
		<g>
			<path fill="#FFFFFF" d="M326.314,12.571h-17.013v12.151h17.013V12.571L326.314,12.571z"/>
			<rect x="310.822" y="11.356" fill="#FFFFFF" width="13.974" height="0.607"/>
			<rect x="312.036" y="10.142" fill="#FFFFFF" width="11.545" height="0.607"/>
		</g>
	</g>
	<g>
		<defs>
			<circle id="SVGID_1_" cx="355" cy="17.432" r="16.666"/>
		</defs>
		<clipPath id="SVGID_2_">
			<use xlink:href="#SVGID_1_"  overflow="visible"/>
		</clipPath>
		<g clip-path="url(#SVGID_2_)">
			<rect x="360.429" y="-1.506" fill="#ED2939" width="11.099" height="35.875"/>
			<rect x="349.331" y="-1.506" fill="#FFFFFF" width="11.098" height="35.875"/>
			<rect x="338.232" y="-1.506" fill="#002395" width="11.099" height="35.875"/>
		</g>
	</g>
	<g>
		<defs>
			<circle id="SVGID_3_" cx="392.301" cy="17.432" r="16.666"/>
		</defs>
		<clipPath id="SVGID_4_">
			<use xlink:href="#SVGID_3_"  overflow="visible"/>
		</clipPath>
		<g clip-path="url(#SVGID_4_)">
			<rect x="451.479" y="0.709" fill="#ED2939" width="11.099" height="35.875"/>
			<rect x="440.382" y="0.709" fill="#FFFFFF" width="11.098" height="35.875"/>
			<rect x="429.283" y="0.709" fill="#002395" width="11.099" height="35.875"/>
		</g>
		<g clip-path="url(#SVGID_4_)">
			<defs>
				<rect id="SVGID_5_" x="356.253" y="0.846" width="72.601" height="33.257"/>
			</defs>
			<clipPath id="SVGID_6_">
				<use xlink:href="#SVGID_5_"  overflow="visible"/>
			</clipPath>
			<rect x="356.253" y="0.846" clip-path="url(#SVGID_6_)" fill="#00247D" width="72.601" height="33.257"/>
			<g clip-path="url(#SVGID_6_)">
				<path d="M372.072,0.846l40.962,33.257 M413.034,0.846l-40.962,33.257"/>
				<polygon fill="#FFFFFF" points="412.495,37.216 392.553,21.026 372.611,37.216 371.533,30.989 388.179,17.475 371.533,3.961 
					372.611,-2.269 392.553,13.922 412.495,-2.269 413.574,3.961 396.929,17.475 413.574,30.989 				"/>
			</g>
			<polygon clip-path="url(#SVGID_6_)" fill="none" points="392.553,17.475 428.854,17.475 428.854,34.104 392.553,34.104 
				356.253,34.104 356.253,17.475 356.253,0.846 392.553,0.846 428.854,0.846 			"/>
			<g clip-path="url(#SVGID_6_)">
				<path d="M392.553,0.846v33.257 M371.666,17.475h41.774"/>
				<polygon fill="#FFFFFF" points="395.164,34.104 389.943,34.104 389.943,23.017 371.666,23.017 371.666,11.933 389.943,11.933 
					389.943,0.846 395.164,0.846 395.164,11.933 413.44,11.933 413.44,23.017 395.164,23.017 				"/>
			</g>
			<g clip-path="url(#SVGID_6_)">
				<path d="M392.553,0.846v33.257 M356.253,17.475h72.601"/>
				<polygon fill="#CF142B" points="393.825,34.104 391.28,34.104 391.28,20.801 375.574,20.801 375.574,14.149 391.28,14.149 
					391.28,0.846 393.825,0.846 393.825,14.149 409.532,14.149 409.532,20.801 393.825,20.801 				"/>
			</g>
			<g clip-path="url(#SVGID_6_)">
				<path d="M372.396,0.846l40.313,33.257 M412.71,0.846l-40.313,33.257"/>
				<polygon fill="#CF142B" points="412.355,36.178 392.553,19.843 372.749,36.178 372.042,32.026 389.682,17.475 372.042,2.923 
					372.749,-1.229 392.553,15.107 412.355,-1.229 413.063,2.923 395.424,17.475 413.063,32.026 				"/>
			</g>
		</g>
	</g>
	<g>
		<path fill="#FFFFFF" d="M166.304,15.088c-0.799-0.476-1.734-0.765-2.686-0.765c-1.835,0-3.025,1.241-3.025,3.247
			c0,2.023,1.122,3.297,3.042,3.297c1.037,0,2.006-0.34,2.805-0.867l0.561,2.397c-0.833,0.459-2.244,0.765-3.485,0.765
			c-3.399,0-5.643-1.955-5.643-5.524c0-3.434,2.227-5.609,5.729-5.609c1.292,0,2.549,0.323,3.519,0.799L166.304,15.088z"/>
		<path fill="#FFFFFF" d="M174.686,22.908h-3.383l-3.587-10.624h2.788l2.516,8.006l2.5-8.006h2.82L174.686,22.908z"/>
	</g>
	<g>
		<circle fill="#E95B2E" cx="242.809" cy="17.432" r="16.666"/>
		<path fill="#FFFFFF" d="M252.602,19.388v-3.917h-2.184c-0.173-0.734-0.454-1.427-0.82-2.065l1.52-1.515l-2.77-2.769l-1.484,1.484
			c-0.643-0.393-1.346-0.688-2.096-0.882V7.638h-3.916v2.086c-0.752,0.194-1.455,0.494-2.097,0.882l-1.485-1.484l-2.769,2.769
			l1.519,1.515c-0.365,0.638-0.642,1.331-0.819,2.065h-2.183v3.917h2.248c0.193,0.699,0.485,1.356,0.853,1.969l-1.616,1.616
			l2.77,2.77l1.646-1.648c0.598,0.348,1.25,0.607,1.934,0.786v2.346h3.916V24.88c0.688-0.178,1.336-0.438,1.935-0.786l1.646,1.648
			l2.771-2.77l-1.611-1.616c0.368-0.607,0.657-1.265,0.853-1.969L252.602,19.388L252.602,19.388z M242.809,20.173
			c-1.516,0-2.738-1.229-2.738-2.743c0-1.515,1.224-2.744,2.738-2.744c1.516,0,2.744,1.229,2.744,2.744
			C245.553,18.944,244.324,20.173,242.809,20.173z"/>
	</g>
</g>
<g>
	<g>
		<defs>
			<circle id="SVGID_7_" cx="392.361" cy="55.551" r="16.666"/>
		</defs>
		<clipPath id="SVGID_8_">
			<use xlink:href="#SVGID_7_"  overflow="visible"/>
		</clipPath>
		<g clip-path="url(#SVGID_8_)">
			<rect x="451.54" y="38.828" fill="#ED2939" width="11.099" height="35.875"/>
			<rect x="440.442" y="38.828" fill="#FFFFFF" width="11.098" height="35.875"/>
			<rect x="429.344" y="38.828" fill="#002395" width="11.099" height="35.875"/>
		</g>
		<g clip-path="url(#SVGID_8_)">
			<defs>
				<rect id="SVGID_9_" x="356.313" y="38.965" width="72.601" height="33.258"/>
			</defs>
			<clipPath id="SVGID_10_">
				<use xlink:href="#SVGID_9_"  overflow="visible"/>
			</clipPath>
			<rect x="356.313" y="38.965" clip-path="url(#SVGID_10_)" fill="#00247D" width="72.601" height="33.258"/>
			<g clip-path="url(#SVGID_10_)">
				<path d="M372.133,38.965l40.962,33.258 M413.095,38.965l-40.962,33.258"/>
				<polygon fill="#FFFFFF" points="412.556,75.334 392.613,59.145 372.672,75.334 371.594,69.107 388.239,55.594 371.594,42.08 
					372.672,35.85 392.613,52.041 412.556,35.85 413.635,42.08 396.989,55.594 413.635,69.107 				"/>
			</g>
			<polygon clip-path="url(#SVGID_10_)" fill="none" points="392.613,55.594 428.914,55.594 428.914,72.223 392.613,72.223 
				356.313,72.223 356.313,55.594 356.313,38.965 392.613,38.965 428.914,38.965 			"/>
			<g clip-path="url(#SVGID_10_)">
				<path d="M392.613,38.965v33.258 M371.727,55.594h41.774"/>
				<polygon fill="#FFFFFF" points="395.225,72.223 390.004,72.223 390.004,61.136 371.727,61.136 371.727,50.051 390.004,50.051 
					390.004,38.965 395.225,38.965 395.225,50.051 413.501,50.051 413.501,61.136 395.225,61.136 				"/>
			</g>
			<g clip-path="url(#SVGID_10_)">
				<path d="M392.613,38.965v33.258 M356.313,55.594h72.601"/>
				<polygon fill="#CF142B" points="393.886,72.223 391.341,72.223 391.341,58.92 375.635,58.92 375.635,52.268 391.341,52.268 
					391.341,38.965 393.886,38.965 393.886,52.268 409.593,52.268 409.593,58.92 393.886,58.92 				"/>
			</g>
			<g clip-path="url(#SVGID_10_)">
				<path d="M372.457,38.965l40.313,33.258 M412.771,38.965l-40.313,33.258"/>
				<polygon fill="#CF142B" points="412.416,74.297 392.613,57.961 372.81,74.297 372.103,70.145 389.742,55.594 372.103,41.041 
					372.81,36.89 392.613,53.226 412.416,36.89 413.124,41.041 395.484,55.594 413.124,70.145 				"/>
			</g>
		</g>
	</g>
	<circle fill="none" stroke="#E95B2E" stroke-miterlimit="10" cx="17.808" cy="55.932" r="16.666"/>
	<circle fill="none" stroke="#E95B2E" stroke-miterlimit="10" cx="55.308" cy="55.932" r="16.666"/>
	<circle fill="none" stroke="#E95B2E" stroke-miterlimit="10" cx="92.809" cy="55.932" r="16.666"/>
	<circle fill="none" stroke="#E95B2E" stroke-miterlimit="10" cx="130.309" cy="55.932" r="16.666"/>
	<circle fill="none" stroke="#E95B2E" stroke-miterlimit="10" cx="167.809" cy="55.932" r="16.666"/>
	<circle fill="none" stroke="#E95B2E" stroke-miterlimit="10" cx="205.309" cy="55.932" r="16.666"/>
	<path id="Facebook_1_" fill="#E95B2E" d="M15.627,50.891c0,0.414,0,2.271,0,2.271h-1.66v2.771h1.66v8.231h3.411V55.93h2.288
		c0,0,0.215-1.328,0.315-2.781c-0.298,0-2.594,0-2.594,0s0-1.606,0-1.896c0-0.282,0.372-0.664,0.738-0.664c0.364,0,1.143,0,1.856,0
		c0-0.377,0-1.684,0-2.885c-0.958,0-2.046,0-2.523,0C15.544,47.701,15.627,50.477,15.627,50.891z"/>
	<path id="Github__x28_alt_x29__1_" fill="#E95B2E" d="M97.568,47.998c0.271,0.609,0.445,1.625,0.188,2.368
		c1.062,0.909,1.429,3.116,0.915,4.921c1.516,0.115,3.321-0.057,4.483,0.41c-1.09-0.141-2.574-0.416-3.98-0.32
		c-0.266,0.02-0.659-0.01-0.641,0.365c1.627,0.127,3.24,0.267,4.576,0.684c-1.321-0.217-2.934-0.547-4.576-0.592
		c-0.684,1.342-2.053,2.001-3.938,2.141c0.203,0.441,0.592,0.609,0.688,1.32c0.143,1.062-0.225,2.617,0.137,3.325
		c0.172,0.339,0.452,0.349,0.642,0.638c-0.463,0.549-1.605-0.061-1.74-0.638c-0.223-0.987,0.344-2.519-0.271-3.188
		c0.043,1.077-0.255,2.59,0.046,3.553c0.117,0.386,0.46,0.525,0.365,0.865c-2.149,0.219-1.252-2.783-1.604-4.555
		c-0.322,0.023-0.182,0.486-0.182,0.684c-0.011,1.73,0.354,4.104-1.512,3.871c-0.058-0.363,0.251-0.479,0.362-0.812
		c0.344-0.979-0.062-2.431,0.097-3.604c-0.713,0.536,0.071,2.409-0.367,3.371c-0.254,0.553-1.072,0.793-1.693,0.547
		c0.082-0.412,0.506-0.347,0.688-0.729c0.253-0.534,0.002-1.307,0.092-2.098c-1.317,0.265-2.34-0.039-2.84-0.863
		c-0.227-0.372-0.279-0.812-0.55-1.141c-0.271-0.33-0.698-0.375-0.822-0.817c1.631-0.396,1.69,1.68,3.159,1.729
		c0.445,0.018,0.684-0.135,1.099-0.229c0.116-0.521,0.365-0.913,0.732-1.188c-1.823-0.25-3.329-0.813-4.029-2.188
		c-1.658,0.081-3.175,0.303-4.581,0.637c1.276-0.463,2.851-0.629,4.535-0.684c-0.104-0.6-0.975-0.438-1.514-0.41
		c-1.006,0.045-2.271,0.17-3.065,0.318c1.157-0.414,2.782-0.359,4.352-0.363c-0.479-1.506-0.312-3.895,0.73-4.783
		c-0.295-0.747-0.203-1.969,0.186-2.551c1.168,0.052,1.875,0.562,2.608,1.048c0.91-0.259,1.866-0.39,3.114-0.317
		c0.521,0.027,1.065,0.27,1.464,0.229c0.39-0.035,0.812-0.476,1.189-0.642C96.596,48.102,97.01,48.018,97.568,47.998z"/>
	<path id="Twitter__x28_alt_x29__1_" fill="#E95B2E" d="M64.215,55.053c1.295-0.107,2.172-0.695,2.51-1.492
		c-0.467,0.285-1.916,0.604-2.715,0.301c-0.039-0.188-0.084-0.36-0.127-0.521c-0.609-2.24-2.695-4.047-4.883-3.828
		c0.176-0.07,0.354-0.139,0.533-0.195c0.239-0.088,1.651-0.312,1.432-0.812c-0.188-0.438-1.912,0.331-2.236,0.437
		c0.431-0.161,1.14-0.438,1.213-0.936c-0.655,0.092-1.303,0.396-1.801,0.854c0.18-0.189,0.316-0.433,0.346-0.687
		c-1.754,1.119-2.774,3.377-3.604,5.563c-0.65-0.631-1.229-1.127-1.744-1.399c-1.451-0.774-3.186-1.59-5.91-2.604
		c-0.082,0.899,0.447,2.104,1.974,2.896c-0.33-0.044-0.937,0.057-1.416,0.17c0.192,1.033,0.838,1.885,2.575,2.295
		c-0.795,0.055-1.207,0.232-1.575,0.623c0.358,0.719,1.243,1.562,2.834,1.391c-1.769,0.768-0.722,2.179,0.719,1.963
		c-2.453,2.533-6.322,2.353-8.543,0.229c5.801,7.902,18.406,4.677,20.285-2.938c1.405,0.017,2.231-0.482,2.748-1.035
		C66.014,55.454,64.838,55.312,64.215,55.053z"/>
	<path id="LinkedIn_1_" fill="#E95B2E" d="M138.766,57.76v6.254h-3.625V58.18c0-1.467-0.521-2.467-1.836-2.467
		c-1.002,0-1.6,0.674-1.861,1.326c-0.096,0.232-0.118,0.559-0.118,0.884v6.091h-3.63c0,0,0.053-9.883,0-10.906h3.63v1.545
		c-0.009,0.019-0.019,0.025-0.022,0.037h0.022v-0.037c0.479-0.734,1.343-1.801,3.27-1.801
		C136.979,52.852,138.766,54.41,138.766,57.76z M123.902,47.85c-1.238,0-2.053,0.814-2.053,1.885c0,1.053,0.787,1.892,2.004,1.892
		h0.023c1.266,0,2.051-0.839,2.051-1.892C125.904,48.664,125.145,47.85,123.902,47.85z M122.064,64.014h3.625V53.107h-3.625V64.014z
		"/>
	<g>
		<path fill="#E95B2E" d="M198.611,63.229c-0.004,0.008-0.01,0.018-0.014,0.021c-0.006-0.005-0.011-0.01-0.011-0.014
			c0.001-0.019,0.011-0.021,0.021-0.01L198.611,63.229z"/>
		<path fill="#E95B2E" d="M215.673,52.375c-0.228-1.072-0.847-1.85-1.905-2.227c-0.115-0.043-0.088-0.119-0.088-0.193
			c0.006-0.789-0.184-1.529-0.562-2.223c-0.438-0.801-1.04-1.414-1.948-1.666c-0.669-0.188-1.329-0.117-1.98,0.088
			c-0.062,0.02-0.11,0.044-0.181-0.004c-0.6-0.434-1.284-0.686-1.96-0.957c-0.179-0.072-0.404-0.096-0.418-0.365
			c-0.001-0.026-0.031-0.055-0.053-0.078c-0.161-0.189-0.367-0.311-0.602-0.389c-0.058-0.021-0.129-0.051-0.164,0
			c-0.037,0.049,0.033,0.093,0.062,0.134c0.2,0.278,0.158,0.491-0.144,0.667c-0.164,0.098-0.342,0.16-0.522,0.195
			c-0.83,0.162-1.629,0.422-2.413,0.729c-0.062,0.025-0.117,0.023-0.186-0.004c-0.826-0.376-1.691-0.451-2.582-0.293
			c-1.072,0.188-1.934,0.711-2.465,1.699c-0.41,0.764-0.568,1.588-0.582,2.443c-0.002,0.119-0.021,0.176-0.146,0.215
			c-0.439,0.145-0.822,0.393-1.132,0.738c-0.896,1.021-1.043,2.209-0.667,3.453c0.338,1.115,1.097,1.836,2.29,2.02
			c0.104,0.02,0.096,0.057,0.053,0.121c-0.13,0.211-0.254,0.43-0.505,0.521c-0.035,0.014-0.076,0.031-0.073,0.074
			c0.005,0.057,0.058,0.061,0.099,0.062c0.11,0.019,0.225,0.007,0.334-0.021c0.072-0.018,0.146-0.111,0.199-0.062
			c0.061,0.062-0.013,0.161-0.029,0.243c-0.008,0.035-0.023,0.07-0.039,0.104c-0.178,0.438-0.385,0.86-0.68,1.232
			c-0.029,0.037-0.082,0.084-0.054,0.125c0.038,0.051,0.104,0.018,0.146-0.011c0.144-0.075,0.285-0.149,0.423-0.236
			c0.136-0.087,0.264-0.188,0.399-0.282c0.066,0.797,0.127,1.578,0.334,2.34c0.182,0.656,0.437,1.289,0.648,1.935
			c0.078,0.236,0.145,0.472,0.021,0.714l0.002,0.002c0.129-0.017,0.229-0.095,0.316-0.173c0.079-0.065,0.118-0.069,0.188,0.021
			c0.354,0.492,0.781,0.927,1.266,1.301c0.068,0.055,0.12,0.117,0.16,0.193c0.289,0.537,0.629,1.037,1.062,1.471
			c0.078,0.082,0.139,0.171,0.186,0.275c0.17,0.405,0.453,0.709,0.85,0.907c0.383,0.191,0.792,0.263,1.213,0.289
			c0.547,0.033,1.096-0.006,1.643-0.008c0.557-0.003,1.021-0.197,1.361-0.642c0.271-0.349,0.572-0.646,0.936-0.901
			c0.363-0.261,0.672-0.593,0.967-0.945c0.121,0.202,0.218,0.404,0.41,0.586c-0.021-0.213-0.033-0.388,0.013-0.561
			c0.158-0.573,0.493-1.062,0.89-1.478c0.84-0.887,1.596-1.824,2.155-2.912c0.021-0.033,0.024-0.084,0.075-0.1
			c0.166,0.221,0.312,0.462,0.544,0.63c-0.073-0.231-0.146-0.466-0.157-0.707c-0.023-0.366-0.062-0.737,0.078-1.097
			c0.037-0.1,0.066-0.108,0.141-0.033c0.092,0.096,0.209,0.146,0.338,0.178c0.062,0.016,0.14,0.053,0.175-0.021
			c0.028-0.062-0.054-0.096-0.091-0.137c-0.236-0.267-0.362-0.573-0.297-0.928c0.119-0.648,0.209-1.304,0.185-1.966
			c-0.003-0.084,0.024-0.106,0.104-0.118c0.696-0.091,1.269-0.425,1.709-0.966C215.751,54.505,215.904,53.468,215.673,52.375z
			 M197.863,54.518c-0.01,0.063-0.065,0.029-0.104,0.021c-0.226-0.072-0.409-0.21-0.582-0.366c-0.069-0.062-0.14-0.127-0.231-0.209
			c-0.012,0.188,0.066,0.314,0.117,0.453c0.021,0.045,0.041,0.088,0.061,0.133c0.012,0.03,0.021,0.062-0.008,0.092
			c-0.028,0.025-0.062,0.01-0.094-0.005c-0.179-0.062-0.326-0.181-0.479-0.286c-0.09-0.062-0.172-0.141-0.314-0.18
			c0.119,0.271,0.274,0.479,0.489,0.637c0.246,0.184,0.528,0.281,0.825,0.344c0.13,0.022,0.163,0.082,0.129,0.209
			c-0.038,0.141-0.062,0.285-0.076,0.428c-0.012,0.093-0.051,0.111-0.138,0.104c-0.458-0.035-0.86-0.205-1.226-0.479
			c-1.482-1.14-1.422-3.638,0.119-4.688c0.19-0.131,0.396-0.236,0.637-0.304c0.021,0.199,0.029,0.382,0.058,0.562
			c0.015,0.082-0.034,0.113-0.083,0.154c-0.268,0.229-0.511,0.479-0.701,0.771c-0.091,0.14-0.164,0.285-0.174,0.486
			c0.105-0.076,0.166-0.164,0.232-0.242c0.207-0.233,0.404-0.479,0.717-0.584c0.081-0.027,0.105-0.022,0.13,0.062
			c0.197,0.753,0.472,1.479,0.767,2.201C198.025,54.064,197.896,54.288,197.863,54.518z M208.982,47.627
			c0.135-0.082,0.271-0.15,0.414-0.213c0.062-0.025,0.109-0.031,0.11,0.062c0.004,0.098,0.017,0.189,0.021,0.246
			c-0.006,0.221-0.01,0.396-0.08,0.562c-0.045,0.106-0.115,0.183-0.239,0.179c-0.116-0.004-0.181-0.084-0.22-0.188
			c-0.071-0.178-0.069-0.363-0.069-0.553C208.917,47.676,208.945,47.65,208.982,47.627z M203.637,46.672
			c0.051-0.066,0.152,0.031,0.221,0.076c0.524,0.346,0.965,0.783,1.351,1.281c0.03,0.041,0.063,0.082,0.103,0.123
			c0.01-0.008,0.021-0.02,0.027-0.023c-0.079-0.381-0.221-0.747-0.261-1.139c0.229,0.383,0.335,0.812,0.479,1.227
			c0.055-0.001,0.047-0.048,0.059-0.08c0.127-0.376,0.244-0.755,0.419-1.113c0.057-0.111,0.12-0.227,0.188-0.334
			c0.035-0.058,0.077-0.146,0.146-0.127c0.074,0.027,0.035,0.123,0.023,0.188c-0.041,0.201-0.084,0.399-0.134,0.599
			c-0.065,0.279-0.141,0.562-0.224,0.887c0.613-0.575,1.203-1.108,1.979-1.418c-0.004,0.076-0.05,0.103-0.084,0.121
			c-0.615,0.381-1.062,0.934-1.509,1.481c-0.071,0.088-0.142,0.177-0.218,0.259c-0.277,0.303-0.667,0.321-0.979,0.055
			c-0.104-0.092-0.201-0.196-0.258-0.324c-0.267-0.619-0.732-1.077-1.209-1.529C203.702,46.818,203.578,46.752,203.637,46.672z
			 M208.67,55.666c-0.02,0.072-0.04,0.104-0.119,0.057c-0.134-0.078-0.261-0.164-0.381-0.266c-0.027-0.023-0.059-0.049-0.059-0.092
			c-0.002-0.225-0.02-0.451,0.07-0.666c0.043-0.105,0.109-0.184,0.236-0.182c0.119,0.004,0.184,0.082,0.225,0.182
			c0.067,0.167,0.072,0.344,0.072,0.521C208.719,55.371,208.709,55.52,208.67,55.666z M206.568,56.207
			c-0.012,0.079-0.047,0.154-0.069,0.23c-0.041,0.135-0.099,0.104-0.169,0.021c-0.13-0.153-0.148-0.312-0.053-0.49
			c0.062-0.112,0.142-0.215,0.232-0.304c0.231-0.214,0.537-0.176,0.702,0.09c0.054,0.084,0.101,0.171,0.039,0.271
			c-0.06,0.099-0.155,0.101-0.25,0.108c-0.093-0.014-0.187-0.026-0.271-0.041C206.645,56.086,206.587,56.109,206.568,56.207z
			 M203.493,65.797c0.196-0.543,0.604-0.766,1.212-0.658c0.173,0.03,0.33,0.027,0.479-0.062c0.105-0.062,0.107,0.006,0.096,0.078
			c-0.021,0.133-0.062,0.261-0.131,0.379c-0.105,0.186-0.184,0.211-0.396,0.166c-0.252-0.058-0.502,0.001-0.752,0.022
			C203.837,65.738,203.674,65.77,203.493,65.797z M202.363,63.209c0.129-0.467,0.473-0.68,0.926-0.756
			c1.008-0.168,1.643,0.537,1.893,1.25c-0.486-0.113-0.967-0.146-1.451-0.055c-0.485,0.096-0.922,0.304-1.312,0.646
			C202.302,63.918,202.266,63.562,202.363,63.209z M200.05,55.24c0.011-0.217,0.013-0.377,0.075-0.529
			c0.042-0.105,0.104-0.189,0.229-0.191c0.129-0.004,0.199,0.074,0.235,0.186c0.111,0.329,0.103,0.662,0.017,0.996
			c-0.019,0.07-0.061,0.092-0.127,0.051c-0.037-0.021-0.076-0.041-0.115-0.059C200.116,55.609,199.994,55.453,200.05,55.24z
			 M203.523,61.201c0.459-0.268,0.646-0.676,0.629-1.195c-0.008-0.25,0-0.499,0-0.779c0.062,0.057,0.1,0.084,0.136,0.115
			c0.052,0.045,0.101,0.057,0.147-0.006c0.039-0.047,0.094-0.076,0.15-0.084c0.044-0.004,0.098-0.007,0.062,0.066
			c-0.157,0.391-0.188,0.812-0.301,1.213c-0.059,0.207-0.101,0.416-0.137,0.627c-0.031,0.197-0.098,0.25-0.296,0.273
			c-0.235,0.023-0.47,0.004-0.735-0.037C203.318,61.318,203.42,61.26,203.523,61.201z M203.129,55.762
			c0.171-0.271,0.475-0.312,0.711-0.092c0.079,0.074,0.146,0.158,0.202,0.25c0.155,0.252,0.118,0.439-0.133,0.624
			c-0.06-0.091-0.103-0.188-0.117-0.294c-0.021-0.143-0.101-0.176-0.229-0.146c-0.076,0.021-0.158,0.033-0.234,0.031
			C203.093,56.131,203.004,55.961,203.129,55.762z M205.127,57.389c-0.066,0.18-0.132,0.361-0.201,0.541
			c-0.014,0.037-0.041,0.07-0.062,0.104c-0.062-0.022-0.062-0.067-0.062-0.108c-0.021-0.218-0.04-0.436-0.055-0.654
			c-0.011-0.143-0.062-0.238-0.195-0.306c-0.059-0.028-0.136-0.063-0.133-0.146c0.005-0.086,0.09-0.104,0.149-0.122
			c0.168-0.048,0.271-0.164,0.357-0.304c0.045-0.071,0.086-0.148,0.129-0.226c0.051-0.084,0.096-0.099,0.145,0.006
			c0.13,0.287,0.285,0.554,0.58,0.703c0.021,0.015,0.051,0.029,0.045,0.062c-0.008,0.033-0.035,0.031-0.062,0.037
			c-0.049,0.008-0.097,0.021-0.144,0.021C205.352,56.998,205.213,57.16,205.127,57.389z M199.473,47.688
			c0.108-0.086,0.228-0.16,0.366-0.229c0.042,0.286,0.039,0.555-0.054,0.818c-0.037,0.104-0.109,0.188-0.234,0.188
			c-0.126-0.001-0.189-0.084-0.232-0.191c-0.004-0.014-0.01-0.025-0.016-0.045C199.208,47.936,199.227,47.877,199.473,47.688z
			 M198.203,50.094c0.085,0.158,0.052,0.51-0.077,0.762C198.126,50.576,198.159,50.346,198.203,50.094z M199.674,55.201
			c-0.262-0.24-0.463-0.496-0.637-0.771c-0.195-0.311-0.365-0.636-0.494-0.979c-0.029-0.08-0.031-0.146-0.001-0.229
			c0.12-0.324,0.119-0.652,0.001-0.979c-0.059-0.159-0.162-0.291-0.316-0.371c-0.049-0.024-0.072-0.056-0.074-0.108
			c-0.008-0.177-0.02-0.354-0.029-0.529c-0.004-0.06,0.021-0.084,0.07-0.104c0.201-0.089,0.324-0.255,0.375-0.458
			c0.104-0.399,0.108-0.799-0.17-1.146c-0.025-0.034-0.049-0.064-0.028-0.115c0.135-0.408,0.307-0.799,0.569-1.161
			c0.026,0.046,0.045,0.08,0.065,0.112c0.132,0.222,0.313,0.351,0.58,0.334c0.265-0.018,0.438-0.158,0.547-0.389
			c0.132-0.272,0.132-0.563,0.075-0.854c-0.023-0.116,0.01-0.138,0.105-0.151c0.205-0.031,0.404-0.029,0.607-0.013
			c0.096,0.009,0.141,0.038,0.137,0.146c-0.011,0.289-0.01,0.58,0,0.869c0.002,0.106-0.031,0.146-0.138,0.131
			c-0.042-0.006-0.086,0.004-0.128-0.002c-0.085-0.013-0.1,0.031-0.1,0.104c0.002,0.071,0.011,0.119,0.104,0.117
			c0.291-0.009,0.581-0.009,0.871,0c0.099,0.002,0.101-0.05,0.101-0.118c0.002-0.072-0.012-0.104-0.096-0.104
			c-0.262-0.011-0.262-0.016-0.262-0.271c0-0.236,0-0.477,0-0.727c0.396,0.123,0.977,0.596,1.229,0.996
			c-0.078,0-0.145,0.002-0.211-0.002c-0.08-0.006-0.127,0.002-0.127,0.105c0.004,0.098,0.039,0.133,0.123,0.111
			c0.342-0.08,0.494,0.113,0.633,0.385c0.787,1.535,0.965,3.129,0.486,4.791c-0.038,0.13-0.096,0.199-0.234,0.238
			c-0.422,0.119-0.723,0.405-0.974,0.754c-0.034,0.047-0.065,0.096-0.122,0.18c0-0.229-0.003-0.42,0.002-0.609
			c0.002-0.082-0.023-0.1-0.104-0.078c-0.172,0.047-0.342,0.094-0.516,0.125c-0.134,0.025-0.109,0.121-0.096,0.196
			c0.021,0.097,0.096,0.009,0.145,0.017c0.021,0.004,0.053-0.012,0.076-0.021c0.104-0.038,0.137-0.011,0.135,0.104
			c-0.008,0.326-0.006,0.651-0.002,0.979c0.002,0.086-0.022,0.124-0.107,0.145c-0.285,0.062-0.57,0.094-0.87,0.019
			c0.183-0.337,0.202-0.688,0.11-1.046c-0.098-0.377-0.379-0.576-0.731-0.529c-0.28,0.036-0.427,0.227-0.521,0.471
			C199.693,54.898,199.671,55.035,199.674,55.201z M212.63,51.736c-0.002,0.08-0.054,0.095-0.112,0.105
			c-0.146,0.035-0.291,0.078-0.438,0.104c-0.115,0.021-0.116,0.097-0.104,0.179c0.021,0.12,0.104,0.042,0.147,0.034
			c0.204-0.043,0.203-0.049,0.203,0.154c0,0.242-0.002,0.483,0.001,0.729c0.002,0.098-0.021,0.184-0.053,0.271
			c-0.021,0.076-0.062,0.096-0.143,0.096c-0.068-0.001-0.158-0.043-0.169,0.099c-0.009,0.15,0.093,0.109,0.181,0.124
			c-0.086,0.221-0.188,0.412-0.295,0.605c-0.033,0.059-0.08,0.08-0.141,0.095c-0.146,0.034-0.29,0.079-0.438,0.104
			c-0.125,0.021-0.125,0.104-0.104,0.188c0.022,0.095,0.095,0.021,0.144,0.021c0.067,0.002,0.151-0.082,0.197-0.006
			c0.047,0.075-0.033,0.146-0.084,0.209c-0.271,0.332-0.582,0.613-0.958,0.824c-0.055,0.031-0.112,0.059-0.2,0.102
			c0-0.104,0-0.18,0-0.256c0-0.362-0.004-0.729,0.002-1.097c0.002-0.104-0.015-0.146-0.133-0.106
			c-0.131,0.045-0.267,0.084-0.404,0.104c-0.168,0.021-0.205,0.104-0.153,0.25c0.015,0,0.026,0,0.045-0.004
			c0.286-0.059,0.286-0.059,0.287,0.229c0,0.289,0.001,0.58-0.001,0.869c0,0.043,0.021,0.117-0.051,0.117
			c-0.276,0.006-0.557,0.135-0.84,0.021c-0.021-0.01-0.051-0.021-0.086-0.029c0.19-0.361,0.217-0.737,0.086-1.117
			c-0.119-0.352-0.412-0.523-0.748-0.454c-0.236,0.05-0.369,0.224-0.479,0.446c-0.132-0.191-0.27-0.357-0.447-0.486
			c-0.037-0.027-0.053-0.09-0.07-0.141c-0.477-1.287-0.442-2.584-0.069-3.887c0.05-0.176,0.112-0.349,0.177-0.521
			c0.018-0.039,0.032-0.09,0.085-0.082c0.062,0.016,0.032,0.071,0.032,0.104c0.003,0.322,0.002,0.646,0.002,0.969
			c0,0.213,0,0.215-0.211,0.214c-0.088-0.001-0.16-0.004-0.146,0.121c0.008,0.065,0.026,0.092,0.096,0.091
			c0.291-0.002,0.58-0.003,0.871,0.001c0.08,0.001,0.103-0.026,0.101-0.104c-0.002-0.066-0.013-0.104-0.097-0.107
			c-0.262-0.018-0.262-0.021-0.262-0.289c0-0.381-0.006-0.763,0.002-1.146c0.004-0.14-0.023-0.188-0.168-0.129
			c-0.041,0.02-0.09,0.021-0.158,0.032c0.109-0.259,0.246-0.479,0.391-0.696c0.043-0.062,0.104-0.035,0.161-0.043
			c0.043-0.008,0.108,0.024,0.122-0.041c0.01-0.056,0.042-0.133-0.025-0.172c-0.035-0.021-0.054-0.022-0.021-0.062
			c0.119-0.138,0.229-0.281,0.387-0.396c0.044,0.146,0.072,0.289,0.152,0.411c0.262,0.396,0.789,0.404,1.047,0.011
			c0.193-0.297,0.201-0.631,0.131-0.963c-0.031-0.14,0.008-0.164,0.13-0.168c0.196-0.002,0.396,0.012,0.591,0.055
			c0.105,0.021,0.135,0.074,0.133,0.177c-0.009,0.252-0.013,0.506,0,0.757c0.008,0.141-0.024,0.2-0.174,0.176
			c-0.051-0.009-0.115-0.013-0.154,0.014c-0.047,0.029-0.021,0.102-0.02,0.149c0.001,0.064,0.057,0.054,0.098,0.054
			c0.282,0,0.567-0.002,0.854,0.002c0.084,0.002,0.11-0.021,0.11-0.106c0-0.08-0.019-0.108-0.104-0.11
			c-0.251-0.009-0.251-0.013-0.251-0.269c0-0.202,0-0.405,0-0.63c0.295,0.16,0.53,0.363,0.701,0.626
			c0.22,0.333,0.448,0.659,0.575,1.051c0.053,0.161,0.021,0.206-0.131,0.224c-0.059,0.006-0.112,0.026-0.172,0.041
			c-0.113,0.021-0.086,0.11-0.074,0.18c0.018,0.09,0.086,0.035,0.129,0.027c0.224-0.049,0.223-0.052,0.223,0.18
			c0,0.279,0,0.56,0,0.839c0,0.221,0,0.221-0.221,0.225c-0.067,0-0.143-0.016-0.139,0.101c0.002,0.08,0.021,0.115,0.107,0.111
			c0.146-0.007,0.301,0.004,0.447-0.003c0.097-0.004,0.145,0.017,0.133,0.122C212.645,51.414,212.634,51.575,212.63,51.736z
			 M214.354,55.43c-0.312,0.242-0.67,0.381-1.058,0.445c-0.097,0.016-0.146-0.004-0.151-0.118c-0.011-0.139-0.028-0.28-0.074-0.411
			c-0.053-0.156,0.01-0.203,0.146-0.236c0.45-0.104,0.826-0.322,1.076-0.729c0.036-0.057,0.086-0.111,0.075-0.213
			c-0.188,0.084-0.322,0.217-0.481,0.314c-0.088,0.052-0.179,0.099-0.27,0.144c-0.031,0.017-0.07,0.042-0.104,0.007
			c-0.031-0.031-0.017-0.07-0.004-0.105c0.066-0.174,0.164-0.336,0.182-0.533c-0.075-0.008-0.105,0.053-0.146,0.089
			c-0.17,0.153-0.344,0.312-0.559,0.401c-0.051,0.023-0.114,0.092-0.172,0.019c-0.047-0.062-0.064-0.126-0.035-0.209
			c0.109-0.303,0.203-0.606,0.312-0.913c0.197-0.547,0.319-1.107,0.404-1.688c0.021-0.133,0.062-0.146,0.174-0.098
			c0.253,0.113,0.431,0.317,0.604,0.521c0.076,0.087,0.148,0.174,0.25,0.286c0.015-0.195-0.058-0.322-0.129-0.445
			c-0.188-0.309-0.433-0.562-0.701-0.791c-0.077-0.062-0.106-0.139-0.088-0.238c0.022-0.117,0.041-0.24,0.045-0.361
			c0.002-0.129,0.047-0.143,0.15-0.098c0.639,0.268,1.084,0.727,1.379,1.338C215.785,53.062,215.438,54.592,214.354,55.43z"/>
		<path fill="#E95B2E" d="M200.05,55.24c0.011-0.217,0.013-0.377,0.075-0.529c0.042-0.105,0.104-0.189,0.229-0.191
			c0.129-0.004,0.199,0.074,0.235,0.186c0.111,0.329,0.103,0.662,0.017,0.996c-0.019,0.07-0.061,0.092-0.127,0.051
			c-0.037-0.021-0.076-0.041-0.115-0.059C200.116,55.609,199.994,55.453,200.05,55.24z"/>
		<path fill="#E95B2E" d="M208.719,55.221c0,0.15-0.01,0.299-0.049,0.445c-0.02,0.072-0.04,0.104-0.119,0.057
			c-0.134-0.078-0.261-0.164-0.381-0.266c-0.027-0.023-0.059-0.049-0.059-0.092c-0.002-0.225-0.02-0.451,0.07-0.666
			c0.043-0.105,0.109-0.184,0.236-0.182c0.119,0.004,0.184,0.082,0.225,0.182C208.714,54.866,208.719,55.043,208.719,55.221z"/>
		<path fill="#E95B2E" d="M209.527,47.725c-0.006,0.219-0.01,0.396-0.08,0.562c-0.045,0.105-0.115,0.183-0.239,0.179
			c-0.116-0.004-0.181-0.084-0.22-0.186c-0.071-0.179-0.069-0.365-0.069-0.554c0-0.054,0.026-0.076,0.063-0.103
			c0.135-0.082,0.271-0.149,0.414-0.213c0.062-0.026,0.109-0.031,0.11,0.062C209.512,47.574,209.523,47.67,209.527,47.725z"/>
		<path fill="#E95B2E" d="M199.839,47.459c0.042,0.286,0.039,0.555-0.054,0.818c-0.037,0.104-0.109,0.188-0.234,0.188
			c-0.126-0.001-0.189-0.084-0.232-0.191c-0.004-0.014-0.01-0.025-0.016-0.045c-0.095-0.293-0.076-0.352,0.17-0.541
			C199.581,47.602,199.698,47.527,199.839,47.459z"/>
		<path fill="#E95B2E" d="M198.126,50.855c0-0.279,0.033-0.514,0.077-0.766C198.288,50.252,198.255,50.604,198.126,50.855z"/>
		<path fill="#E95B2E" d="M211.52,50.264c-0.008,0.228-0.041,0.455-0.188,0.656c-0.255,0.35-0.746,0.348-1.002-0.002
			c-0.246-0.338-0.251-0.984-0.014-1.328c0.259-0.367,0.77-0.365,1.021,0C211.48,49.788,211.514,50.016,211.52,50.264z
			 M210.529,50.242c-0.002,0.178,0,0.355,0.07,0.523c0.041,0.1,0.102,0.18,0.221,0.183c0.129,0.003,0.201-0.073,0.236-0.183
			c0.112-0.344,0.107-0.688,0.008-1.027c-0.035-0.109-0.107-0.191-0.23-0.191c-0.122,0-0.191,0.08-0.234,0.189
			C210.532,49.898,210.529,50.07,210.529,50.242z"/>
		<path fill="#E95B2E" d="M211.52,52.729c-0.008,0.211-0.031,0.416-0.142,0.604c-0.259,0.442-0.831,0.458-1.083,0.011
			c-0.227-0.398-0.227-0.826,0.003-1.226c0.249-0.437,0.822-0.423,1.077,0.01C211.468,52.286,211.518,52.492,211.52,52.729z
			 M211.137,52.803c0-0.221-0.007-0.382-0.057-0.537c-0.039-0.121-0.1-0.229-0.251-0.229c-0.153,0.001-0.22,0.111-0.249,0.232
			c-0.078,0.309-0.078,0.615-0.001,0.924c0.028,0.121,0.091,0.238,0.243,0.24c0.158,0,0.22-0.117,0.26-0.244
			C211.129,53.044,211.134,52.895,211.137,52.803z"/>
		<path fill="#E95B2E" d="M209.906,50.253c-0.006,0.233-0.039,0.459-0.182,0.657c-0.258,0.359-0.75,0.363-1.012,0.004
			c-0.246-0.34-0.248-0.982-0.006-1.328c0.255-0.359,0.753-0.361,1.016-0.006C209.844,49.747,209.91,49.986,209.906,50.253z
			 M208.918,50.256c-0.001,0.166,0.001,0.334,0.062,0.492c0.043,0.109,0.104,0.203,0.24,0.2c0.129-0.003,0.195-0.087,0.229-0.192
			c0.104-0.338,0.104-0.677,0.001-1.014c-0.033-0.111-0.104-0.193-0.229-0.195c-0.133-0.002-0.199,0.087-0.242,0.201
			C208.92,49.912,208.917,50.084,208.918,50.256z"/>
		<path fill="#E95B2E" d="M209.466,52.619c0,0.182,0,0.363,0,0.547c0,0.232,0,0.238,0.231,0.236
			c0.102-0.002,0.131,0.031,0.123,0.129c-0.002,0.066-0.02,0.095-0.09,0.094c-0.295-0.004-0.59-0.004-0.885,0.001
			c-0.09,0.001-0.095-0.042-0.092-0.108c0.002-0.062-0.003-0.105,0.087-0.115c0.261-0.019,0.261-0.021,0.261-0.293
			c0-0.258,0-0.515,0-0.771c0-0.22-0.002-0.228-0.209-0.168c-0.123,0.034-0.146-0.004-0.141-0.116
			c0.005-0.062,0.03-0.085,0.082-0.097c0.18-0.044,0.354-0.088,0.53-0.134c0.083-0.022,0.1,0.013,0.099,0.089
			C209.465,52.146,209.466,52.383,209.466,52.619z"/>
		<path fill="#E95B2E" d="M207.855,52.621c0,0.193,0.013,0.387-0.004,0.579c-0.016,0.166,0.037,0.233,0.205,0.206
			c0.096-0.016,0.17-0.006,0.153,0.127c-0.007,0.07-0.022,0.093-0.094,0.092c-0.298-0.002-0.593-0.004-0.888,0.001
			c-0.092,0.001-0.088-0.048-0.088-0.11c0-0.062,0.002-0.104,0.09-0.113c0.27-0.018,0.27-0.021,0.27-0.281
			c0-0.295-0.004-0.594,0.001-0.889c0.002-0.092-0.021-0.131-0.11-0.092c-0.035,0.012-0.074,0.027-0.107,0.025
			c-0.045-0.002-0.113,0.068-0.129-0.018c-0.014-0.067-0.051-0.164,0.074-0.192c0.178-0.041,0.354-0.085,0.527-0.132
			c0.09-0.022,0.102,0.017,0.1,0.09C207.854,52.148,207.855,52.385,207.855,52.621z"/>
		<path fill="#E95B2E" d="M201.85,52.734c0,0.211-0.029,0.416-0.141,0.604c-0.257,0.436-0.832,0.449-1.077,0.01
			c-0.229-0.406-0.229-0.84,0.011-1.244c0.246-0.42,0.811-0.4,1.062,0.018C201.818,52.307,201.854,52.518,201.85,52.734z
			 M201.479,52.732c-0.012-0.166-0.014-0.34-0.074-0.502c-0.043-0.109-0.106-0.201-0.242-0.197
			c-0.126,0.004-0.195,0.089-0.229,0.195c-0.104,0.338-0.104,0.678,0.002,1.015c0.031,0.11,0.104,0.19,0.229,0.19
			c0.125-0.002,0.189-0.084,0.232-0.189C201.464,53.082,201.465,52.91,201.479,52.732z"/>
		<path fill="#E95B2E" d="M202.088,52.734c0-0.207,0.029-0.407,0.135-0.59c0.119-0.211,0.293-0.338,0.545-0.34
			c0.256-0.007,0.446,0.111,0.562,0.34c0.192,0.395,0.198,0.801-0.011,1.188c-0.236,0.443-0.811,0.447-1.074,0.018
			C202.141,53.191,202.088,52.977,202.088,52.734z M202.471,52.727c0.004,0.182,0.006,0.354,0.073,0.521
			c0.04,0.102,0.101,0.182,0.22,0.186c0.127,0.004,0.204-0.066,0.239-0.18c0.114-0.346,0.114-0.695,0-1.043
			c-0.034-0.104-0.108-0.176-0.226-0.178c-0.125-0.002-0.19,0.08-0.234,0.186C202.477,52.383,202.475,52.555,202.471,52.727z"/>
		<path fill="#E95B2E" d="M200.48,50.295c-0.004-0.306,0.045-0.543,0.207-0.748c0.236-0.303,0.688-0.309,0.939-0.016
			c0.307,0.357,0.303,1.09-0.007,1.443c-0.243,0.273-0.687,0.271-0.922-0.014C200.55,50.786,200.48,50.559,200.48,50.295z
			 M200.859,50.252c0.007,0.165,0.004,0.343,0.072,0.51c0.043,0.104,0.104,0.189,0.23,0.188c0.127-0.005,0.195-0.083,0.229-0.189
			c0.108-0.341,0.108-0.683,0.002-1.021c-0.035-0.109-0.107-0.188-0.23-0.188s-0.188,0.083-0.23,0.188
			C200.866,49.898,200.865,50.07,200.859,50.252z"/>
		<path fill="#E95B2E" d="M202.667,49.627c-0.083,0.02-0.153,0.044-0.228,0.055c-0.041,0.006-0.11,0.067-0.125-0.021
			c-0.01-0.07-0.039-0.162,0.084-0.188c0.175-0.035,0.347-0.078,0.517-0.13c0.097-0.024,0.112,0.007,0.112,0.101
			c-0.004,0.435,0.008,0.869-0.006,1.303c-0.006,0.16,0.043,0.208,0.191,0.188c0.092-0.015,0.188-0.022,0.167,0.127
			c-0.009,0.062-0.021,0.082-0.085,0.082c-0.301-0.002-0.604-0.004-0.898,0c-0.094,0.002-0.084-0.054-0.086-0.112
			c-0.002-0.062,0.01-0.097,0.086-0.101c0.271-0.021,0.271-0.027,0.271-0.3C202.667,50.297,202.667,49.969,202.667,49.627z"/>
		<path fill="#E95B2E" d="M199.805,50.12c0,0.209,0.01,0.419-0.005,0.628c-0.011,0.152,0.044,0.191,0.187,0.178
			c0.08-0.009,0.191-0.043,0.179,0.118c-0.011,0.067-0.022,0.093-0.097,0.092c-0.295-0.003-0.59-0.004-0.885,0
			c-0.084,0.003-0.096-0.036-0.096-0.104c0-0.068,0.012-0.104,0.094-0.109c0.264-0.014,0.262-0.021,0.262-0.289
			c0-0.295-0.002-0.59,0.004-0.884c0-0.091-0.016-0.132-0.11-0.092c-0.035,0.015-0.071,0.025-0.106,0.023
			c-0.045-0.005-0.121,0.084-0.133-0.031c-0.01-0.073-0.027-0.157,0.094-0.185c0.174-0.032,0.345-0.08,0.516-0.128
			c0.09-0.023,0.107,0.005,0.105,0.092C199.8,49.659,199.805,49.891,199.805,50.12z"/>
		<path fill="#E95B2E" d="M199.805,52.611c0,0.227,0.004,0.451-0.003,0.677c-0.002,0.087,0.019,0.132,0.113,0.118
			c0.047-0.006,0.099,0.004,0.146-0.002c0.101-0.012,0.103,0.045,0.104,0.117c0.001,0.066-0.012,0.104-0.098,0.104
			c-0.295-0.006-0.59-0.006-0.885,0c-0.088,0.001-0.096-0.04-0.093-0.107c0.002-0.061-0.005-0.105,0.087-0.115
			c0.27-0.021,0.27-0.021,0.27-0.299c0-0.291-0.004-0.58,0.004-0.871c0-0.088-0.016-0.135-0.111-0.094
			c-0.033,0.014-0.072,0.028-0.105,0.025c-0.045-0.005-0.123,0.085-0.135-0.031c-0.01-0.076-0.023-0.158,0.096-0.183
			c0.168-0.031,0.334-0.076,0.5-0.123c0.09-0.025,0.121-0.011,0.119,0.091C199.799,52.15,199.805,52.381,199.805,52.611z"/>
		<path fill="#E95B2E" d="M205.334,48.129c0.014,0.023,0.021,0.047,0.003,0.071c-0.011-0.017-0.021-0.031-0.032-0.048
			C205.314,48.145,205.324,48.137,205.334,48.129z"/>
		<path fill="#E95B2E" d="M210.529,50.242c0-0.172,0.005-0.344,0.068-0.506c0.043-0.109,0.11-0.189,0.232-0.189
			c0.123,0,0.193,0.082,0.229,0.191c0.104,0.343,0.106,0.688-0.008,1.027c-0.035,0.105-0.109,0.186-0.236,0.183
			c-0.117-0.003-0.18-0.083-0.221-0.183C210.529,50.598,210.527,50.42,210.529,50.242z"/>
		<path fill="#E95B2E" d="M211.137,52.803c-0.003,0.092-0.008,0.241-0.055,0.387c-0.04,0.127-0.102,0.244-0.26,0.244
			c-0.152-0.002-0.215-0.119-0.243-0.24c-0.077-0.307-0.077-0.613,0.001-0.924c0.029-0.121,0.096-0.229,0.249-0.23
			c0.151-0.002,0.212,0.105,0.251,0.229C211.13,52.421,211.137,52.582,211.137,52.803z"/>
		<path fill="#E95B2E" d="M208.918,50.256c-0.001-0.172,0.002-0.344,0.062-0.508c0.043-0.114,0.108-0.203,0.242-0.201
			c0.123,0.002,0.193,0.084,0.229,0.195c0.104,0.337,0.104,0.676-0.001,1.014c-0.033,0.105-0.104,0.189-0.229,0.192
			c-0.138,0.003-0.197-0.091-0.24-0.2C208.919,50.59,208.917,50.422,208.918,50.256z"/>
		<path fill="#E95B2E" d="M201.479,52.732c-0.014,0.178-0.015,0.35-0.08,0.512c-0.043,0.105-0.106,0.188-0.231,0.189
			c-0.128,0-0.196-0.08-0.229-0.19c-0.104-0.337-0.104-0.677-0.002-1.015c0.03-0.106,0.104-0.191,0.229-0.195
			c0.136-0.004,0.201,0.088,0.244,0.197C201.465,52.395,201.467,52.566,201.479,52.732z"/>
		<path fill="#E95B2E" d="M202.471,52.727c0.004-0.172,0.006-0.344,0.072-0.508c0.044-0.104,0.109-0.188,0.234-0.186
			c0.115,0.002,0.188,0.072,0.226,0.178c0.114,0.348,0.114,0.697,0,1.043c-0.035,0.109-0.112,0.184-0.239,0.18
			c-0.119-0.004-0.18-0.084-0.22-0.186C202.477,53.08,202.475,52.904,202.471,52.727z"/>
		<path fill="#E95B2E" d="M200.859,50.252c0.007-0.182,0.009-0.354,0.072-0.516c0.043-0.106,0.107-0.189,0.23-0.189
			s0.195,0.078,0.23,0.188c0.106,0.346,0.106,0.688-0.002,1.024c-0.033,0.106-0.104,0.187-0.229,0.189
			c-0.129,0.003-0.188-0.083-0.23-0.188C200.863,50.595,200.865,50.417,200.859,50.252z"/>
	</g>
	<circle fill="none" stroke="#E95B2E" stroke-miterlimit="10" cx="242.85" cy="55.932" r="16.666"/>
	<circle fill="none" stroke="#E95B2E" stroke-miterlimit="10" cx="280.389" cy="55.932" r="16.666"/>
	<g>
		<polygon fill="#E95B2E" points="288.898,56.361 280.309,46.342 271.719,56.361 273.866,56.361 273.866,63.521 278.161,63.521 
			278.161,57.795 282.456,57.795 282.456,63.521 286.751,63.521 286.751,56.361 		"/>
	</g>
	<g>
		<circle fill="none" stroke="#E95B2E" stroke-miterlimit="10" cx="317.929" cy="55.932" r="16.666"/>
		<g>
			<path fill="#E95B2E" d="M326.314,51.07h-17.013V63.22h17.013V51.07L326.314,51.07z"/>
			<rect x="310.822" y="49.855" fill="#E95B2E" width="13.974" height="0.604"/>
			<rect x="312.036" y="48.641" fill="#E95B2E" width="11.545" height="0.607"/>
		</g>
	</g>
	<g>
		<path fill="#E95B2E" d="M166.304,53.588c-0.799-0.477-1.734-0.766-2.686-0.766c-1.835,0-3.025,1.24-3.025,3.246
			c0,2.021,1.122,3.299,3.042,3.299c1.037,0,2.006-0.34,2.805-0.867l0.561,2.396c-0.833,0.459-2.244,0.766-3.485,0.766
			c-3.399,0-5.643-1.955-5.643-5.525c0-3.434,2.227-5.609,5.729-5.609c1.292,0,2.549,0.324,3.519,0.801L166.304,53.588z"/>
		<path fill="#E95B2E" d="M174.686,61.406h-3.383l-3.587-10.623h2.788l2.516,8.006l2.5-8.006h2.82L174.686,61.406z"/>
	</g>
	<path fill="#E95B2E" d="M252.643,57.887v-3.916h-2.184c-0.173-0.734-0.454-1.428-0.82-2.065l1.52-1.515l-2.77-2.77l-1.484,1.484
		c-0.643-0.394-1.346-0.688-2.096-0.883v-2.087h-3.916v2.087c-0.752,0.193-1.455,0.493-2.097,0.883l-1.485-1.484l-2.769,2.77
		l1.519,1.515c-0.365,0.639-0.642,1.331-0.819,2.065h-2.183v3.916h2.248c0.193,0.699,0.485,1.357,0.853,1.971l-1.616,1.615
		l2.77,2.771l1.646-1.647c0.598,0.348,1.25,0.606,1.934,0.785v2.348h3.916V63.38c0.688-0.179,1.336-0.438,1.935-0.786l1.646,1.648
		l2.771-2.77l-1.611-1.617c0.368-0.606,0.657-1.265,0.853-1.97L252.643,57.887L252.643,57.887z M242.85,58.672
		c-1.516,0-2.738-1.229-2.738-2.742c0-1.516,1.224-2.744,2.738-2.744c1.516,0,2.744,1.229,2.744,2.744
		C245.594,57.443,244.365,58.672,242.85,58.672z"/>
	<g>
		<defs>
			<circle id="SVGID_11_" cx="354.879" cy="55.932" r="16.666"/>
		</defs>
		<clipPath id="SVGID_12_">
			<use xlink:href="#SVGID_11_"  overflow="visible"/>
		</clipPath>
		<g clip-path="url(#SVGID_12_)">
			<rect x="360.308" y="36.994" fill="#ED2939" width="11.099" height="35.875"/>
			<rect x="349.21" y="36.994" fill="#FFFFFF" width="11.098" height="35.875"/>
			<rect x="338.111" y="36.994" fill="#002395" width="11.099" height="35.875"/>
		</g>
	</g>
	<g>
		<circle fill="none" stroke="#E95B2E" stroke-miterlimit="10" cx="355" cy="55.932" r="16.666"/>
	</g>
	<g>
		<circle fill="none" stroke="#E95B2E" stroke-miterlimit="10" cx="392.361" cy="55.551" r="16.666"/>
	</g>
	<circle fill="none" stroke="#E95B2E" stroke-miterlimit="10" cx="355" cy="55.932" r="15.869"/>
	<circle fill="none" stroke="#E95B2E" stroke-miterlimit="10" cx="392.361" cy="55.551" r="15.869"/>
</g>
</svg>
